<svg class="blog-svg" xmlns="http://www.w3.org/2000/svg" xmlns:xlink="http://www.w3.org/1999/xlink" viewBox="0 0 439.08 429.74"><defs><style>.blog-svg .cls-1,.blog-svg .cls-8{fill:#8e88db;}.blog-svg .cls-12,.blog-svg .cls-13,.blog-svg .cls-2,.blog-svg .cls-4,.blog-svg .cls-5,.blog-svg .cls-7{fill:#fff;}.blog-svg .cls-2{opacity:0.7;}.blog-svg .cls-14,.blog-svg .cls-15,.blog-svg .cls-16,.blog-svg .cls-17,.blog-svg .cls-3,.blog-svg .cls-9{fill:none;}.blog-svg .cls-11,.blog-svg .cls-14,.blog-svg .cls-15,.blog-svg .cls-3,.blog-svg .cls-5,.blog-svg .cls-8,.blog-svg .cls-9{stroke:#222238;}.blog-svg .cls-14,.blog-svg .cls-15,.blog-svg .cls-16,.blog-svg .cls-17,.blog-svg .cls-3,.blog-svg .cls-5{stroke-linecap:round;stroke-linejoin:round;}.blog-svg .cls-11,.blog-svg .cls-12,.blog-svg .cls-14,.blog-svg .cls-16,.blog-svg .cls-17,.blog-svg .cls-3,.blog-svg .cls-5,.blog-svg .cls-8,.blog-svg .cls-9{stroke-width:1.1px;}.blog-svg .cls-3{stroke-dasharray:4.41;}.blog-svg .cls-4{opacity:0.5;}.blog-svg .cls-11,.blog-svg .cls-6{fill:#222238;}.blog-svg .cls-10,.blog-svg .cls-16,.blog-svg .cls-7{opacity:0.2;}.blog-svg .cls-11,.blog-svg .cls-12,.blog-svg .cls-8,.blog-svg .cls-9{stroke-miterlimit:10;}.blog-svg .cls-12{stroke:#222221;}.blog-svg .cls-15{stroke-width:1.5px;}.blog-svg .cls-16,.blog-svg .cls-17{stroke:#fff;}.blog-svg .cls-18{fill:url(#linear-gradient);}.blog-svg .cls-19{fill:url(#linear-gradient-2);}.blog-svg .cls-20{fill:url(#linear-gradient-3);}</style><linearGradient id="linear-gradient" x1="110.06" y1="418.19" x2="99.82" y2="406.16" gradientTransform="matrix(1, 0, 0, -1, 167.71, 744.04)" gradientUnits="userSpaceOnUse"><stop offset="0" stop-color="#421897"/><stop offset="1" stop-color="#1e177a"/></linearGradient><linearGradient id="linear-gradient-2" x1="111.2" y1="417.05" x2="100.52" y2="404.5" xlink:href="#linear-gradient"/><linearGradient id="linear-gradient-3" x1="109.56" y1="417.83" x2="99.64" y2="406.18" xlink:href="#linear-gradient"/></defs><g id="Background_Simple" data-name="Background Simple"><path class="cls-1" d="M426.09,166.71c-48.75-83.47-180.95-53.74-208-94.34-13.82-20.79-29.29-44.89-51.73-57.43C145,3,120.21-1.27,98.59.32,21.38,6-11.35,75.05,3.48,150.91,23.27,252.1,113,355.47,219.55,356.19c55.73.38,108.94-19.54,150.69-47.71l.93-.63C412.87,279.46,463.3,230.45,426.09,166.71Z"/><path class="cls-2" d="M426.09,166.71c-48.75-83.47-180.95-53.74-208-94.34-13.82-20.79-29.29-44.89-51.73-57.43C145,3,120.21-1.27,98.59.32,21.38,6-11.35,75.05,3.48,150.91,23.27,252.1,113,355.47,219.55,356.19c55.73.38,108.94-19.54,150.69-47.71l.93-.63C412.87,279.46,463.3,230.45,426.09,166.71Z"/></g><g id="Lines"><path class="cls-3" d="M47.73,172.79H42.31a21.93,21.93,0,0,0-21.93,21.93V315.06A21.93,21.93,0,0,0,42.31,337h74.36a21.93,21.93,0,0,0,21.93-21.93h0"/><path class="cls-3" d="M132.5,59.24V35.47A13.44,13.44,0,0,1,145.93,22h96.71a13.44,13.44,0,0,1,13.43,13.44h0"/></g><g id="Shadow"><ellipse class="cls-1" cx="219.54" cy="403.01" rx="191.52" ry="26.76"/><ellipse class="cls-4" cx="219.54" cy="403.01" rx="191.52" ry="26.76"/></g><g id="Window"><path class="cls-5" d="M400.08,91.13V271.19a22.2,22.2,0,0,1-22.2,22.2H61.19A22.2,22.2,0,0,1,39,271.19V91.13q0-.8.06-1.56A22.2,22.2,0,0,1,61.19,68.93H377.88A22.19,22.19,0,0,1,400,89.57C400.06,90.08,400.08,90.6,400.08,91.13Z"/><path class="cls-6" d="M49.8,97.89H390.41a0,0,0,0,1,0,0V264.22a20.8,20.8,0,0,1-20.8,20.8H70.6a20.8,20.8,0,0,1-20.8-20.8V97.89a0,0,0,0,1,0,0Z"/><path class="cls-7" d="M390.41,97.88V264.22A20.68,20.68,0,0,1,369.85,285H70.37A20.68,20.68,0,0,1,49.8,264.22V97.88Z"/><path class="cls-8" d="M400,89.57H39.06A22.2,22.2,0,0,1,61.19,68.93H377.88A22.19,22.19,0,0,1,400,89.57Z"/><path class="cls-6" d="M83.42,79.25a3.93,3.93,0,1,1-3.93-3.93A3.93,3.93,0,0,1,83.42,79.25Z"/><path class="cls-6" d="M100,79.25a3.93,3.93,0,1,1-3.93-3.93A3.93,3.93,0,0,1,100,79.25Z"/><circle class="cls-6" cx="112.73" cy="79.25" r="3.93"/><path class="cls-9" d="M390.41,97.89V264.22A20.81,20.81,0,0,1,369.6,285H70.6a20.8,20.8,0,0,1-20.4-16.77h0v0a21,21,0,0,1-.39-4V97.89Z"/><path class="cls-6" d="M390.09,123.62a21,21,0,0,0-4.63-1.91l-1.86-8.35h-7.94l-1.86,8.35a20.36,20.36,0,0,0-4.63,1.91L362,119l-5.61,5.61,4.51,7.17a20.35,20.35,0,0,0-1.91,4.64l-8.35,1.85v7.94l8.35,1.87a20.14,20.14,0,0,0,1.91,4.66L356.31,160l5.61,5.61,7.22-4.59a20.2,20.2,0,0,0,4.63,1.92l1.85,8.34h7.95l1.86-8.34a20.78,20.78,0,0,0,4.62-1.92l.37.23V123.41Zm-10.44,28.95a10.26,10.26,0,1,1,10.26-10.26A10.26,10.26,0,0,1,379.65,152.57Z"/><path class="cls-6" d="M247,131.66V114.92L229.38,111a45.48,45.48,0,0,0-4-9.77l2.13-3.36h-83.1l2.05,3.27a43,43,0,0,0-4,9.76l-17.61,3.92v16.74l17.61,3.93a43.65,43.65,0,0,0,4,9.84l-9.67,15.21,11.84,11.84,15.2-9.68a44.46,44.46,0,0,0,9.78,4l3.9,17.59h16.75l3.94-17.59a45.34,45.34,0,0,0,9.74-4l15.21,9.68L235,160.55l-9.6-15.21a45.84,45.84,0,0,0,4-9.75Zm-61,13.26a21.63,21.63,0,1,1,21.63-21.63A21.63,21.63,0,0,1,186,144.92Z"/><path class="cls-6" d="M135.92,246.64l.71-13.28-13.77-3.88a37.77,37.77,0,0,0-2.82-7.9l8.32-11.68-8.92-9.9L107,207.05a37.28,37.28,0,0,0-7.59-3.63L97,189.3l-13.28-.7-3.84,13.81a35.14,35.14,0,0,0-7.89,2.8l-11.67-8.32-9.91,8.92,7.06,12.47a34.56,34.56,0,0,0-3.64,7.58l-4,.66v18l2.93.82a34.13,34.13,0,0,0,2.82,7.92l-5.75,8,.39,6.9v0h0l5.92,6.58,12.49-7.05a34.44,34.44,0,0,0,7.61,3.67L78.49,285h0l.12.56,13.28.71.35-1.27h0l3.49-12.53a36.22,36.22,0,0,0,7.94-2.8l11.65,8.3,9.9-8.9-7-12.49a34.27,34.27,0,0,0,3.6-7.56Zm-35.27-20.75a17.2,17.2,0,1,0-1.28,24.28A17.21,17.21,0,0,0,100.65,225.89Z"/><path class="cls-6" d="M242.14,226.8a27.24,27.24,0,0,0,.8-6.29l9.55-5-2.64-9.69-10.77.5a26.89,26.89,0,0,0-3.88-5L238.4,191l-8.71-5L222.41,194a28.12,28.12,0,0,0-6.27-.8l-5-9.56-9.67,2.64.51,10.79a26.91,26.91,0,0,0-5,3.87l-10.32-3.19-5,8.69,8,7.26a26.1,26.1,0,0,0-.79,6.28l-9.57,5,2.64,9.69,10.79-.51a25.44,25.44,0,0,0,3.86,5l-3.21,10.26,8.71,5,7.24-7.88a26.1,26.1,0,0,0,6.28.79l5,9.56,9.67-2.63-.42-9.22-.07-1.58a26.73,26.73,0,0,0,5.06-3.87l10.31,3.2,4.26-7.44.72-1.26Zm-22.87,5.88a13,13,0,1,1,9.09-15.91A13,13,0,0,1,219.27,232.68Z"/><path class="cls-6" d="M352.85,243.84l2.21-13.3-13.46-5.41a35.77,35.77,0,0,0-1.93-8.3L349.36,206l-7.85-11-13.35,5.67a35.38,35.38,0,0,0-7.22-4.48l-.78-14.49-13.31-2.2L301.4,193a37.18,37.18,0,0,0-8.26,1.94l-10.82-9.68-10.95,7.84,5.68,13.35a36.24,36.24,0,0,0-4.05,6.29c-.15.31-.31.61-.45.92l-14.49.81-2.2,13.28,2.18.88,11.28,4.55a34.21,34.21,0,0,0,1.93,8.26l-9.69,10.82,7.84,11,13.36-5.7A35.06,35.06,0,0,0,290,262l.75,14.42,13.29,2.2,5.44-13.3a34.66,34.66,0,0,0,8.28-1.95l10.8,9.7,11-7.85-5.69-13.36a34.82,34.82,0,0,0,4.56-7.25Zm-37.29-.6a17.41,17.41,0,1,1,4-24.29A17.41,17.41,0,0,1,315.56,243.24Z"/></g><g id="Graphics"><rect class="cls-8" x="54.93" y="145.38" width="130.8" height="171.01" rx="13.11"/><rect class="cls-10" x="54.93" y="145.38" width="130.8" height="171.01" rx="13.11"/><path class="cls-5" d="M197.9,171.41V316.2a13.11,13.11,0,0,1-13.12,13.11H80.21A13.1,13.1,0,0,1,67.1,316.2V171.41A13.11,13.11,0,0,1,80.21,158.3H184.78A13.11,13.11,0,0,1,197.9,171.41Z"/><path class="cls-11" d="M197.9,171.41v7.75H67.1v-7.75A13.11,13.11,0,0,1,80.21,158.3H184.78A13.11,13.11,0,0,1,197.9,171.41Z"/><rect class="cls-1" x="79.4" y="188.14" width="32.18" height="5.4"/><rect class="cls-1" x="79.4" y="236.53" width="32.18" height="5.4"/><rect class="cls-1" x="79.4" y="280.41" width="32.18" height="5.4"/><rect class="cls-6" x="79.4" y="201.5" width="91.39" height="3.96"/><rect class="cls-6" x="79.4" y="209.08" width="74.91" height="3.86"/><rect class="cls-6" x="79.4" y="216.53" width="84.72" height="3.86"/><rect class="cls-6" x="79.4" y="223.97" width="84.72" height="3.86"/><rect class="cls-6" x="79.4" y="245.38" width="91.39" height="3.96"/><rect class="cls-6" x="79.4" y="252.96" width="74.91" height="3.86"/><rect class="cls-6" x="79.4" y="260.41" width="84.72" height="3.86"/><rect class="cls-6" x="79.4" y="293.57" width="91.39" height="3.96"/><rect class="cls-6" x="79.4" y="301.15" width="74.91" height="3.86"/><rect class="cls-6" x="79.4" y="308.6" width="84.72" height="3.86"/><path class="cls-12" d="M345.3,57.9v58.52a15.62,15.62,0,0,1-15.63,15.63H194.88a15.63,15.63,0,0,1-15.63-15.63V57.9a15.65,15.65,0,0,1,15.63-15.64H329.67A15.63,15.63,0,0,1,345.3,57.9Z"/><path class="cls-8" d="M345.3,57.9v1.34h-166V57.9a15.65,15.65,0,0,1,15.63-15.64H329.67A15.63,15.63,0,0,1,345.3,57.9Z"/><path class="cls-6" d="M203.65,53.55a2.4,2.4,0,1,1,0-3.39A2.41,2.41,0,0,1,203.65,53.55Z"/><path class="cls-6" d="M214.77,53.55a2.4,2.4,0,1,1,0-3.39A2.41,2.41,0,0,1,214.77,53.55Z"/><path class="cls-6" d="M225.89,53.55a2.4,2.4,0,1,1,0-3.39A2.41,2.41,0,0,1,225.89,53.55Z"/><rect class="cls-3" x="189.84" y="70" width="54.28" height="46.92"/><rect class="cls-6" x="252.49" y="70" width="62.47" height="3.3"/><rect class="cls-6" x="252.49" y="76.83" width="47.92" height="3.29"/><rect class="cls-6" x="252.49" y="83.63" width="71.35" height="3.33"/><rect class="cls-6" x="252.49" y="90.26" width="60.76" height="3.33"/></g><g id="Character"><path class="cls-1" d="M266.4,398.07s-29,8.32-33,9.76c-3.68,1.3-13.67,4.79-21.16,3.71a16.59,16.59,0,0,1-2.14-.46c-7.58-2.26-11-4.37-12-9.15s2.78-8.28,6.42-10.53,23.39-4.6,23.39-4.6l4.77,1.4h0Z"/><path class="cls-13" d="M212.19,411.54a16.59,16.59,0,0,1-2.14-.46c-7.58-2.26-11-4.37-12-9.15s2.78-8.28,6.42-10.53,23.39-4.6,23.39-4.6l4.77,1.4c-4.32,2-20.4,3.09-23.91,5.11s-5.21,5.82-3.13,11C206.7,407,209.66,409.66,212.19,411.54Z"/><path class="cls-14" d="M262,399.26s-21.78,5.64-30.42,9.25-25.11,5.19-31-2.26S200,392.4,205.83,391s17.74-3.68,24.22-2.77"/><path class="cls-14" d="M212.63,411.15s-11.08-6.08-7.4-14.6c2.72-6.28,17.5-4.92,24.82-8.35"/><path class="cls-1" d="M354.73,412.89c-.3,3-1.35,5.81-4.35,7.58-2,1.18-4.84,1.88-8.91,1.84-10.17-.13-29.29-7.4-29.29-7.4l-17.9-9.9,9.31-14.73,2.55-4,6.58,1.48s5.45,3.08,10.93,5.54,18.79,3,23.48,6.78S355.23,408,354.73,412.89Z"/><path class="cls-13" d="M354.73,412.89c-.3,3-1.35,5.81-4.35,7.58a13.4,13.4,0,0,0-.51-8.94c-2-4.49-8.5-8.45-17.06-9.11s-15.11-4.67-18.55-6.45c-2.68-1.39-8.32-4.43-10.67-5.69l2.55-4,6.58,1.48s5.45,3.08,10.93,5.54,18.79,3,23.48,6.78S355.23,408,354.73,412.89Z"/><path class="cls-14" d="M298.24,407.79a113.15,113.15,0,0,0,41.91,14.31c3.25.39,7,.45,9.23-2a6.83,6.83,0,0,0,1.5-5.12c-.4-4.59-4.26-8.24-8.5-10.06s-8.92-2.25-13.42-3.26a53.38,53.38,0,0,1-12.9-4.72c-3.24-1.69-6.37-3.74-9.94-4.5s-7.82.16-9.73,3.28"/><path class="cls-14" d="M348.18,421.35a11.92,11.92,0,0,0,6.55-8.46c.65-4.33-1.82-8.69-5.29-11.35s-7.82-3.92-12.11-4.81-8.68-1.49-12.76-3.09c-6.27-2.45-12.46-7.29-19-5.56"/><path class="cls-1" d="M318.45,252.87l-30.3-11.53-.37-.14s.11-.8.2-2c.19-2.42.28-6.36-.85-7.69-1.69-2-6.48-.32-11.14-2.46s-13.31,1.69-13.31,1.69-6.23-1.15-9,3.35c-1.4,3.63-.91,9-.91,9l-.57.21c-3.61,1.35-23.25,8.74-27.41,11.71-4.58,3.25-9.66,36.62-11.29,46.42s-4.54,18.63-3.06,22S233,343.11,245.17,347.3s55.18,3,55.18,3,.71-.19,2-.59c7.28-2.34,33.11-12,46.81-34.68C349.12,315,335.85,271.47,318.45,252.87ZM236.61,309c-2.23,1.58-1,7.7-1,7.7l-3.8-3.34L241.29,290l4.06,18S238.83,307.43,236.61,309Zm76.15,14.87c-1,.54,3-10.71,1.09-13.26s-7.71-2.31-7.71-2.31l.49-3.07,3.43-17.6,1.14-1.36s11.78,20.2,13.89,27.32C325.09,313.59,312.25,323.87,312.76,323.87Z"/><path class="cls-13" d="M261.25,179.86l-15.63,16.6s-2.16,1.91-1.3,6.72,2.85,8.95,4.36,9.27a20.73,20.73,0,0,0,3.62.33s3.35,7.26,5.72,10.11c0,0,.83,11.21.39,14.32,0,0,5.62,4.91,10.91,5.53s13.46-7.48,13.46-7.48l2-9.92s4.79-7.28,5.12-9.22,2.52-1.44,3.6-2.4,3.57-5.23,4-9.27.44-8.68-4.25-7.32c-4.07-1.09-1.52-9.69-1.52-9.69l-7.15-6.31Z"/><path class="cls-4" d="M288.15,241.34a15,15,0,0,1-.8,1.81c-2.58,4.87-13.82,14.13-13.82,14.13l-3.4-10.44-1.86,10.44c-3.76-1.63-15.19-11.54-15.19-11.54s-.39-.93-.86-2.38l.57-.21s-.49-5.4.91-9c2.75-4.5,9-3.35,9-3.35s8.64-3.83,13.31-1.69,9.45.48,11.14,2.46.65,9.66.65,9.66Z"/><path class="cls-10" d="M318.45,252.87l-30.3-11.53-.37-.14s.11-.8.2-2l-.63,3.92-4.48,6.09a124.82,124.82,0,0,1,14,6.16,12.28,12.28,0,0,1,6.42,12.25l-5.58,47.75-2.29,27.11,6.91,7.17c7.28-2.34,33.11-12,46.81-34.68C349.12,315,335.85,271.47,318.45,252.87Zm-5.69,71c-1,.54,3-10.71,1.09-13.26s-7.71-2.31-7.71-2.31l.49-3.07,3.43-17.6,1.14-1.36s11.78,20.2,13.89,27.32C325.09,313.59,312.25,323.87,312.76,323.87Z"/><path class="cls-10" d="M247.41,310.61l-4.71-15.74s-8.45-28.81-14.24-35.91L230,279.22s-5,24.2-9.57,31.39-5.59,9,0,9,19.2,10.84,19.2,10.84l-1.05-9Zm-11.84,6.09-3.8-3.34L241.29,290l4.06,18s-6.52-.49-8.74,1.08S235.57,316.7,235.57,316.7Z"/><path class="cls-14" d="M258,222.89s.87,8.49,0,12.37"/><path class="cls-14" d="M283.65,234.12a36.53,36.53,0,0,1,.94-8.11"/><path class="cls-14" d="M285.92,186.19s5.14,6.45,4.87,11.32-.66,10.67-.52,16.33-9.09,17.52-13.83,18.57-8.82,1.32-11.85-1.71-6.06-7.24-10-12.64-3-17.25-3-17.25"/><path class="cls-14" d="M273.56,205.32a26.82,26.82,0,0,0-.4,5.37,6.07,6.07,0,0,0,1.32,4.2c.56.58,1.39,1.05,1.5,1.85a2,2,0,0,1-1.06,1.75,13.26,13.26,0,0,0-1.85,1.1"/><path class="cls-14" d="M265.4,220.21s.6,3.83,5.73,4.63"/><path class="cls-6" d="M265.94,208.24c0,1.11-.48,2-1.07,2s-1.07-.89-1.07-2,.48-2,1.07-2S265.94,207.13,265.94,208.24Z"/><path class="cls-6" d="M281.25,208.72c0,1.11-.48,2-1.07,2s-1.07-.89-1.07-2,.48-2,1.07-2S281.25,207.62,281.25,208.72Z"/><path class="cls-15" d="M278.16,203.87s5-5,9.19.58"/><path class="cls-15" d="M267.63,204s-3.16-3.54-8.14,0"/><path class="cls-6" d="M258.41,227.56s3,8.4,9.86,10.78,15.85-10,15.85-10l-.47-1.61s-5.93,7.7-12.52,6.38S258,222.89,258,222.89Z"/><path class="cls-14" d="M252.3,212.45s-4.06,1.44-5.14-1.73-4.78-11.48-1.54-14.26,5.84,3.67,5.84,3.67"/><path class="cls-14" d="M290.26,214.18s3.77.76,4.85-2.41,4.78-11.48,1.54-14.26-5.84,3.67-5.84,3.67"/><path class="cls-6" d="M251.46,208.24a5.65,5.65,0,0,0,3.56-2.1,9.12,9.12,0,0,0,1-3.2,39.5,39.5,0,0,0,.56-6.43,8.46,8.46,0,0,1,.23-2.51,6.33,6.33,0,0,1,1.35-2.23c1.42-1.66,3.13-3.06,4.47-4.78a8,8,0,0,0,2-6,27.45,27.45,0,0,0,22.47,5.81c7.14-1.4,9.51-4.55,10.56-12.4.27-2,.25-8-2.43-8.63-3.53-.88-6.7,1-9.9,2.21-5.83,2.2-11.54-1.58-17.43-2.22-5-.54-11.23.09-13.85,5.1,0,0-9.06,1.06-13,8.5S244.62,197,244.62,197s3-3.67,6.93,3.77Z"/><path class="cls-6" d="M286.49,184.29s-2.34,12.2,3.77,18.11c0,0,1.33-3.67,2.69-4.57a14.13,14.13,0,0,0-1.07-13.54C287.41,177.19,286.49,184.29,286.49,184.29Z"/><path class="cls-16" d="M245.16,187.44a14.82,14.82,0,0,1,9-13.08"/><path class="cls-14" d="M256.07,234.12a38.61,38.61,0,0,0,13.2,9s10.15-2.95,15.32-10"/><circle class="cls-14" cx="263.08" cy="208.24" r="8.63" transform="translate(-62.86 128.62) rotate(-24.64)"/><circle class="cls-14" cx="282.36" cy="208.24" r="8.63" transform="translate(-23.28 35.98) rotate(-7)"/><path class="cls-14" d="M258,230.77a7,7,0,0,0-4.32,3.35c-1.59,2.8-.63,11.61-.63,11.61s8.21,8.12,15.2,11.55l2.06-11.59,3.2,11.59s10.82-7.65,13.82-14.12c0,0,1-7.55,0-10a3.47,3.47,0,0,0-3.23-2.36"/><path class="cls-14" d="M245.16,308.31s-3.2-21.5-7.47-30.27"/><path class="cls-14" d="M228.46,259a87.45,87.45,0,0,1,6.64,11.11"/><path class="cls-14" d="M312.77,275a61,61,0,0,1,3.52-10.49"/><path class="cls-14" d="M306.13,308.31s2.32-14.74,5.07-26.88"/><path class="cls-14" d="M310.06,287.63a16.92,16.92,0,0,1,8.94-6.12"/><path class="cls-14" d="M287.78,241.2s18.64,7.45,30.67,11.67c0,0,14.8,13.92,30.67,62.13,0,0-14.55,24.46-42.2,32.3"/><path class="cls-14" d="M311.72,324.74l13.36-11.15s7.07-5.38,14.42-1.7"/><path class="cls-14" d="M311.2,286.28s11.06,16.28,13.88,27.31"/><path class="cls-14" d="M235.69,317.32l-3.91-3.73s-5.81-1-12.38,3.39"/><path class="cls-14" d="M231.78,313.59s4.86-16,9.65-24.19"/><path class="cls-14" d="M252.78,243.16s-26.81,10.06-29.44,13-12.62,59.19-12.88,65.63c-.23,5.76,20.65,18.69,31,24.14"/><rect class="cls-5" x="312.77" y="203.13" width="43.61" height="30.99" rx="6.53"/><polyline class="cls-14" points="326.84 212.45 318.45 217.72 326.23 224.62"/><polyline class="cls-14" points="342.12 225.12 349.66 218.7 340.96 213"/><line class="cls-14" x1="330.91" y1="229.08" x2="337.11" y2="209.66"/><path class="cls-6" d="M272.83,262.16a1.76,1.76,0,1,1-1.76-1.76A1.76,1.76,0,0,1,272.83,262.16Z"/><path class="cls-6" d="M303.86,356.38h-61a1.43,1.43,0,0,1-1.43-1.43h0a1.43,1.43,0,0,1,1.43-1.43h61a1.43,1.43,0,0,1,1.43,1.43h0A1.43,1.43,0,0,1,303.86,356.38Z"/><path class="cls-5" d="M306,351.64l8.18-38.4a4.08,4.08,0,0,0-4-4.93H238.88a4.08,4.08,0,0,0-4,4.87l7.33,37.13a4.1,4.1,0,0,0,3.92,3.29l55.78,1.28A4.09,4.09,0,0,0,306,351.64Z"/><line class="cls-14" x1="291.16" y1="311.95" x2="299.63" y2="311.95"/><line class="cls-14" x1="250.71" y1="311.95" x2="282.87" y2="311.95"/><path class="cls-6" d="M306.13,392.38l-6.5,17.06s-16.57-4.18-37.8-8.53c-22.21-4.55-45.4-10.44-57.43-31.55-1.47-2.57-2.44-5.61-1.75-8.49,1.73-7.29,11.22-9.27,17.47-10a113.92,113.92,0,0,1,11.83-.66c2,0,8.65-1.09,10.25.1a47.44,47.44,0,0,0,7.72,4.57c3.55,1.5,55.37-1.36,55.37-1.36a18.49,18.49,0,0,0,1.63-6.22c8.14-4.14,27-7.64,35-6.1,12.54,2.44,19.85,9.75,18.45,17.41S331.3,386.81,306.13,392.38Z"/><path class="cls-17" d="M306.13,392.38s-15.76-4.18-28.64-12.88-22.94-18.8-40.89-16.71"/><path class="cls-17" d="M274.53,377.45c8.13-2.35,14.11-7.61,20.63-12.66a139.47,139.47,0,0,1,22.1-14.52"/><line class="cls-14" x1="271.67" y1="209.66" x2="274.05" y2="209.66"/><path class="cls-18" d="M277.11,325h-7.89a1.53,1.53,0,0,0-1.46,1.66l.38,9.94a1.46,1.46,0,0,0,1.44,1.4h7.17a1.46,1.46,0,0,0,1.42-1.22c0-.06,0-.12,0-.18l.38-9.94A1.54,1.54,0,0,0,277.11,325Zm.14,11.62a.46.46,0,0,1-.41.45h-7.75l.41-.47-.44-.47h7.76a.43.43,0,0,1,.43.46Zm.06-1.93a.49.49,0,0,1-.48.48H269.5a1.5,1.5,0,0,0-.47.08l-.27-8.59a.51.51,0,0,1,.49-.55h7.83a.52.52,0,0,1,.49.55Z"/><path class="cls-19" d="M275.83,333.38a.48.48,0,0,1-.34-.14l-2.36-2.5,2.47-2.6a.48.48,0,0,1,.7,0,.56.56,0,0,1,0,.73l-1.77,1.85,1.67,1.79a.5.5,0,0,1-.35.85Z"/><path class="cls-20" d="M272.85,333.38h-2.51a.51.51,0,0,1-.49-.5.48.48,0,0,1,.47-.5h2.53a.49.49,0,0,1,.48.5A.48.48,0,0,1,272.85,333.38Z"/></g></svg>
