<svg class="community-svg" xmlns="http://www.w3.org/2000/svg" xmlns:xlink="http://www.w3.org/1999/xlink" viewBox="0 0 4453.58 3486.97"><defs><style>.community-svg .cls-1{mask:url(#mask);filter:url(#luminosity-noclip-6);}.community-svg .cls-10,.community-svg .cls-2,.community-svg .cls-4,.community-svg .cls-6,.community-svg .cls-8{mix-blend-mode:multiply;}.community-svg .cls-2{fill:url(#Áåçûìÿííûé_ãðàäèåíò_7);}.community-svg .cls-3{mask:url(#mask-2);filter:url(#luminosity-noclip-7);}.community-svg .cls-4{fill:url(#Áåçûìÿííûé_ãðàäèåíò_6);}.community-svg .cls-5{mask:url(#mask-3);filter:url(#luminosity-noclip-8);}.community-svg .cls-6{fill:url(#Áåçûìÿííûé_ãðàäèåíò_4);}.community-svg .cls-7{mask:url(#mask-4);filter:url(#luminosity-noclip-9);}.community-svg .cls-8{fill:url(#Áåçûìÿííûé_ãðàäèåíò_3);}.community-svg .cls-9{mask:url(#mask-5);filter:url(#luminosity-noclip-10);}.community-svg .cls-10{fill:url(#Áåçûìÿííûé_ãðàäèåíò_2);}.community-svg .cls-11{fill:#f3f3ff;}.community-svg .cls-12{fill:#b5b3f4;}.community-svg .cls-13{fill:#b2f7e9;}.community-svg .cls-14{fill:#fff;}.community-svg .cls-15{fill:#8080e8;}.community-svg .cls-16{fill:#3a34a3;}.community-svg .cls-17{fill:#d7fff7;}.community-svg .cls-18{fill:#5454b2;}.community-svg .cls-19{fill:#98d8c9;}.community-svg .cls-20{fill:#cbcbf4;}.community-svg .cls-21{fill:#d8d7ff;}.community-svg .cls-22{opacity:0.56;}.community-svg .cls-23{opacity:0.46;}.community-svg .cls-24{opacity:0.28;}.community-svg .cls-25{opacity:0.57;}.community-svg .cls-26{fill:#b6b3f4;}.community-svg .cls-27{fill:url(#Áåçûìÿííûé_ãðàäèåíò_567);}.community-svg .cls-28{fill:url(#Áåçûìÿííûé_ãðàäèåíò_567-2);}.community-svg .cls-29{fill:url(#Áåçûìÿííûé_ãðàäèåíò_567-3);}.community-svg .cls-30{fill:#3b3b93;}.community-svg .cls-31{fill:url(#Áåçûìÿííûé_ãðàäèåíò_567-4);}.community-svg .cls-32{fill:#25258c;}.community-svg .cls-33{fill:#3c3ca5;}.community-svg .cls-34{fill:#26267f;}.community-svg .cls-35{fill:url(#Áåçûìÿííûé_ãðàäèåíò_567-5);}.community-svg .cls-36{fill:url(#Áåçûìÿííûé_ãðàäèåíò_567-6);}.community-svg .cls-37{mask:url(#mask-6);}.community-svg .cls-38{fill:url(#linear-gradient);}.community-svg .cls-39{mask:url(#mask-7);}.community-svg .cls-40{fill:url(#linear-gradient-2);}.community-svg .cls-41{mask:url(#mask-8);}.community-svg .cls-42{fill:url(#linear-gradient-3);}.community-svg .cls-43{mask:url(#mask-9);}.community-svg .cls-44{fill:url(#linear-gradient-4);}.community-svg .cls-45{fill:#de5f12;}.community-svg .cls-46{fill:url(#Áåçûìÿííûé_ãðàäèåíò_567-7);}.community-svg .cls-47{fill:url(#Áåçûìÿííûé_ãðàäèåíò_567-8);}.community-svg .cls-48{fill:url(#Áåçûìÿííûé_ãðàäèåíò_609);}.community-svg .cls-49{mask:url(#mask-10);}.community-svg .cls-50{fill:url(#Áåçûìÿííûé_ãðàäèåíò_614);}.community-svg .cls-51{fill:url(#Áåçûìÿííûé_ãðàäèåíò_567-9);}.community-svg .cls-52{fill:url(#Áåçûìÿííûé_ãðàäèåíò_567-10);}.community-svg .cls-53{fill:url(#Áåçûìÿííûé_ãðàäèåíò_567-11);}.community-svg .cls-54{fill:url(#Áåçûìÿííûé_ãðàäèåíò_567-12);}.community-svg .cls-55{fill:url(#Áåçûìÿííûé_ãðàäèåíò_567-13);}.community-svg .cls-56{fill:#f0fffc;}.community-svg .cls-57{fill:#ffb68e;}.community-svg .cls-58{fill:#003251;}.community-svg .cls-59{fill:#000538;}.community-svg .cls-60{fill:#003d68;}.community-svg .cls-61{fill:#5c50d1;}.community-svg .cls-62{fill:#172755;}.community-svg .cls-63,.community-svg .cls-72,.community-svg .cls-78,.community-svg .cls-80{fill:#003b64;}.community-svg .cls-63{opacity:0.18;}.community-svg .cls-64{fill:#46469e;}.community-svg .cls-65{fill:#605ab7;}.community-svg .cls-66{fill:#1e1e60;}.community-svg .cls-67{fill:#6c62d3;}.community-svg .cls-68{fill:#63717d;}.community-svg .cls-69{fill:#2d2d2d;}.community-svg .cls-70{fill:#1e1e1e;}.community-svg .cls-71{fill:url(#Áåçûìÿííûé_ãðàäèåíò_567-14);}.community-svg .cls-73{fill:#ffa600;}.community-svg .cls-74{fill:#b7b7e5;}.community-svg .cls-75{fill:#8787c6;}.community-svg .cls-76{fill:#7171b5;}.community-svg .cls-77{fill:#11b7ae;}.community-svg .cls-78{opacity:0.43;}.community-svg .cls-79{fill:#e0deff;}.community-svg .cls-80{opacity:0.14;}.community-svg .cls-81{fill:#4d3c9e;}.community-svg .cls-82{fill:#ffb600;}.community-svg .cls-83{fill:url(#Áåçûìÿííûé_ãðàäèåíò_567-15);}.community-svg .cls-84{fill:url(#Áåçûìÿííûé_ãðàäèåíò_567-16);}.community-svg .cls-85{fill:url(#Áåçûìÿííûé_ãðàäèåíò_567-17);}.community-svg .cls-86{fill:url(#Áåçûìÿííûé_ãðàäèåíò_567-18);}.community-svg .cls-87{fill:url(#Áåçûìÿííûé_ãðàäèåíò_567-19);}.community-svg .cls-88{fill:url(#Áåçûìÿííûé_ãðàäèåíò_567-20);}.community-svg .cls-89{fill:#252563;}.community-svg .cls-90{fill:#3d3d7f;}.community-svg .cls-91{fill:#5c59c1;}.community-svg .cls-92{fill:#004e15;}.community-svg .cls-93{fill:#2f375f;}.community-svg .cls-94{fill:#2e2e6d;}.community-svg .cls-95{fill:url(#Áåçûìÿííûé_ãðàäèåíò_567-21);}.community-svg .cls-96{fill:#0a0635;}.community-svg .cls-97{fill:url(#Áåçûìÿííûé_ãðàäèåíò_567-22);}.community-svg .cls-98{fill:#00445b;}.community-svg .cls-99{fill:url(#Áåçûìÿííûé_ãðàäèåíò_567-23);}.community-svg .cls-100{fill:url(#Áåçûìÿííûé_ãðàäèåíò_567-24);}.community-svg .cls-101{fill:url(#Áåçûìÿííûé_ãðàäèåíò_567-25);}.community-svg .cls-102{fill:url(#Áåçûìÿííûé_ãðàäèåíò_567-26);}.community-svg .cls-103{fill:url(#Áåçûìÿííûé_ãðàäèåíò_567-27);}.community-svg .cls-104{fill:url(#Áåçûìÿííûé_ãðàäèåíò_567-28);}.community-svg .cls-105{fill:url(#Áåçûìÿííûé_ãðàäèåíò_567-29);}.community-svg .cls-106{fill:url(#Áåçûìÿííûé_ãðàäèåíò_567-30);}.community-svg .cls-107{filter:url(#luminosity-noclip-5);}.community-svg .cls-108{filter:url(#luminosity-noclip-4);}.community-svg .cls-109{filter:url(#luminosity-noclip-3);}.community-svg .cls-110{filter:url(#luminosity-noclip-2);}.community-svg .cls-111{filter:url(#luminosity-noclip);}</style><filter id="luminosity-noclip" x="2642.25" y="-9946.2" width="176.28" height="32766" filterUnits="userSpaceOnUse" color-interpolation-filters="sRGB"><feFlood flood-color="#fff" result="bg"/><feBlend in="SourceGraphic" in2="bg"/></filter><mask id="mask" x="2642.25" y="-9946.2" width="176.28" height="32766" maskUnits="userSpaceOnUse"><g class="cls-111"/></mask><linearGradient id="Áåçûìÿííûé_ãðàäèåíò_7" x1="3070.18" y1="2605.33" x2="2492.23" y2="3230.04" gradientUnits="userSpaceOnUse"><stop offset="0" stop-color="#fff"/><stop offset="0.33" stop-color="#ccc"/><stop offset="0.57" stop-color="#5e5e5e"/><stop offset="0.7"/></linearGradient><filter id="luminosity-noclip-2" x="2140.84" y="-9946.2" width="296.74" height="32766" filterUnits="userSpaceOnUse" color-interpolation-filters="sRGB"><feFlood flood-color="#fff" result="bg"/><feBlend in="SourceGraphic" in2="bg"/></filter><mask id="mask-2" x="2140.84" y="-9946.2" width="296.74" height="32766" maskUnits="userSpaceOnUse"><g class="cls-110"/></mask><linearGradient id="Áåçûìÿííûé_ãðàäèåíò_6" x1="2863.86" y1="2217.21" x2="1890.94" y2="3268.85" xlink:href="#Áåçûìÿííûé_ãðàäèåíò_7"/><filter id="luminosity-noclip-3" x="1670.88" y="-9946.2" width="386.03" height="32766" filterUnits="userSpaceOnUse" color-interpolation-filters="sRGB"><feFlood flood-color="#fff" result="bg"/><feBlend in="SourceGraphic" in2="bg"/></filter><mask id="mask-3" x="1670.88" y="-9946.2" width="386.03" height="32766" maskUnits="userSpaceOnUse"><g class="cls-109"/></mask><linearGradient id="Áåçûìÿííûé_ãðàäèåíò_4" x1="2625.43" y1="1433.38" x2="1359.79" y2="2801.43" xlink:href="#Áåçûìÿííûé_ãðàäèåíò_7"/><filter id="luminosity-noclip-4" x="1263.24" y="-9946.2" width="403.11" height="32766" filterUnits="userSpaceOnUse" color-interpolation-filters="sRGB"><feFlood flood-color="#fff" result="bg"/><feBlend in="SourceGraphic" in2="bg"/></filter><mask id="mask-4" x="1263.24" y="-9946.2" width="403.11" height="32766" maskUnits="userSpaceOnUse"><g class="cls-108"/></mask><linearGradient id="Áåçûìÿííûé_ãðàäèåíò_3" x1="2245.5" y1="951.29" x2="923.84" y2="2379.88" xlink:href="#Áåçûìÿííûé_ãðàäèåíò_7"/><filter id="luminosity-noclip-5" x="1386.05" y="-9946.2" width="135.62" height="32766" filterUnits="userSpaceOnUse" color-interpolation-filters="sRGB"><feFlood flood-color="#fff" result="bg"/><feBlend in="SourceGraphic" in2="bg"/></filter><mask id="mask-5" x="1386.05" y="-9946.2" width="135.62" height="32766" maskUnits="userSpaceOnUse"><g class="cls-107"/></mask><linearGradient id="Áåçûìÿííûé_ãðàäèåíò_2" x1="1407.55" y1="136.24" x2="1464.45" y2="245.23" gradientUnits="userSpaceOnUse"><stop offset="0.06" stop-color="#fff"/><stop offset="1"/></linearGradient><linearGradient id="Áåçûìÿííûé_ãðàäèåíò_567" x1="3690.8" y1="2506.44" x2="4330.51" y2="2506.44" gradientTransform="matrix(-0.97, 0.23, 0.23, 0.97, 3731.49, -455.87)" gradientUnits="userSpaceOnUse"><stop offset="0.19" stop-color="#ffd234"/><stop offset="0.99" stop-color="#ffb000"/></linearGradient><linearGradient id="Áåçûìÿííûé_ãðàäèåíò_567-2" x1="837.68" y1="3738.3" x2="1059.94" y2="3738.3" gradientTransform="matrix(0.79, 0.61, -0.61, 0.79, 1680.29, -770.31)" xlink:href="#Áåçûìÿííûé_ãðàäèåíò_567"/><linearGradient id="Áåçûìÿííûé_ãðàäèåíò_567-3" x1="2026.24" y1="3921.09" x2="2228.17" y2="3921.09" gradientTransform="matrix(0.34, 1.4, -0.97, 0.24, 3300.96, -1209.18)" xlink:href="#Áåçûìÿííûé_ãðàäèåíò_567"/><linearGradient id="Áåçûìÿííûé_ãðàäèåíò_567-4" x1="1263.24" y1="1813.24" x2="1842.15" y2="1813.24" gradientTransform="matrix(1, 0, 0, 1, 0, 0)" xlink:href="#Áåçûìÿííûé_ãðàäèåíò_567"/><linearGradient id="Áåçûìÿííûé_ãðàäèåíò_567-5" x1="1260.01" y1="657.87" x2="1683.84" y2="657.87" gradientTransform="matrix(1, 0, 0, 1, 0, 0)" xlink:href="#Áåçûìÿííûé_ãðàäèåíò_567"/><linearGradient id="Áåçûìÿííûé_ãðàäèåíò_567-6" x1="1352.14" y1="556.89" x2="1629.58" y2="556.89" gradientTransform="matrix(1, 0, 0, 1, 0, 0)" xlink:href="#Áåçûìÿííûé_ãðàäèåíò_567"/><filter id="luminosity-noclip-6" x="2642.25" y="2592.47" width="176.28" height="569.74" filterUnits="userSpaceOnUse" color-interpolation-filters="sRGB"><feFlood flood-color="#fff" result="bg"/><feBlend in="SourceGraphic" in2="bg"/></filter><mask id="mask-6" x="2642.25" y="2592.47" width="176.28" height="569.74" maskUnits="userSpaceOnUse"><g class="cls-1"><polygon class="cls-2" points="2818.53 2592.47 2642.25 3162.2 2818.53 3162.2 2818.53 2592.47"/></g></mask><linearGradient id="linear-gradient" x1="3070.18" y1="2605.33" x2="2492.23" y2="3230.04" gradientUnits="userSpaceOnUse"><stop offset="0" stop-color="#004e55"/><stop offset="0.33" stop-color="#1a1370"/><stop offset="0.57" stop-color="#241f69"/><stop offset="0.7" stop-color="#312b85"/></linearGradient><filter id="luminosity-noclip-7" x="2140.84" y="2193.11" width="296.74" height="969.72" filterUnits="userSpaceOnUse" color-interpolation-filters="sRGB"><feFlood flood-color="#fff" result="bg"/><feBlend in="SourceGraphic" in2="bg"/></filter><mask id="mask-7" x="2140.84" y="2193.11" width="296.74" height="969.72" maskUnits="userSpaceOnUse"><g class="cls-3"><polygon class="cls-4" points="2437.59 2193.11 2140.84 3152.2 2437.59 3162.84 2437.59 2193.11"/></g></mask><linearGradient id="linear-gradient-2" x1="2863.86" y1="2217.21" x2="1890.94" y2="3268.85" xlink:href="#linear-gradient"/><filter id="luminosity-noclip-8" x="1670.88" y="1389.08" width="386.03" height="1317.65" filterUnits="userSpaceOnUse" color-interpolation-filters="sRGB"><feFlood flood-color="#fff" result="bg"/><feBlend in="SourceGraphic" in2="bg"/></filter><mask id="mask-8" x="1670.88" y="1389.08" width="386.03" height="1317.65" maskUnits="userSpaceOnUse"><g class="cls-5"><polygon class="cls-6" points="2056.91 1389.08 1670.88 2636.74 2056.91 2706.73 2056.91 1389.08"/></g></mask><linearGradient id="linear-gradient-3" x1="2625.43" y1="1433.38" x2="1359.79" y2="2801.43" xlink:href="#linear-gradient"/><filter id="luminosity-noclip-9" x="1263.24" y="918.47" width="403.11" height="1317.65" filterUnits="userSpaceOnUse" color-interpolation-filters="sRGB"><feFlood flood-color="#fff" result="bg"/><feBlend in="SourceGraphic" in2="bg"/></filter><mask id="mask-9" x="1263.24" y="918.47" width="403.11" height="1317.65" maskUnits="userSpaceOnUse"><g class="cls-7"><polygon class="cls-8" points="1666.35 918.47 1263.24 2221.35 1666.35 2236.12 1666.35 918.47"/></g></mask><linearGradient id="linear-gradient-4" x1="2245.5" y1="951.29" x2="923.84" y2="2379.88" gradientUnits="userSpaceOnUse"><stop offset="0" stop-color="#004e55"/><stop offset="0.33" stop-color="#3232a6"/><stop offset="0.57" stop-color="#2f2f9c"/><stop offset="0.7" stop-color="#272782"/></linearGradient><linearGradient id="Áåçûìÿííûé_ãðàäèåíò_567-7" x1="1451.95" y1="435.27" x2="1573.67" y2="435.27" gradientTransform="matrix(1, 0, 0, 1, 0, 0)" xlink:href="#Áåçûìÿííûé_ãðàäèåíò_567"/><linearGradient id="Áåçûìÿííûé_ãðàäèåíò_567-8" x1="1374.88" y1="257.5" x2="1551.31" y2="257.5" gradientTransform="matrix(1, 0, 0, 1, 0, 0)" xlink:href="#Áåçûìÿííûé_ãðàäèåíò_567"/><linearGradient id="Áåçûìÿííûé_ãðàäèåíò_609" x1="1365.62" y1="297.89" x2="1509.67" y2="398.88" gradientUnits="userSpaceOnUse"><stop offset="0.17" stop-color="#e0f3f4"/><stop offset="0.79" stop-color="#4d98a0"/></linearGradient><filter id="luminosity-noclip-10" x="1386.05" y="175.26" width="135.62" height="119.37" filterUnits="userSpaceOnUse" color-interpolation-filters="sRGB"><feFlood flood-color="#fff" result="bg"/><feBlend in="SourceGraphic" in2="bg"/></filter><mask id="mask-10" x="1386.05" y="175.26" width="135.62" height="119.37" maskUnits="userSpaceOnUse"><g class="cls-9"><path class="cls-10" d="M1407.45,294.63s-48.16-67.18,0-103.92,114.22,3.57,114.22,3.57-61.59-2-90.71,22.45S1405.05,279.75,1407.45,294.63Z"/></g></mask><linearGradient id="Áåçûìÿííûé_ãðàäèåíò_614" x1="1407.55" y1="136.24" x2="1464.45" y2="245.23" gradientUnits="userSpaceOnUse"><stop offset="0.06" stop-color="#fff"/><stop offset="1" stop-color="#fff"/></linearGradient><linearGradient id="Áåçûìÿííûé_ãðàäèåíò_567-9" x1="1923.92" y1="121.08" x2="2067.17" y2="121.08" gradientTransform="translate(-297.78 738.12) rotate(-18.66)" xlink:href="#Áåçûìÿííûé_ãðàäèåíò_567"/><linearGradient id="Áåçûìÿííûé_ãðàäèåíò_567-10" x1="2834.64" y1="428.69" x2="2977.88" y2="428.69" gradientTransform="matrix(-0.95, -0.32, -0.32, 0.95, 4156.43, 738.12)" xlink:href="#Áåçûìÿííûé_ãðàäèåíò_567"/><linearGradient id="Áåçûìÿííûé_ãðàäèåíò_567-11" x1="3021.16" y1="1445.25" x2="3153.4" y2="1445.25" gradientTransform="matrix(-0.2, -0.98, -0.98, 0.2, 3519.29, 2829.33)" xlink:href="#Áåçûìÿííûé_ãðàäèåíò_567"/><linearGradient id="Áåçûìÿííûé_ãðàäèåíò_567-12" x1="1547.59" y1="132.53" x2="1638.29" y2="132.53" gradientTransform="matrix(1, 0, 0, 1, 0, 0)" xlink:href="#Áåçûìÿííûé_ãðàäèåíò_567"/><linearGradient id="Áåçûìÿííûé_ãðàäèåíò_567-13" x1="1315.14" y1="133.93" x2="1394.85" y2="133.93" gradientTransform="matrix(1, 0, 0, 1, 0, 0)" xlink:href="#Áåçûìÿííûé_ãðàäèåíò_567"/><linearGradient id="Áåçûìÿííûé_ãðàäèåíò_567-14" x1="2438.93" y1="2635.97" x2="2548.96" y2="2635.97" gradientTransform="matrix(-0.88, 0.48, 0.48, 0.88, 3613.16, -753.02)" xlink:href="#Áåçûìÿííûé_ãðàäèåíò_567"/><linearGradient id="Áåçûìÿííûé_ãðàäèåíò_567-15" x1="928.17" y1="3260.12" x2="1082.62" y2="3260.12" gradientTransform="matrix(1, 0, 0, 1, 0, 0)" xlink:href="#Áåçûìÿííûé_ãðàäèåíò_567"/><linearGradient id="Áåçûìÿííûé_ãðàäèåíò_567-16" x1="623.24" y1="3159.62" x2="952.33" y2="3159.62" gradientTransform="matrix(1, 0, 0, 1, 0, 0)" xlink:href="#Áåçûìÿííûé_ãðàäèåíò_567"/><linearGradient id="Áåçûìÿííûé_ãðàäèåíò_567-17" x1="746.41" y1="3260.12" x2="928.17" y2="3260.12" gradientTransform="matrix(1, 0, 0, 1, 0, 0)" xlink:href="#Áåçûìÿííûé_ãðàäèåíò_567"/><linearGradient id="Áåçûìÿííûé_ãðàäèåíò_567-18" x1="2203.7" y1="1683.39" x2="2271.88" y2="1683.39" gradientTransform="matrix(1, 0, 0, 1, 0, 0)" xlink:href="#Áåçûìÿííûé_ãðàäèåíò_567"/><linearGradient id="Áåçûìÿííûé_ãðàäèåíò_567-19" x1="2255.71" y1="1627.55" x2="2333.08" y2="1627.55" gradientTransform="matrix(1, 0, 0, 1, 0, 0)" xlink:href="#Áåçûìÿííûé_ãðàäèåíò_567"/><linearGradient id="Áåçûìÿííûé_ãðàäèåíò_567-20" x1="2287.52" y1="1678.15" x2="2386.32" y2="1678.15" gradientTransform="matrix(1, 0, 0, 1, 0, 0)" xlink:href="#Áåçûìÿííûé_ãðàäèåíò_567"/><linearGradient id="Áåçûìÿííûé_ãðàäèåíò_567-21" x1="3470.9" y1="1425.83" x2="3580.93" y2="1425.83" gradientTransform="matrix(-0.88, 0.48, 0.48, 0.88, 3613.16, -753.02)" xlink:href="#Áåçûìÿííûé_ãðàäèåíò_567"/><linearGradient id="Áåçûìÿííûé_ãðàäèåíò_567-22" x1="731.48" y1="1766.5" x2="803.13" y2="1766.5" gradientTransform="matrix(0.98, 0.2, -0.2, 0.98, 657.19, -344.39)" xlink:href="#Áåçûìÿííûé_ãðàäèåíò_567"/><linearGradient id="Áåçûìÿííûé_ãðàäèåíò_567-23" x1="1189.06" y1="1476.47" x2="1534.27" y2="1476.47" gradientTransform="matrix(1, 0, 0, 1, 0, 0)" xlink:href="#Áåçûìÿííûé_ãðàäèåíò_567"/><linearGradient id="Áåçûìÿííûé_ãðàäèåíò_567-24" x1="1176.13" y1="1409.52" x2="1232.93" y2="1409.52" gradientTransform="matrix(1, 0, 0, 1, 0, 0)" xlink:href="#Áåçûìÿííûé_ãðàäèåíò_567"/><linearGradient id="Áåçûìÿííûé_ãðàäèåíò_567-25" x1="1244.37" y1="1072.08" x2="1315.07" y2="1072.08" gradientTransform="translate(-297.78 738.12) rotate(-18.66)" xlink:href="#Áåçûìÿííûé_ãðàäèåíò_567"/><linearGradient id="Áåçûìÿííûé_ãðàäèåíò_567-26" x1="2686.07" y1="1559.04" x2="2756.77" y2="1559.04" gradientTransform="matrix(-0.95, -0.32, -0.32, 0.95, 4156.43, 738.12)" xlink:href="#Áåçûìÿííûé_ãðàäèåíò_567"/><linearGradient id="Áåçûìÿííûé_ãðàäèåíò_567-27" x1="1953.86" y1="1973.61" x2="2024.56" y2="1973.61" gradientTransform="matrix(-0.2, -0.98, -0.98, 0.2, 3519.29, 2829.33)" xlink:href="#Áåçûìÿííûé_ãðàäèåíò_567"/><linearGradient id="Áåçûìÿííûé_ãðàäèåíò_567-28" x1="1216.87" y1="1300.78" x2="1261.25" y2="1300.78" gradientTransform="matrix(1, 0, 0, 1, 0, 0)" xlink:href="#Áåçûìÿííûé_ãðàäèåíò_567"/><linearGradient id="Áåçûìÿííûé_ãðàäèåíò_567-29" x1="1103.13" y1="1301.53" x2="1142.13" y2="1301.53" gradientTransform="matrix(1, 0, 0, 1, 0, 0)" xlink:href="#Áåçûìÿííûé_ãðàäèåíò_567"/><linearGradient id="Áåçûìÿííûé_ãðàäèåíò_567-30" x1="1717.29" y1="1301.83" x2="1788.94" y2="1301.83" gradientTransform="translate(2403.68 -982.86) rotate(51.75)" xlink:href="#Áåçûìÿííûé_ãðàäèåíò_567"/></defs><g id="Ñëîé_1" data-name="Ñëîé 1"><path class="cls-11" d="M843.06,2567.27S360.37,2162,396.79,2057s191,30.14,208.42,15.37S367.53,1943.37,404,1773s304.5,67.32,304.5,67.32Z"/><path class="cls-11" d="M1015.39,2984.61S697.69,2319.22,568.71,1921c-123-379.72-360.51-1394.68,660.78-1548.87,618.16-93.33,854.1,337.63,952.61,716.29,44.69,171.79,308.17-170.32,553.41,31.17s314.26,944.76,679.89,978.79c215.07,20,715.28-83.88,874.15,415.77,85.13,267.73-13.36,505.64-13.36,505.64Z"/><path class="cls-12" d="M3084.31,3033.72c-162.86-677.85,194.45-722.22,277.75-578.18,72.05,124.6,183.87,73.76,226.15,51.35,244.65-129.66,396.56-253.63,558.63-134.33,128.44,94.55,17.41,360.54,39.1,504.46,9.33,61.88,55.64,111.82,55.64,111.82s-37.16-128.54-17.52-154.81,29.41,29.59,50,26.93-2.57-80.22,41.27-70.3c69.6,15.74,17.75,148.28,32.19,145.91s78.56-84.09,102-66.63c84.9,63.36-127.56,166.3-127.56,166.3Z"/><path class="cls-13" d="M4229.27,2791.67s-5.12-39.62,28.94-64,72.89-3,61.25,7.06-43.29,2.82-54.58,26.49S4243.54,2819.68,4229.27,2791.67Z"/><path class="cls-13" d="M4364.27,2867.07s-.72-39.94,35.81-60.44,72.79,5,60.11,13.76-43.34-2-57.17,20.32S4375.37,2896.48,4364.27,2867.07Z"/><path class="cls-14" d="M3296.38,2554h780.24a4.33,4.33,0,0,1,4.33,4.33V3051.7a0,0,0,0,1,0,0h-788.9a0,0,0,0,1,0,0V2558.34A4.33,4.33,0,0,1,3296.38,2554Z"/><rect class="cls-15" x="3314.91" y="2604.58" width="744.88" height="425.75"/><path class="cls-16" d="M3908.52,2689.21H3444.19a5.85,5.85,0,0,1,0-11.7h464.33a5.85,5.85,0,0,1,0,11.7Z"/><path class="cls-16" d="M3908.52,2741.7H3444.19a5.85,5.85,0,0,1,0-11.7h464.33a5.85,5.85,0,0,1,0,11.7Z"/><path class="cls-16" d="M3908.52,2794.18H3444.19a5.85,5.85,0,0,1,0-11.7h464.33a5.85,5.85,0,0,1,0,11.7Z"/><path class="cls-16" d="M3908.52,2846.68H3444.19a5.86,5.86,0,0,1,0-11.71h464.33a5.86,5.86,0,0,1,0,11.71Z"/><path class="cls-16" d="M3908.52,2899.17H3444.19a5.85,5.85,0,0,1,0-11.7h464.33a5.85,5.85,0,0,1,0,11.7Z"/><path class="cls-16" d="M3908.52,2951.65H3444.19a5.85,5.85,0,1,1,0-11.7h464.33a5.85,5.85,0,0,1,0,11.7Z"/><rect class="cls-17" x="3292.05" y="3028.22" width="927.09" height="23.48"/><rect class="cls-18" x="3554.3" y="3051.7" width="664.85" height="37.41"/><rect class="cls-18" x="3292.05" y="3051.7" width="262.24" height="37.41"/><path class="cls-19" d="M4300.37,3038.87a2.62,2.62,0,0,1-2-1c-.65-.78-15.91-20-11.29-87,5.2-75.36,31.84-136.23,32.1-136.83a2.64,2.64,0,0,1,4.82,2.14c-.26.59-26.54,60.66-31.67,135.07-4.44,64.34,10,83.13,10.11,83.31a2.65,2.65,0,0,1-.38,3.7A2.74,2.74,0,0,1,4300.37,3038.87Z"/><path class="cls-19" d="M4293.65,3021.77a2.48,2.48,0,0,1-1-.22,2.58,2.58,0,0,1-1.5-1.66l-49.11-165a2.63,2.63,0,0,1,5-1.5l48.2,161.95a761.5,761.5,0,0,0,76-47c40.72-28.76,78.51-80,78.89-80.52a2.63,2.63,0,1,1,4.24,3.11c-.38.52-38.67,52.45-80.08,81.71a751.5,751.5,0,0,1-79.45,48.92A2.65,2.65,0,0,1,4293.65,3021.77Z"/><path class="cls-19" d="M4108.14,2958.54a3.16,3.16,0,0,1-2.61-1.41,2.62,2.62,0,0,1,.51-3.33c3.12-17,2.47-219.45-28.32-361.53-31.87-147-119.69-202.37-120.58-202.92a2.64,2.64,0,0,1-.86-3.62,2.59,2.59,0,0,1,3.62-.87c.9.55,90.59,56.95,123,206.3,28.9,133.28,34.93,363.72,26.16,367.22A2.44,2.44,0,0,1,4108.14,2958.54Zm-.14-2.6h0Z"/><path class="cls-19" d="M4063.65,2538c-4,0-22.86-2.2-98.67-31.65-85.13-33.06-138-72.37-138.49-72.77a2.64,2.64,0,0,1-.53-3.69,2.68,2.68,0,0,1,3.7-.53c.51.4,52.83,39.3,137.23,72.07,82.2,31.94,96.38,31.5,96.9,31.29a2.88,2.88,0,0,1,2.85,2.33,2.61,2.61,0,0,1-2.18,2.9A5.4,5.4,0,0,1,4063.65,2538Z"/><path class="cls-19" d="M4090.05,2647.45a2.61,2.61,0,0,1-2-.9,2.64,2.64,0,0,1,.24-3.72c.51-.45,51.5-45.64,82.48-104.34,25.07-47.51,8.65-109.6,8.49-110.23a2.63,2.63,0,1,1,5.08-1.38c.71,2.62,17.14,64.69-8.92,114.07-31.43,59.57-83.14,105.38-83.65,105.84A2.65,2.65,0,0,1,4090.05,2647.45Z"/><path class="cls-19" d="M4076.93,2580a2.63,2.63,0,0,1-2.35-3.82c.22-.45,22.84-46,30.59-113,6.26-54.1-17.06-88.82-17.29-89.16a2.62,2.62,0,0,1,.68-3.66,2.66,2.66,0,0,1,3.66.68c1,1.47,24.67,36.7,18.18,92.74-7.85,67.94-30.88,114.27-31.11,114.74A2.66,2.66,0,0,1,4076.93,2580Z"/><path class="cls-20" d="M1772.65,1389.24s-46.7-449.33,15.6-463.73S1854.63,1157,1930,1161.44s197.56-80.11,290.79-1.36c72.17,61,48.68,139.41,97.83,169.21s115-192.13,173.8-160.71c40.77,21.8-32,71.6-2.37,119.79,18.76,30.54,44.56-38.3,120.93-38.3,112.71,0,109.37,128.1,39.14,152.57s-135.5,14.49-157.7,65.68c-36.92,85.15,116.67,52.35,187,74.44,339.53,106.64,172.63,552.3,320,544,157.86-8.92-928.35,54-928.35,54Z"/><path class="cls-19" d="M2418.55,1386.57a3,3,0,0,1-3-2.52c-.21-1.33-5.06-33,12.36-89.36,17.34-56.07,42.22-93.29,42.47-93.66a3,3,0,0,1,5,3.35c-.25.37-24.64,36.91-41.7,92.08-17,54.82-12.23,86.32-12.17,86.63a3,3,0,0,1-2.49,3.44A2.67,2.67,0,0,1,2418.55,1386.57Z"/><path class="cls-19" d="M2810.58,1746.94l-.45,0-81.71-12.24a2.94,2.94,0,0,1-2.19-1.54,3,3,0,0,1-.09-2.69l44-94.82a3,3,0,0,1,5.44,2.53l-42.32,91.19L2811,1741a3,3,0,0,1-.44,6Z"/><path class="cls-19" d="M2794.19,1816.24h-.11l-127.57-5a3,3,0,0,1-2.88-3.08l2.76-102.25a3,3,0,1,1,6,.16l-2.68,99.29,124.6,4.93a3,3,0,0,1-.12,6Z"/><rect class="cls-21" x="526.33" y="682.34" width="952.38" height="588.17" rx="2.48"/><rect class="cls-14" x="629.02" y="1012.6" width="73.9" height="258.26"/><rect class="cls-14" x="743.97" y="913.72" width="73.9" height="357.14"/><rect class="cls-14" x="1199.47" y="914.69" width="73.9" height="357.14"/><rect class="cls-14" x="858.93" y="1054.88" width="73.9" height="215.97"/><rect class="cls-14" x="1315.06" y="1055.85" width="73.9" height="215.97"/><rect class="cls-14" x="973.89" y="908.56" width="73.9" height="362.3"/><rect class="cls-14" x="1083.11" y="770.48" width="85.37" height="505.17"/><g class="cls-22"><rect class="cls-19" x="621.33" y="961.76" width="73.9" height="6"/><rect class="cls-19" x="621.33" y="942.13" width="73.9" height="6"/><rect class="cls-19" x="621.33" y="922.51" width="73.9" height="6"/></g><g class="cls-22"><rect class="cls-19" x="737.61" y="879.65" width="73.9" height="6"/><rect class="cls-19" x="737.61" y="860.02" width="73.9" height="6"/><rect class="cls-19" x="737.61" y="840.39" width="73.9" height="6"/></g><g class="cls-22"><rect class="cls-19" x="852.93" y="1012.4" width="73.9" height="6"/><rect class="cls-19" x="852.93" y="992.77" width="73.9" height="6"/><rect class="cls-19" x="852.93" y="973.15" width="73.9" height="6"/></g><g class="cls-22"><rect class="cls-19" x="969.21" y="858.66" width="73.9" height="6"/><rect class="cls-19" x="969.21" y="839.04" width="73.9" height="6"/><rect class="cls-19" x="969.21" y="819.41" width="73.9" height="6"/></g><g class="cls-22"><rect class="cls-19" x="1088.85" y="746.61" width="73.9" height="6"/><rect class="cls-19" x="1088.85" y="726.99" width="73.9" height="6"/><rect class="cls-19" x="1088.85" y="707.37" width="73.9" height="6"/></g><g class="cls-22"><rect class="cls-19" x="1199.47" y="872.71" width="73.9" height="6"/><rect class="cls-19" x="1199.47" y="853.09" width="73.9" height="6"/><rect class="cls-19" x="1199.47" y="833.47" width="73.9" height="6"/></g><g class="cls-22"><rect class="cls-19" x="1315.06" y="995.87" width="73.9" height="6"/><rect class="cls-19" x="1315.06" y="976.24" width="73.9" height="6"/><rect class="cls-19" x="1315.06" y="956.61" width="73.9" height="6"/></g><g class="cls-23"><path class="cls-19" d="M951.17,1155.28c-44.55,0-75.93-17.28-108.84-35.41-26.5-14.59-53.89-29.68-91-37.12-85.86-17.14-154.56,53.08-155.25,53.79a12,12,0,1,1-17.3-16.63c3.16-3.29,78.58-80.49,177.27-60.69,40.77,8.16,71.12,24.88,97.89,39.63,36.64,20.18,68.31,37.6,118.73,31,38.86-5.1,61.61-28.44,85.69-53.16,29.38-30.15,62.68-64.32,128-64.32,122.62,0,184.3,105.44,186.86,109.93a12,12,0,0,1-20.82,11.92c-.57-1-57.59-97.85-166-97.85-55.15,0-82.16,27.72-110.76,57.07-25.88,26.56-52.64,54-99.75,60.21A187.84,187.84,0,0,1,951.17,1155.28Z"/></g><rect class="cls-21" x="3197.36" y="1649.24" width="943.62" height="554.25" rx="2.39"/><polygon class="cls-14" points="3224.66 2203.04 3380.6 2027.11 3421.54 2075.7 3524.65 1906.85 3591.57 2064.41 3746.9 1808.38 3849.32 2050.22 4001.94 1715.74 4001.94 2203.18 3224.66 2203.04"/><polygon class="cls-14" points="4024.85 1745.19 3994.97 1692.3 3959.39 1742.55 4024.85 1745.19"/><g class="cls-24"><path class="cls-19" d="M3240.12,2151.28a12,12,0,0,1-10.47-17.84l83-148.83a12,12,0,0,1,22,2.58l9.22,32.55,82.11-114.4a11.84,11.84,0,0,1,10.11-5,12,12,0,0,1,9.78,5.6l88.41,140.23,119.27-225.93a12,12,0,0,1,21.65.86l84,195.63,173.58-315.36a12,12,0,1,1,21,11.57l-185.42,336.88a11.46,11.46,0,0,1-11.1,6.2,12,12,0,0,1-10.44-7.25L3663,1853.65l-117.25,222.08a12,12,0,0,1-10.16,6.39,11.78,11.78,0,0,1-10.6-5.59l-90-142.71L3348.83,2054a12,12,0,0,1-21.29-3.73l-8.1-28.59-68.83,123.49A12,12,0,0,1,3240.12,2151.28Z"/></g><g class="cls-25"><rect class="cls-19" x="3618.6" y="1775.1" width="62.6" height="6"/></g><g class="cls-25"><rect class="cls-19" x="3492.54" y="1875.61" width="62.6" height="6"/></g><g class="cls-25"><rect class="cls-19" x="3400.2" y="1884.2" width="62.6" height="6"/></g><g class="cls-25"><rect class="cls-19" x="3721.67" y="1764.56" width="62.59" height="6"/></g><g class="cls-25"><rect class="cls-19" x="3919.67" y="1693.98" width="62.6" height="6"/></g><g class="cls-25"><rect class="cls-19" x="4030.37" y="1776.31" width="62.59" height="6"/></g><g class="cls-25"><rect class="cls-19" x="4030.37" y="1812.04" width="62.59" height="6"/></g><g class="cls-25"><rect class="cls-19" x="4030.37" y="1847.77" width="62.59" height="6"/></g><g class="cls-25"><rect class="cls-19" x="4030.37" y="1883.5" width="62.59" height="6"/></g><g class="cls-25"><rect class="cls-19" x="4030.37" y="1919.23" width="62.59" height="6"/></g><g class="cls-25"><rect class="cls-19" x="4030.37" y="1954.95" width="62.59" height="6"/></g><g class="cls-25"><rect class="cls-19" x="4030.37" y="1990.68" width="62.59" height="6"/></g><g class="cls-25"><rect class="cls-19" x="4030.37" y="2026.41" width="62.59" height="6"/></g><g class="cls-25"><rect class="cls-19" x="4030.37" y="2062.14" width="62.59" height="6"/></g><g class="cls-25"><rect class="cls-19" x="4030.37" y="2097.87" width="62.59" height="6"/></g><path class="cls-20" d="M1163.58,3118.34H893s-411.63-448.26-306.46-597.58,223.4,24.26,272,5.08S575.88,2160.53,801,1946.12c184.62-175.83,658.11,45.33,658.11,45.33L1563.2,3115.7Z"/><path class="cls-26" d="M711.87,2306.49s49.29,81.23,25.72,91.05-100.72-77-79.29-107.53S711.87,2306.49,711.87,2306.49Z"/><path class="cls-27" d="M684.2,2706.73s-185.1-259.46-317.5-148.42c-90.26,75.7,18.65,270-6.36,296.46s-145.72-90.1-252.1.09S245.62,3231.6,245.62,3231.6l311.23.74Z"/><path class="cls-28" d="M226.73,2834.48s-72.61-156-134.77-154.26c-61.93,1.74-57.62,62.66-16.38,97.6C115.92,2812,226.73,2834.48,226.73,2834.48Z"/><path class="cls-29" d="M237.17,2843.58s46.54-208.12-8.22-266c-54.56-57.7-84.85,10.11-68.68,86.27C176.09,2738.3,237.17,2843.58,237.17,2843.58Z"/><path class="cls-14" d="M373.2,3234.8a3.21,3.21,0,0,1-.46-6.38c11.7-1.72,43.23-9.15,48.6-22.69,1.81-4.57.47-9.6-4.11-15.38-13.92-17.56-68.72,6.27-88.66,16.94a3.21,3.21,0,0,1-3.82-5.06c1.06-1.09,106.19-109.6,140.61-161.54,42-63.43,39.46-109.09,23-130.67-11.14-14.65-29-19.34-48.91-12.84-53.17,17.31-116.64,259.56-117.28,262a3.21,3.21,0,0,1-6.28-1.23c.25-1.93,25.15-192.92-31.11-259.27-29.8-35.14-72.93-50.81-102.56-37.29-25.38,11.6-36.2,42.41-29.67,84.52,16.5,106.51,155.48,276.56,156.88,278.27a3.21,3.21,0,0,1-5,4.07c-5.77-7-141.49-173.11-158.26-281.36-7-45.16,5.16-78.45,33.35-91.33,32.7-15,78,1.08,110.11,39,43.07,50.79,40.78,167.08,36.27,227.12,20.24-69.58,67.67-216.3,111.53-230.58,22.35-7.28,43.29-1.66,56,15.06,17.75,23.33,21.08,71.86-22.81,138.1-27.57,41.61-99.75,118.82-128.88,149.45,23.79-10.7,65.77-25.84,80.44-7.32,6,7.62,7.73,14.93,5,21.73-7.83,19.74-51.76,26.4-53.63,26.67A3.71,3.71,0,0,1,373.2,3234.8Z"/><path class="cls-14" d="M319.06,3242.82a3.12,3.12,0,0,1-2.88-1.86c-.48-1.08-11.13-27.79,47.5-149.79,58.29-121.31,105.09-160.86,107.06-162.48a3.21,3.21,0,0,1,4.09,4.94c-.47.39-47.8,40.51-105.37,160.32-56.37,117.3-47.48,144.23-47.38,144.49a3.25,3.25,0,0,1-1.78,4.13A3.19,3.19,0,0,1,319.06,3242.82Z"/><path class="cls-14" d="M319.11,3200.25a3.16,3.16,0,0,1-2.37-1.05c-1.25-1.37-31-34.45-64.08-112.54-33-77.84-61.72-198.24-62-199.45a3.21,3.21,0,1,1,6.24-1.48c.29,1.2,28.9,121.09,61.68,198.42,32.62,76.95,62.61,110.4,62.91,110.73a3.21,3.21,0,0,1-.22,4.53A3.17,3.17,0,0,1,319.11,3200.25Z"/><path class="cls-14" d="M219.18,2983.68a3.2,3.2,0,0,1-2.32-1l-56.47-59.14a3.2,3.2,0,1,1,4.63-4.43l56.48,59.14a3.22,3.22,0,0,1-2.32,5.43Z"/><path class="cls-14" d="M245.36,3062.78a3.22,3.22,0,0,1-1.75-.52l-58.49-38.36a3.21,3.21,0,1,1,3.52-5.36l58.49,38.35a3.21,3.21,0,0,1-1.77,5.89Z"/><path class="cls-14" d="M278.94,3138a3.16,3.16,0,0,1-1.45-.35L232,3114.55a3.21,3.21,0,0,1,2.9-5.72l45.54,23.07a3.21,3.21,0,0,1-1.45,6.07Z"/><path class="cls-14" d="M305.32,3182.07a3,3,0,0,1-.66-.07l-26.37-5.45a3.21,3.21,0,0,1,1.3-6.28l26.37,5.45a3.21,3.21,0,0,1-.64,6.35Z"/><path class="cls-18" d="M2445.22,2239.88s25.51-247.62,340.23-205c60.8,8.23,64.18,17.74,114-18.15,128.33-92.42,251.2,70.91,179.67,261.8-74.47,198.73-39.39,139.41,28.2,164.82s-73.57,315.09-73.57,315.09Z"/><path class="cls-14" d="M2904.06,2451.32a110,110,0,1,1,48.23-208.81,2.79,2.79,0,0,1,1.29,3.73l-45.06,92.31h102.72a2.79,2.79,0,0,1,2.79,2.79A110.1,110.1,0,0,1,2904.06,2451.32Zm0-214.38a104.4,104.4,0,1,0,104.35,107.19H2904.06a2.79,2.79,0,0,1-2.51-4l45.77-93.78A104.88,104.88,0,0,0,2904.06,2236.94Z"/><path class="cls-14" d="M2927.05,2325.76l41.92-74.93s25.06,6.65,39.52,37.46a67.94,67.94,0,0,1,5.67,37.47Z"/><path class="cls-14" d="M2922.49,2253.62a2.8,2.8,0,0,1-2-4.77l60.77-60.76a2.75,2.75,0,0,1,2-.82h54.89a2.79,2.79,0,0,1,0,5.58h-53.73l-60,60A2.82,2.82,0,0,1,2922.49,2253.62Z"/><path class="cls-14" d="M3072.9,2176h-86.39a2.8,2.8,0,0,1,0-5.59h86.39a2.8,2.8,0,0,1,0,5.59Z"/><path class="cls-14" d="M3072.9,2159h-86.39a2.79,2.79,0,0,1,0-5.58h86.39a2.79,2.79,0,0,1,0,5.58Z"/><path class="cls-14" d="M3072.9,2142.14h-86.39a2.79,2.79,0,0,1,0-5.58h86.39a2.79,2.79,0,0,1,0,5.58Z"/><path class="cls-14" d="M3072.9,2125.23h-86.39a2.79,2.79,0,0,1,0-5.58h86.39a2.79,2.79,0,0,1,0,5.58Z"/><path class="cls-14" d="M2875,2171.07a2.79,2.79,0,0,1-2.2-4.5l24.52-31.74a2.77,2.77,0,0,1,2-1.08,2.84,2.84,0,0,1,2.16.81l26.92,27,21.1-26.72a2.75,2.75,0,0,1,2.26-1.07,2.81,2.81,0,0,1,2.21,1.19l18.24,25.92a2.79,2.79,0,1,1-4.56,3.21l-16.09-22.86-20.72,26.26a2.79,2.79,0,0,1-2,1.05,2.86,2.86,0,0,1-2.14-.81l-26.9-26.95L2877.23,2170A2.78,2.78,0,0,1,2875,2171.07Z"/><path class="cls-14" d="M2953.41,2170.33a2.78,2.78,0,0,1-2.09-.95l-23.94-27-22.9,24a2.79,2.79,0,0,1-3.8.23L2873.24,2144a2.79,2.79,0,0,1,3.55-4.31l25.44,21,23.2-24.37a2.66,2.66,0,0,1,2.07-.87,2.8,2.8,0,0,1,2,.94l26,29.32a2.8,2.8,0,0,1-2.09,4.65Z"/><path class="cls-14" d="M3013.17,2254.45a14.58,14.58,0,1,1,14.57-14.57A14.59,14.59,0,0,1,3013.17,2254.45Zm0-23.56a9,9,0,1,0,9,9A9,9,0,0,0,3013.17,2230.89Z"/><path class="cls-14" d="M3025.33,2219.66h-25.48a2.8,2.8,0,0,1,0-5.59h25.48a2.8,2.8,0,1,1,0,5.59Z"/><path class="cls-14" d="M2961.07,2362.1h-60.85a2.8,2.8,0,0,1,0-5.59h60.85a2.8,2.8,0,0,1,0,5.59Z"/><rect class="cls-14" x="2986.51" y="2015.02" width="14.88" height="86.78"/><rect class="cls-14" x="2956.03" y="2058.41" width="13.95" height="43.39"/><rect class="cls-14" x="3018.35" y="2058.41" width="13.95" height="43.39"/><rect class="cls-14" x="2925.55" y="2034.84" width="14.88" height="66.96"/><rect class="cls-14" x="2895.07" y="2058.41" width="14.88" height="43.39"/><path class="cls-30" d="M2947.42,2025.63s30.2-135.05-5.33-172.62-55.05,6.56-44.56,56C2907.79,1957.31,2947.42,2025.63,2947.42,2025.63Z"/><path class="cls-30" d="M2961.79,2008.36s57.38-40.08,51.21-65.87-29.77-15.91-39.92,5.93C2963.16,1969.79,2961.79,2008.36,2961.79,2008.36Z"/><polygon class="cls-31" points="1842.15 960.82 1534.1 463.65 1459.09 463.65 1263.24 1018.87 1324.78 1018.5 1616.37 1477.83 1741.87 3162.84 1741.87 961.18 1842.15 960.82"/><polygon class="cls-32" points="2131.92 1334.76 1741.87 1334.76 1616.34 1384.77 1616.34 3162.84 2131.92 3162.84 2131.92 1334.76"/><polygon class="cls-32" points="2891.12 2155.61 2510.18 2155.61 2512.6 3162.84 2893.54 3162.84 2891.12 2155.61"/><rect class="cls-32" x="2885.32" y="2533.97" width="380.68" height="628.86"/><rect class="cls-32" x="2131.92" y="1731.71" width="380.68" height="1431.12"/><rect class="cls-33" x="1666.89" y="1389.08" width="390.02" height="1773.76"/><polygon class="cls-34" points="1765.92 920.73 1459.09 463.65 1131.48 923.91 1249.76 923.55 1249.76 3162.84 1666.86 3162.84 1666.86 921.09 1765.92 920.73"/><path class="cls-35" d="M1460.45,705c-90.79,0-193.09-7.66-199.65-36.6-2.08-9.21,0-17.37,6.07-24.26,19.28-21.71,73.88-22.3,76.19-22.32l.08,9.63c-.52,0-51.93.56-68.06,18.75-4.08,4.6-5.37,9.92-3.93,16.26,1.21,5.37,14.77,23.27,138.15,28,71.45,2.73,150.54-.45,182.84-5,41-5.74,69.62-17.11,78.41-31.2,3.28-5.25,3.63-10.63,1-16.44-9.42-21.27-48.91-21.41-49.48-21.42l0-9.62c1.82,0,47.22.16,59.31,27.44a25.48,25.48,0,0,1-1.67,24.8c-10.55,16.9-41.09,29.67-86,36C1574.15,701.7,1519.76,705,1460.45,705Z"/><path class="cls-36" d="M1497.34,598.94c-73.33,0-140.4-15.72-144.8-38.36a19.44,19.44,0,0,1,4.44-16.77c12.9-15.53,48.55-18.95,50.06-19.09l1.06,9.58c-9,.83-34.31,5.21-42.7,15.32a10.61,10.61,0,0,0-2.46,9.28c3.87,19.94,105,40.12,201.8,25.63,26.4-3.95,44.63-11.06,51.35-20a13.67,13.67,0,0,0,2.5-11.93c-6.67-28.72-48.77-28.14-49.16-28.13l-.25-9.62c17.74-.37,53,6.6,59.74,35.76A22.47,22.47,0,0,1,1624.8,570c-10.7,14.27-37.64,21-58.35,24.07A471.48,471.48,0,0,1,1497.34,598.94Z"/><rect class="cls-33" x="2437.59" y="2195.52" width="380.94" height="967.32"/><rect class="cls-33" x="2818.53" y="2592.47" width="380.68" height="570.37"/><rect class="cls-33" x="2056.91" y="1773" width="380.68" height="1389.84"/><g class="cls-37"><polygon class="cls-38" points="2818.53 2592.47 2642.25 3162.2 2818.53 3162.2 2818.53 2592.47"/></g><g class="cls-39"><polygon class="cls-40" points="2437.59 2193.11 2140.84 3152.2 2437.59 3162.84 2437.59 2193.11"/></g><g class="cls-41"><polygon class="cls-42" points="2056.91 1389.08 1670.88 2636.74 2056.91 2706.73 2056.91 1389.08"/></g><g class="cls-43"><polygon class="cls-44" points="1666.35 918.47 1263.24 2221.35 1666.35 2236.12 1666.35 918.47"/></g><path class="cls-45" d="M1928.79,1343.51a5.29,5.29,0,0,1-5-3.16L1650,660.88a4.7,4.7,0,0,1,3.14-6.18,5.45,5.45,0,0,1,6.77,2.86L1933.74,1337a4.7,4.7,0,0,1-3.13,6.17A5.78,5.78,0,0,1,1928.79,1343.51Z"/><path class="cls-45" d="M2000.71,1343.51a5.27,5.27,0,0,1-5-3.16L1722,660.88a4.71,4.71,0,0,1,3.13-6.18,5.45,5.45,0,0,1,6.78,2.86L2005.67,1337a4.69,4.69,0,0,1-3.14,6.17A5.74,5.74,0,0,1,2000.71,1343.51Z"/><path class="cls-45" d="M1751.08,724H1679.4a4.83,4.83,0,1,1,0-9.62h71.68a4.83,4.83,0,1,1,0,9.62Z"/><path class="cls-45" d="M1780.66,798.53H1709a4.83,4.83,0,1,1,0-9.62h71.68a4.83,4.83,0,1,1,0,9.62Z"/><path class="cls-45" d="M1810.24,873H1741.1a4.83,4.83,0,1,1,0-9.62h69.14a4.83,4.83,0,1,1,0,9.62Z"/><path class="cls-45" d="M1839.82,947.54H1771.9a4.83,4.83,0,1,1,0-9.62h67.92a4.83,4.83,0,1,1,0,9.62Z"/><path class="cls-45" d="M1869.4,1022.05h-70.15a4.83,4.83,0,1,1,0-9.62h70.15a4.83,4.83,0,1,1,0,9.62Z"/><path class="cls-45" d="M1899,1096.55h-69.71a4.83,4.83,0,1,1,0-9.62H1899a4.83,4.83,0,1,1,0,9.62Z"/><path class="cls-45" d="M1928.56,1171.06H1859.3a4.83,4.83,0,1,1,0-9.62h69.26a4.83,4.83,0,1,1,0,9.62Z"/><path class="cls-45" d="M1959.13,1245.56H1891a4.83,4.83,0,1,1,0-9.62h68.15a4.83,4.83,0,1,1,0,9.62Z"/><path class="cls-46" d="M1573.55,525.42c-4.39,0-107.76-1.49-118.76-42.49-6.17-23-.39-133.13-.14-137.81l10.55.47c-2.09,39.12-4.8,117.7-.15,135.05,7.53,28.07,81,34.9,108.62,35.16Z"/><path class="cls-47" d="M1551.31,235.65c0-44.4-39.5-66-88.22-66s-88.21,21.61-88.21,66a74,74,0,0,0,.73,10.14.57.57,0,0,0,0,.13c.45,8.21,3.42,16.14,7.68,24a77.33,77.33,0,0,0,4.65,7.84c8,12.58,18.36,25.09,25.85,38.29,13.69,24.14,10.55,29.32,10.55,29.32h77.84s-3.48-5.18,10.22-29.32,36.76-45.33,38.1-69.51v-.12A73.43,73.43,0,0,0,1551.31,235.65Z"/><path class="cls-48" d="M1502.42,338.53s-15.3,6.79-39.14,6.82-39.13-6.82-39.13-6.82-12.24,8.65-9.1,12.08,4.72,2.86,4.72,2.86-2.21,34.32,8.46,43.47c9.9,8.5,32.7,8.12,35.93,8,3,.09,24.28.47,34.18-8,10.67-9.15,8.46-43.47,8.46-43.47s1.59.57,4.72-2.86S1502.42,338.53,1502.42,338.53Z"/><path d="M1438.12,344.8c0-.49-1.6-30.33-5.07-56.68a21.71,21.71,0,0,1-7.68-.05,14.56,14.56,0,0,1-10.89-9c-7.58-18-5.36-32.43,1.06-35.51,1.66-.8,6.1-1.93,11.21,4.87,4,5.24,7,19.6,9.29,35.68a35.47,35.47,0,0,0,11.76-6.47,30.1,30.1,0,0,1-3.25-10.28c-1.1-8.7.94-18.9,5.74-20.21a3.65,3.65,0,0,1,3.16.55c4.28,3.06,3.66,17,3.49,19.78a16,16,0,0,1-4.78,10.78,18.24,18.24,0,0,0,5.14,5.33,8.14,8.14,0,0,0,5.9,1.43l.77,3.13a11.61,11.61,0,0,1-8.71-1.95,21,21,0,0,1-5.72-5.69,38.57,38.57,0,0,1-13,6.85c3.5,26.07,5,55.29,5.15,57.3Zm-19.85-98.66a2.51,2.51,0,0,0-1.09.25c-3.79,1.82-6.84,13.91.59,31.52a11.13,11.13,0,0,0,8.36,7,17.9,17.9,0,0,0,6.49,0c-2.2-15.8-5.1-29.82-8.77-34.7C1422.84,248.9,1420.5,246.14,1418.27,246.14Zm33,4.05c-1.72.51-4.32,7.93-3.2,16.79a27.57,27.57,0,0,0,2.38,8.15,13,13,0,0,0,3-7.84C1454,257.59,1452.55,250.79,1451.24,250.19Z"/><path d="M1485.39,344.8l-3.52-.15c.11-2,1.65-31.23,5.15-57.3a38.39,38.39,0,0,1-13.06-6.84,21,21,0,0,1-5.71,5.68,11.6,11.6,0,0,1-8.71,1.95l.77-3.13a8.14,8.14,0,0,0,5.9-1.43,18,18,0,0,0,5.14-5.34,16,16,0,0,1-4.78-10.77c-.16-2.76-.78-16.72,3.49-19.78a3.67,3.67,0,0,1,3.17-.55c4.79,1.31,6.83,11.51,5.73,20.21a30.31,30.31,0,0,1-3.24,10.28,35.81,35.81,0,0,0,11.75,6.46c2.29-16.08,5.34-30.43,9.29-35.67,5.12-6.8,9.54-5.67,11.21-4.87,6.42,3.08,8.65,17.53,1.06,35.51a14.55,14.55,0,0,1-10.89,9,21.76,21.76,0,0,1-7.69.05C1487,314.47,1485.42,344.31,1485.39,344.8Zm5.5-59.88a17.7,17.7,0,0,0,6.49,0,11.11,11.11,0,0,0,8.36-7c7.43-17.61,4.38-29.7.59-31.52-2.5-1.19-5.5,2.29-6.67,3.84C1496,255.11,1493.09,269.12,1490.89,284.92Zm-18.68-34.71c-1.25.58-2.71,7.38-2.12,17.08a13.14,13.14,0,0,0,3,7.86,27.5,27.5,0,0,0,2.39-8.17C1476.59,258.12,1474,250.7,1472.21,250.21Z"/><g class="cls-49"><path class="cls-50" d="M1407.45,294.63s-48.16-67.18,0-103.92,114.22,3.57,114.22,3.57-61.59-2-90.71,22.45S1405.05,279.75,1407.45,294.63Z"/></g><path d="M1466.57,360.39c-1.19,0-2.39,0-3.62,0-26.27-.55-41.43-5.15-42.06-5.35l1.13-3c.15.05,15.34,4.65,41,5.19s43.12-5.12,43.29-5.18l1.2,3C1506.82,355.22,1490.88,360.39,1466.57,360.39Z"/><path d="M1461.25,374.71a129.8,129.8,0,0,1-30.55-3.86l1-3.08c.18.05,18,4.79,36.06,3.51s27.45-4.73,27.55-4.77l1.34,3c-.4.15-9.92,3.68-28.62,5C1465.75,374.64,1463.48,374.71,1461.25,374.71Z"/><path d="M1461.25,382a129.51,129.51,0,0,1-30.55-3.87l1-3.07c.18.05,18,4.79,36.06,3.51s27.45-4.74,27.55-4.77l1.34,3c-.4.15-9.92,3.68-28.62,5C1465.75,381.94,1463.48,382,1461.25,382Z"/><path d="M1461.25,389.3a130.4,130.4,0,0,1-30.55-3.86l1-3.08c.18.05,18,4.79,36.06,3.51s27.45-4.73,27.55-4.77l1.34,3c-.4.15-9.92,3.68-28.62,5C1465.75,389.23,1463.48,389.3,1461.25,389.3Z"/><path class="cls-51" d="M1573.71,247.64a9.37,9.37,0,0,1-4.08-.92c-4.3-2.05-6-6.9-3.7-10.82l12.42-21.56a9.22,9.22,0,0,1,11.7-3.46L1607,218.5l9.35-17.22a8.6,8.6,0,0,1,5.07-4,9.5,9.5,0,0,1,6.72.41l20.19,9.1,10-18.39a9.2,9.2,0,0,1,11.79-3.63l28.57,12.89c4.36,2,6.14,6.77,4,10.74a9.22,9.22,0,0,1-11.79,3.63l-20.69-9.33-10,18.4a9.22,9.22,0,0,1-11.79,3.63l-20.19-9.11-9.36,17.23c-2.15,4-7.43,5.58-11.79,3.63l-17.09-7.71-8.43,14.62A8.94,8.94,0,0,1,1573.71,247.64Z"/><path class="cls-52" d="M1323.69,247.64a8.94,8.94,0,0,1-7.8-4.29l-8.43-14.62-17.09,7.71a9.22,9.22,0,0,1-11.79-3.63l-9.36-17.23L1249,224.69c-4.36,2-9.64.34-11.8-3.63l-10-18.4L1206.57,212a9.2,9.2,0,0,1-11.79-3.63c-2.16-4-.38-8.78,4-10.74l28.57-12.89c4.36-2,9.64-.34,11.79,3.63l10,18.39,20.19-9.1a9.55,9.55,0,0,1,6.72-.41,8.57,8.57,0,0,1,5.07,4l9.36,17.22,16.91-7.62a9.21,9.21,0,0,1,11.69,3.46l12.42,21.56c2.26,3.92.61,8.77-3.7,10.82A9.34,9.34,0,0,1,1323.69,247.64Z"/><path class="cls-53" d="M1480.12,167.73a9.43,9.43,0,0,1-4.64-1.21,7.62,7.62,0,0,1-2.82-11.05l9.57-14-16-9.53a7.6,7.6,0,0,1-2.54-11.1l11.56-16.08-18.83-11.25a7.6,7.6,0,0,1-2.54-11.1l12.35-17.17L1447,53.69a7.59,7.59,0,0,1-2.53-11.1,9.32,9.32,0,0,1,12.18-2.31l26.67,15.92a7.6,7.6,0,0,1,2.53,11.11l-12.35,17.16,18.84,11.25a7.6,7.6,0,0,1,2.54,11.1l-11.56,16.08,15.78,9.42a7.62,7.62,0,0,1,2.65,11l-14.11,20.67A9,9,0,0,1,1480.12,167.73Z"/><path class="cls-54" d="M1556.39,173.86a9.22,9.22,0,0,1-6.23-2.35,7.53,7.53,0,0,1,0-11.34l73.11-66.61a9.39,9.39,0,0,1,12.44,0,7.52,7.52,0,0,1,0,11.34l-73.1,66.61A9.21,9.21,0,0,1,1556.39,173.86Z"/><path class="cls-55" d="M1386.05,170.24a9.26,9.26,0,0,1-6.23-2.34l-62.1-56.6a7.52,7.52,0,0,1,0-11.34,9.41,9.41,0,0,1,12.44,0l62.11,56.59a7.53,7.53,0,0,1,0,11.35A9.25,9.25,0,0,1,1386.05,170.24Z"/><path class="cls-14" d="M866,1694.65H658c-50.46,0-95.81-35.9-102.42-85.93-1.83-13.83-.4-27.34,6.68-38.78,52.19-84.3,129.44,27,155.24,0,8.83-9.25-29.59-109.39,57.63-110.71,88.4-1.33,88.2,85.78,53.5,155.18-18.68,37.38,54.77-14.39,79.44,4.89,12.33,9.65,14.5,23.7,10.56,37.74C912.18,1679.93,889.77,1694.65,866,1694.65Z"/><path class="cls-56" d="M3216,1516.5h208c50.47,0,95.81-35.89,102.42-85.92,1.83-13.84.4-27.35-6.68-38.79-52.19-84.3-129.43,27-155.24,0-8.83-9.25,29.59-109.39-57.63-110.71-88.4-1.33-88.2,85.79-53.5,155.19,18.69,37.37-54.76-14.4-79.43,4.89-12.34,9.64-14.51,23.7-10.57,37.73C3169.82,1501.78,3192.22,1516.5,3216,1516.5Z"/><circle class="cls-56" cx="3234.61" cy="1559.9" r="17.55"/><path class="cls-56" d="M3188.66,1381.75a27.7,27.7,0,1,1-27.7-27.7A27.7,27.7,0,0,1,3188.66,1381.75Z"/><path class="cls-14" d="M820.57,1737.63a23,23,0,1,1-23-23A23,23,0,0,1,820.57,1737.63Z"/><path class="cls-14" d="M913.12,1407.88a54.19,54.19,0,1,1-54.19-54.18A54.19,54.19,0,0,1,913.12,1407.88Z"/><path class="cls-57" d="M1855.32,601.45l-42.24,56.42-71.28,36.54a22.72,22.72,0,0,0-18,4.13c-8.44,6.47-9.6,20.8-7.45,22.38s5.84-1.62,5.84-1.62,8.64-14.08,21.9-16.36c4.84-.83,70.65-29.9,76.32-32.24,21.11-8.72,54.42-52.9,54.42-52.9Z"/><path class="cls-58" d="M1902.18,765.55l-36.74,176.38,15.69,124.89,17.77-2.06s7.3-57.07,7.3-108.75c0-53,71.7-166.28,64.68-186.51S1898.22,717.87,1902.18,765.55Z"/><polygon class="cls-57" points="1883.31 1081.56 1899.5 1080.58 1898.83 1062.67 1881.13 1066.82 1883.31 1081.56"/><path class="cls-59" d="M1850.54,1096.55l50.85-2.06-.77-15.61s-18.06-4-29,1.34S1851.24,1088,1850.54,1096.55Z"/><path class="cls-60" d="M1881.92,750l-92.34,121,42.1,115.39,20.15-5.6s-.35-42-13.33-92c-8-30.9,139.15-88.56,132.14-108.78S1878,702.33,1881.92,750Z"/><polygon class="cls-57" points="1836.32 999.73 1852.51 998.75 1851.83 980.84 1834.14 984.99 1836.32 999.73"/><path class="cls-59" d="M1803.55,1014.73l50.85-2.07-.77-15.61s-18.06-4-29.05,1.35S1804.25,1006.12,1803.55,1014.73Z"/><path class="cls-57" d="M1861.61,500.8s-19.15,27.21-17.23,34.72c1.76,6.9,17.28,7.35,16.11,11.39s-14.26,24.64-14.26,24.64,16.68-5.78,23.37-.59c3,2.32,5.53,4.78,5.53,4.78s18.73-63.28,2.29-73.29S1861.61,500.8,1861.61,500.8Z"/><path class="cls-61" d="M1877.94,564.38s39.31,4.77,78.19,110.69c17.83,48.58,14.51,105,14.51,105L1869.8,752.29c8.31-60-39.86-167.56-25.63-184.83C1850.14,560.22,1871.51,559.74,1877.94,564.38Z"/><path class="cls-57" d="M1832.65,581.66s-65.49-46.4-79.89-60.07c-16-15.15-31.87-48.65-35.4-61.24a18,18,0,0,1,1-12.85s-7.79-1.41-11.61-13.61c-2.19-7-1.92-16.18-4.4-13.86s-4.22,18.37,1.93,32.91,15.12,48.4,32.35,76.77c22.85,37.63,98.66,83.4,98.66,83.4Z"/><path class="cls-61" d="M1726.64,479.32l-15.05,9.14s16.22,45.41,47.32,77.93c31.92,33.39,76.19,62,84.27,59.08,16-5.65,36.47-31,29.27-45.62-1.61-3.3-53.27-10.87-89.89-37.86C1747.71,516.3,1726.64,479.32,1726.64,479.32Z"/><path class="cls-61" d="M1748.42,691.05s57.59-41.95,64.66-44.83,17.32-66.79,49-70.32,16.6,54.17,16.6,54.17-38,33.9-59.67,46.51c-16.46,9.58-75.19,29.57-75.19,29.57Z"/><path class="cls-62" d="M1882.9,539.65s-6.52-5.8-5.28-9.25,7-11.95,3.72-14.37-4.36.43-6.46-.81-23.37-6.08-29.5-23.47,13.67-24.06,22.55-17.07-.91,13.79-.91,13.79a77,77,0,0,1,24.38,15.93C1902.39,515.33,1882.9,539.65,1882.9,539.65Z"/><ellipse class="cls-63" cx="2593.81" cy="3274.98" rx="185.05" ry="10.95"/><path class="cls-63" d="M3808.93,3192.71c0,6.38-80.15,11.55-179,11.55s-179-5.17-179-11.55,80.15-11.55,179-11.55S3808.93,3186.33,3808.93,3192.71Z"/><path class="cls-63" d="M2996.4,3271.64c0,4.14-44.88,7.5-100.24,7.5s-100.23-3.36-100.23-7.5,44.87-7.5,100.23-7.5S2996.4,3267.5,2996.4,3271.64Z"/><path class="cls-64" d="M2933.63,2897l14.85,175.41-8.11,165.87,30.4-3.36s25.87-139.5,28.92-178.53c1.24-15.9-8.17-228.08-8.17-228.08S2929.68,2816,2933.63,2897Z"/><path class="cls-57" d="M2966.52,3258.59s-5.43-1.94-7.08-4.27,4-18.59,4-18.59l-19.71,2.18v21.38l24.16,6.42-.62-8.43Z"/><path class="cls-59" d="M2943.78,3256s-2.1,12.52,0,15.16,47,3.78,47,3.78l.74-6.55s-9.46-2.22-15-5a19.48,19.48,0,0,1-8-8l-3.67,6Z"/><path class="cls-65" d="M2885.9,2882.45l4.69,190-8.11,165.87,30.4-3.36s25.87-139.5,28.92-178.53c1.25-15.9,20.32-242.77,20.32-242.77S2881.94,2801.41,2885.9,2882.45Z"/><path class="cls-66" d="M2914.5,2662.52a28.39,28.39,0,0,0-27.66,22.25c-3.66,16.69-7.56,43.69-7.56,82.93,0,72.63,5.58,107.37,5.58,107.37l111.9-17s-9-79.88,12.79-152.36C3021.35,2666.52,2951.24,2662.17,2914.5,2662.52Z"/><path class="cls-57" d="M2961.29,2549.65s-25.44,21.08-27.53,44.3c-1,10.55,18.23,15.61,18.23,15.61.25,25.91-27.34,51.58-27.34,51.58s13.72,12.28,31.85,15.9c27.29,5.46,25.83-6,25-9.07-8.86-33.44,25.78-81.6,10.63-104.22S2961.29,2549.65,2961.29,2549.65Z"/><path class="cls-62" d="M2969.09,2556.55A58.8,58.8,0,0,0,2951,2541.4c-11-5.62-.55-36.43,3.37-35.91s12.68,19.48,20.93,28.36,28.85,21.75,26.59,47.15-22.92,47.67-22.92,47.67-7.13-8.48-7.34-13,12.19-12.54,11.31-17.83-7.63-.95-10.54-2.15S2982.85,2577.57,2969.09,2556.55Z"/><path class="cls-67" d="M2952.61,2710.58l-28-49.44-8-.08,14.7-11.74s15.38,8,22.88,15.73,10.61,13.24,10.61,13.24l13.83-16.27,14.85,4.92,3.27,6.7Z"/><path class="cls-67" d="M2996,2730.47s63.29,23,74.2,9.51c9.31-11.52-11.65-59-55.87-109.07-15.73-17.81-26.71-24.9-26.71-24.9l-10.4,12.44,60,90.22s-34-25.34-37.49-28.72S2989.14,2706.82,2996,2730.47Z"/><polygon class="cls-68" points="2977.25 2618.45 2962.12 2610.19 2980.48 2568.46 3000.57 2578.93 2977.25 2618.45"/><path class="cls-57" d="M2980.85,2616.69s-8.36-4.57-6.42-13.12,5.52-18.42,6.37-22.6,5.38-2,5.23,1.79a73.38,73.38,0,0,1-1.25,9.31s5.66-7.4,6.06-13.11-2.18-15.7,1.76-14.19,10.27,24,8.34,30.71-10.36,14.05-10.36,14.05Z"/><path class="cls-57" d="M2908.63,3258.59s-5.43-1.94-7.08-4.27,4-18.59,4-18.59l-19.7,2.18v21.38l24.15,6.42-.62-8.43Z"/><path class="cls-59" d="M2885.9,3256s-2.11,12.52,0,15.16,47,3.78,47,3.78l.74-6.55s-9.46-2.22-15-5a19.55,19.55,0,0,1-8-8l-3.66,6Z"/><path class="cls-67" d="M2901.16,2709.72s-37.6,49.6-78,35-71.56-74.46-71.56-74.46l10.53-11.6s26.61,36.76,66.74,50c26.51,8.78,43.53-25.1,58.11-37.34C2910.8,2651.3,2930.71,2676.73,2901.16,2709.72Z"/><path class="cls-69" d="M2662.44,3254.65l-18.8-158.56,6.41-215.57s-11.94-48.55,38,10.37-7.61,208.6-5.74,216.22c2.87,11.72,5.74,150.38,5.74,150.38Z"/><path class="cls-59" d="M2750.53,3261.45l-17.49-1.07-14.22,9.17s-18.16,4-23,8,56.09-1.08,56.09-1.08Z"/><path class="cls-70" d="M2726.34,3254.65l-18.79-158.56-35.41-221.63s15.64-26.57,79.79,16.43c5.9,4-7.61,208.6-5.74,216.22,2.87,11.72,5.74,150.38,5.74,150.38Z"/><polygon class="cls-57" points="2732.57 3255.34 2750.76 3257.36 2750.42 3263.38 2733.04 3260.38 2732.57 3255.34"/><path class="cls-59" d="M2686.63,3261.45l-17.49-1.07-14.22,9.17s-18.16,4-23,8,56.09-1.08,56.09-1.08Z"/><polygon class="cls-57" points="2668.67 3255.34 2686.86 3257.36 2686.52 3263.38 2669.14 3260.38 2668.67 3255.34"/><path class="cls-14" d="M2461,2657.08l92.16,27.12L2666,2649l1.17,50s-91.87,22.74-105.58,23.53-50.68-3.41-76.62-21.69c-16.93-11.93-34-26.22-34-26.22Z"/><path class="cls-57" d="M2667,2563.67s-16.35,25.95-11.49,47c2.2,9.59,20.58,8.51,20.58,8.51,7.71,22.79-1.29,53.45-1.29,53.45s9.33-2.73,24.76,4.8c8.89,4.33,18-18.14,16.37-20.63-17.47-26.94,2.26-74.05-17.63-89.63S2667,2563.67,2667,2563.67Z"/><path class="cls-62" d="M2677,2568.66s-.53-9.68-13.81-9.43c-11.46.22-26.18-25.59-12.42-33.45,16-9.12,27.81,8.42,37.4,19.26,11.42,12.92,16.46,13.67,23.16,15.7,5.14,1.57,14.69,3.8,16.72,14.44,1.18,6.23-5.56,13.21-8.08,16.6a13.07,13.07,0,0,1,9,8.06c2.16,5.91-20.06,27.28-20.06,27.28s-11.19-3.08-12.66-7,7.13-14.58,4.83-19-7.74-.8-9.93,1.15c-.9.8-4.74-2.5-4-10.39.22-2.34,4.13-6.59,4.13-6.59s-8.36-.51-12.27-5.21C2673.75,2573.76,2677,2568.66,2677,2568.66Z"/><path class="cls-14" d="M2755.48,2789c-3.83-39.06.13-103.29-1.76-113.64s-34-48.2-86.1-26.68c-5.44,2.25-11.6,6.41-17.57,12.28-14.41,14.13-2.45,95.88-3.52,142s-2.89,90.35-2.89,90.35l18.67,18.35,14.61-31.24,23.08,35.82,62.1-22.93S2759.32,2828,2755.48,2789Z"/><path class="cls-57" d="M2762.09,2658.63s-12.81-9.15-26-10.67c-11.37-1.31-22.25,1.62-23.68,4.09-3.09,5.33,28.44,8.37,28.44,8.37s-17.19.93-10.85,4.86c2.85,1.76,27.94,5.89,27.94,5.89Z"/><polygon class="cls-71" points="2694.94 2652.41 2690.05 2668.89 2702.49 2855.63 2679.52 2853.62 2685.53 2669.59 2679.52 2654.4 2694.94 2652.41"/><rect class="cls-45" x="2771.51" y="2900.19" width="133.88" height="94.37" transform="translate(6762.09 4108.81) rotate(150.41)"/><polygon points="2792.62 2967.55 2880.78 2917.5 2875.16 2873.07 2871.58 2873.52 2876.89 2915.55 2792.86 2963.27 2758.01 2937.94 2755.89 2940.86 2792.62 2967.55"/><polygon class="cls-72" points="2790.55 3028.84 2803.54 3021.46 2758.02 2941.3 2753.43 2943.9 2790.55 3028.84"/><rect class="cls-73" x="2824.96" y="2927.56" width="23.12" height="17.17" transform="translate(6752.93 4088.78) rotate(150.41)"/><path class="cls-45" d="M2769.19,2899.45l57.35-32.57,21.92,38.61-57.35,32.56Zm54.64-22.73-44.8,25.44,14.79,26.05,44.8-25.44Z"/><path class="cls-57" d="M2810.34,2909.76s17.8-1.2,13.66-23.7c-2.17-11.8-13.32-20.79-13.32-20.79s-23.15-76.38-35.77-103.67c-5.69-12.31-28.55,8.91-18.9,12.34s34.81,86.92,37.86,107.52c1.43,9.68-4.1,17.64.24,19.41,5.89,2.41,7.11-19.06,7.11-19.06S2804,2899,2810.34,2909.76Z"/><path class="cls-14" d="M2792.22,2873.07l-37.57-80.77-36-112.42,32.88-9.65s23.52,82.38,31,93.89,32.27,102,32.27,102Z"/><path class="cls-57" d="M2461,2657.08s-61.06-25.81-59.6-19.81,10.38,11.16,12.4,15.39-.53,18.55,12,22.51,25.12-.59,25.12-.59Z"/><polygon class="cls-14" points="412.52 2693.32 1654.95 2693.32 1754.65 2729.51 573.71 2729.51 412.52 2693.32"/><polygon class="cls-74" points="1754.65 3276.18 573.71 3276.18 573.71 2729.51 1754.65 2729.51 1754.65 2773.16 1680.69 2805.29 1754.65 2832.47 1754.65 2839.2 1754.65 2863.47 1734.43 2905.29 1754.65 2933.63 1754.65 2961.35 1688.76 2993.79 1754.65 2993.79 1754.65 3009.24 1754.65 3020.33 1754.65 3043.96 1719.82 3067.09 1754.65 3110.97 1727.12 3156.25 1754.65 3193.71 1754.65 3208.57 1754.65 3232.81 1737.74 3247.92 1754.65 3264.78 1754.65 3276.18"/><polygon class="cls-75" points="573.71 3276.18 498.01 3258.06 492.92 2711.39 573.71 2729.51 573.71 3276.18"/><polygon class="cls-56" points="953.72 2881.74 573.71 2881.74 763.72 2928.84 953.72 2881.74"/><polygon class="cls-76" points="573.71 3162.83 712.79 3133.96 573.71 3133.96 597.07 3057.99 564.81 3009.24 573.71 3162.83"/><polygon class="cls-76" points="573.71 2855.79 754.54 2855.79 556.13 2832.47 573.71 2855.79"/><polygon class="cls-76" points="541.61 2755.29 826.79 2755.29 556.13 2734.93 541.61 2755.29"/><polygon class="cls-76" points="541.61 3183.2 826.79 3173.01 556.13 3162.83 541.61 3183.2"/><polygon class="cls-76" points="528.24 3253.17 684.2 3253.17 542.75 3232.81 528.24 3253.17"/><polygon class="cls-76" points="572.71 2839.2 591.16 2803.55 556.13 2771.37 572.71 2839.2"/><polygon class="cls-75" points="412.52 3240.19 412.52 3192.06 498.01 3211.06 412.52 3185.24 412.52 3123.16 459.63 3125.5 412.52 3112.96 412.52 3002.85 429.42 2976.74 411.22 2951.74 411.22 2915.3 488.99 2913.04 409.92 2892.39 409.92 2832.47 422.31 2811.15 412.52 2790.32 412.52 2745.11 485.33 2765.33 412.52 2729.51 412.52 2693.32 528.24 2719.33 528.24 3264.78 412.52 3240.19"/><polygon class="cls-56" points="1296.92 3162.83 797.85 3162.83 1054.57 3193.71 1296.92 3162.83"/><polygon class="cls-56" points="1694.93 3016.71 1346.34 3016.71 1671.75 3067.09 1694.93 3016.71"/><polygon class="cls-56" points="1754.65 2832.47 1420.37 2830.6 1828.63 2863.47 1754.65 2832.47"/><polygon class="cls-56" points="1090.23 3047.69 591.16 3047.69 744.45 3078.57 1090.23 3047.69"/><polygon class="cls-56" points="1454.88 2918.19 1096.81 2918.19 1327.67 2942.14 1454.88 2918.19"/><polygon class="cls-56" points="1650.28 3245.31 1292.21 3245.31 1527.01 3257.29 1650.28 3245.31"/><polygon class="cls-76" points="1532.88 2973.06 870.26 2971.26 1353.99 2990.44 1532.88 2973.06"/><polygon class="cls-77" points="1759.42 2773.17 1333.48 2771.37 1710.29 2790.55 1759.42 2773.17"/><polygon class="cls-76" points="1492.68 3202.97 1120.5 3204.19 1403.71 3218.61 1492.68 3202.97"/><polygon class="cls-56" points="925.97 2803.07 591.16 2803.07 684.2 2821.82 925.97 2803.07"/><polygon class="cls-56" points="904.36 3238.55 569.55 3238.55 662.59 3257.29 904.36 3238.55"/><polygon class="cls-14" points="535.86 2880.3 411.33 2846.64 371.93 2869.31 535.86 2880.3"/><polygon class="cls-14" points="573.71 3065.92 424.49 3032.15 463.97 3067.09 573.71 3065.92"/><polygon class="cls-78" points="1769.54 3459.29 1224.05 3278.3 1224.05 2768.16 2128.01 3229.42 2082.83 3353.15 1769.54 3459.29"/><path class="cls-79" d="M1224.05,2768.16s-.8,303,117,438.2c172.48,198,522.44,280.61,522.44,280.61l219.39-133.82h0L2128,3124.83c-81-42-168.13-99.67-221-171.42-112.55-152.85-94.64-299.24-94.64-299.24Z"/><path class="cls-80" d="M2051,3180.23l-63.57,42.6s44.66,8.44,69.43,55.47,25.95,74.85,25.95,74.85l6.88-166.27Z"/><path class="cls-81" d="M1481.4,2795a6.88,6.88,0,0,1-1.58-13.58l267.09-63.17a6.82,6.82,0,0,1,8.29,5.11,6.88,6.88,0,0,1-5.12,8.28L1483,2794.82A6.77,6.77,0,0,1,1481.4,2795Z"/><path class="cls-81" d="M1505.58,2840.7a6.88,6.88,0,0,1-1.81-13.52l247.07-67.89a6.89,6.89,0,0,1,3.65,13.28l-247.08,67.89A7.13,7.13,0,0,1,1505.58,2840.7Z"/><path class="cls-81" d="M1522.94,2885.21a6.89,6.89,0,0,1-2-13.47l245.87-75.32a6.89,6.89,0,0,1,4,13.17L1525,2884.91A7,7,0,0,1,1522.94,2885.21Z"/><path class="cls-81" d="M1349.52,3086.65a6.89,6.89,0,0,1-2.48-13.31l457.45-176.52a6.89,6.89,0,0,1,5,12.85L1352,3086.19A7,7,0,0,1,1349.52,3086.65Z"/><path class="cls-81" d="M1393.37,3163.55a6.88,6.88,0,0,1-2.87-13.14l435.27-199a6.89,6.89,0,0,1,5.73,12.53l-435.27,199A6.93,6.93,0,0,1,1393.37,3163.55Z"/><path class="cls-81" d="M1459.2,3216.56a6.89,6.89,0,0,1-3-13.1l409.13-194.65a6.88,6.88,0,1,1,5.91,12.42l-409.12,194.65A6.77,6.77,0,0,1,1459.2,3216.56Z"/><path class="cls-81" d="M1522.94,3265.18a6.88,6.88,0,0,1-3.09-13l393.43-198a6.88,6.88,0,1,1,6.19,12.29l-393.44,198A6.82,6.82,0,0,1,1522.94,3265.18Z"/><path class="cls-81" d="M1607.09,3306.29a6.89,6.89,0,0,1-3.21-13l369.8-195a6.88,6.88,0,1,1,6.42,12.18l-369.8,195A6.87,6.87,0,0,1,1607.09,3306.29Z"/><path class="cls-81" d="M1791.61,3425.51a6.88,6.88,0,0,1-3.72-12.67l167.19-107.41a6.88,6.88,0,1,1,7.43,11.59l-167.19,107.4A6.84,6.84,0,0,1,1791.61,3425.51Z"/><path class="cls-82" d="M1837.39,3417.29c-8.06,0-16-4.16-23.13-12.35-13.9-16-22.79-45.44-21.57-69.39l-35.16,17.61a6.87,6.87,0,0,1-9.12-2.86c-9.83-18-6.72-62.47,10.82-86.75,9.5-13.16,21.94-18.77,36-16.21,19.87,3.61,31,21.49,38.51,40.93,8.25-6.29,16-5.81,21.31-4.11a27,27,0,0,1,5.06,2.24l22.37-11.19a26.47,26.47,0,0,1,7.22-8.6c3.8-2.82,10.32-5.64,19.75-2.85a6.88,6.88,0,0,1,1.14,12.76l-17.7,8.86c-4.33,11.61-4.43,31.19-4.49,40.81,0,2.77,0,5.11-.1,6.83a6.87,6.87,0,0,1-6.32,6.56,7,7,0,0,1-7.3-5.46c-2-9.85-8.42-23.82-16.05-31.59l-10.42,5.23c18.94,20.72,30.39,62.63,23.52,81.49a6.82,6.82,0,0,1-7.21,4.49c-.74-.08-1.48-.2-2.22-.33-.65,7.82-3.38,14.43-9.35,18.6A27,27,0,0,1,1837.39,3417.29Zm-30-89.09c-3.65,19.72,3.49,51.82,17.28,67.73,10.28,11.86,17.64,6.72,20.41,4.79,3.25-2.27,4.09-7.6,3.57-14.26-10-8.38-17.57-22.59-22-35.87a105.15,105.15,0,0,1-5.38-29.36Zm38.67-.29c.14.42.27.84.41,1.25.64,1.93,1.59,4.47,2.69,7.45,3.55,9.55,8.06,21.74,10.82,33.71C1858.89,3357.33,1853.55,3340.63,1846.05,3327.91Zm-57.24-67.4c-7,0-13,3.66-18.42,11.09-13,17.93-16,49.55-12.16,65.82l37.42-18.74a34.59,34.59,0,0,1,7.29-12.83c5.81-6.21,12.18-9.72,18.76-10.43-6.17-16.75-14.85-32-28.94-34.53A22.64,22.64,0,0,0,1788.81,3260.51Zm82.54,35.65a68.74,68.74,0,0,1,4.27,5.73c.28-2.88.63-5.69,1.09-8.4Z"/><path class="cls-82" d="M2082.83,3353.15l87-202.23s-20.39-20-41.82-26.09c-61.47-17.39-131.21,29-131.21,29S2080.52,3186.88,2082.83,3353.15Z"/><path class="cls-83" d="M934.61,3287.14s18.44-77.53,68.16-96.07,85.11,28.71,79.21,61.55-47.19-15.14-85.11,0-68.12,80.72-68.12,80.72S925.44,3325.9,934.61,3287.14Z"/><path class="cls-84" d="M926.24,3325S897.6,3155.46,806,3161.39c-75.61,4.9-136.74,39.45-173.59-26.46-45.57-81.54,85.77-202.14,242.08-103.9C1011.19,3116.94,926.24,3325,926.24,3325Z"/><path class="cls-85" d="M776.57,3276.6c-24-9.93-36.64-37.36-26.8-61.4A37.4,37.4,0,0,1,773.52,3193c40.43-13.45,74.94,19.64,117.52,67.6,21.55,24.27,37.13,69.69,37.13,69.69S829.29,3298.41,776.57,3276.6Z"/><path class="cls-14" d="M923.27,3337a3.79,3.79,0,0,1-1.27-.23,3.66,3.66,0,0,1-2.16-4.7c.44-1.21,43.35-120.8-39.15-201.83s-208.22-28.64-209.48-28.1a3.66,3.66,0,0,1-2.88-6.73c1.31-.56,131.49-54.85,217.49,29.6s41.34,208.35,40.88,209.6A3.67,3.67,0,0,1,923.27,3337Z"/><path class="cls-14" d="M928.17,3333.93a3.66,3.66,0,0,1-3.42-2.34c0-.1-6.58-15.05-48.42-50.3-42.69-36-101-58-101.6-58.24a3.66,3.66,0,1,1,2.56-6.86c.6.23,60.08,22.7,103.76,59.5,27.3,23,40.09,37.74,45.92,45.75,8.49-27.33,39.32-115.74,85-124.31,16.56-3.12,30.15-.61,40.42,7.42,16.62,13,18.13,35.58,18.18,36.53a3.66,3.66,0,0,1-7.31.44c0-.21-1.41-20.32-15.42-31.24-8.53-6.65-20.16-8.65-34.52-6-48.51,9.1-81.31,125.75-81.63,126.93a3.67,3.67,0,0,1-3.35,2.68Z"/><path class="cls-14" d="M713.49,3163.28a3.65,3.65,0,0,1-3-5.8l56.64-78.5a3.66,3.66,0,1,1,5.93,4.28l-56.64,78.5A3.62,3.62,0,0,1,713.49,3163.28Z"/><path class="cls-14" d="M809.26,3156.56a3.66,3.66,0,0,1-2.1-6.67l57.07-39.74a3.66,3.66,0,1,1,4.18,6l-57.07,39.75A3.64,3.64,0,0,1,809.26,3156.56Z"/><path class="cls-14" d="M921.47,3188l-.39,0-48.75-5.22a3.66,3.66,0,0,1,.78-7.28l48.75,5.22a3.66,3.66,0,0,1-.39,7.3Z"/><path class="cls-14" d="M935,3250.63a3.67,3.67,0,0,1-2-.59L900.78,3229a3.66,3.66,0,0,1,4-6.13L937,3243.91a3.66,3.66,0,0,1-2,6.72Z"/><path class="cls-14" d="M848.15,3307a3.66,3.66,0,0,1-1.4-7l36.76-15.17-14.17-34.52a3.66,3.66,0,1,1,6.77-2.78l15.56,37.9a3.66,3.66,0,0,1-2,4.78l-40.13,16.56A3.63,3.63,0,0,1,848.15,3307Z"/><path class="cls-14" d="M760.26,3256.29a3.66,3.66,0,0,1-1.07-7.16L808.88,3234,799,3196.09a3.66,3.66,0,1,1,7.08-1.85l10.81,41.27a3.66,3.66,0,0,1-2.47,4.43l-53.06,16.19A3.65,3.65,0,0,1,760.26,3256.29Z"/><path class="cls-14" d="M787.78,3282.15a3.66,3.66,0,0,1-1-7.19l62.75-17.39-10.42-37.36a3.66,3.66,0,1,1,7.05-2l11.41,40.9a3.67,3.67,0,0,1-2.55,4.51L788.76,3282A3.62,3.62,0,0,1,787.78,3282.15Z"/><path class="cls-86" d="M2271.88,1735.61c-8.27,2.43-91.09-73.69-62-101C2232.69,1613.17,2263.78,1695.66,2271.88,1735.61Z"/><path class="cls-87" d="M2274.87,1739.61s93-145.39,43.94-205.7S2230.92,1566.35,2274.87,1739.61Z"/><path class="cls-88" d="M2287.52,1739.61s120.74-31.88,95.27-98.19S2319.11,1653.85,2287.52,1739.61Z"/><rect class="cls-14" x="2242.49" y="1638.59" width="5.42" height="104.35" transform="translate(-548.83 1385.82) rotate(-30.75)"/><rect class="cls-14" x="2331.33" y="1678.73" width="53.2" height="5.42" transform="translate(-443.88 948.69) rotate(-20.84)"/><rect class="cls-14" x="2346.77" y="1654.06" width="37.26" height="5.42" transform="translate(-437.31 960.47) rotate(-21.06)"/><rect class="cls-14" x="2356.27" y="1636.44" width="24.44" height="5.43" transform="matrix(0.86, -0.51, 0.51, 0.86, -504.05, 1426.8)"/><rect class="cls-14" x="2325.13" y="1697.41" width="38.3" height="5.43" transform="translate(-267.21 448.64) rotate(-10.35)"/><rect class="cls-14" x="2315.58" y="1714.15" width="26.52" height="5.42"/><rect class="cls-14" x="2300.84" y="1726.13" width="22.86" height="5.42" transform="translate(-313.02 527.46) rotate(-12.2)"/><path class="cls-14" d="M2277.52,1740.16l-5.31-1.12c.13-.61,13-62.49,19.48-122.64,6-56,.09-94.21,0-94.59l5.35-.85c.07.38,6.12,39.28,0,96C2290.6,1677.41,2277.65,1739.54,2277.52,1740.16Z"/><polygon class="cls-14" points="2297.4 1578.56 2266.28 1546.23 2270.18 1542.46 2297.15 1570.48 2320.9 1542.59 2325.03 1546.1 2297.4 1578.56"/><polygon class="cls-14" points="2294.14 1620.56 2263.91 1585.15 2268.04 1581.64 2294.65 1612.81 2327.03 1583.76 2330.65 1587.8 2294.14 1620.56"/><polygon class="cls-14" points="2290.09 1653.52 2261.97 1629.62 2265.49 1625.49 2290.39 1646.66 2320.26 1625.35 2323.42 1629.76 2290.09 1653.52"/><polygon class="cls-14" points="2285.83 1685.81 2264.12 1665.44 2267.83 1661.48 2286.16 1678.69 2307.55 1662.16 2310.88 1666.46 2285.83 1685.81"/><path class="cls-14" d="M2288.51,1742.13l-2-5.05c.19-.07,18.84-7.87,43.29-46.2,24.82-38.88,31.08-64.77,31.14-65l5.28,1.23c-.26,1.08-6.47,27-31.84,66.71C2308.82,1733.9,2289.32,1741.82,2288.51,1742.13Z"/><path class="cls-59" d="M2489.1,1954.85v-30.72s-4.79-22.45-9.66-24.84-8.1,13.89-8.1,13.89l1.74,41.67Z"/><path class="cls-59" d="M2488.71,1789.17s2.46-32.92-3.3-40.06c-1.85-2.31-7-11.54-8.44-13.14,0,0-5.7,0-6.29,4.79a27.89,27.89,0,0,0,0,5.89c1.17,12.5.68,42.52.68,42.52Z"/><path class="cls-89" d="M2488.71,1786.66l118.62-94.35c38.82,29.38,126,131.8,126,131.8l42.37-72.62s-124-93.76-165.49-104.36l-121.52,117Z"/><path class="cls-57" d="M2727,1590.81s10.2,17.89,7.5,15.42c-18.63-17-109.94-102.07-111-110.11-1.79-13-39.92-86.55-47.45-92s-3.35-5.39-8.56-4.1-11.72-24.48-11.72-24.48,26.64,8.72,36.28,21.13c1.3,1.68,59.08,80.86,64.26,95.24,3.48,9.69,80.05,65.12,80.05,65.12S2770.9,1606.66,2727,1590.81Z"/><path class="cls-57" d="M2739.24,1465.13s-22.86,13.31-27.56,31.38c-2.14,8.21,12.35,14.72,12.35,14.72-3.21,20.51-22.33,40.36-22.33,40.36s8.23,1.63,17,13.54c5.07,6.87,21-6.69,20.75-9.23-2.6-27.58,31.29-55.72,22.3-75.58S2739.24,1465.13,2739.24,1465.13Z"/><path class="cls-62" d="M2744.9,1472.93a47.05,47.05,0,0,0-12.34-14.34c-7.94-5.89,4.36-28.85,7.39-27.93s7.45,17,12.8,25.15,19.94,21,14.81,40.75-24.37,34.63-24.37,34.63-4.52-7.63-4.09-11.19,11.27-8.3,11.27-12.6-5.89-1.75-8-3.08S2753,1491.35,2744.9,1472.93Z"/><path class="cls-57" d="M2739.24,1465.13s-22.86,13.31-27.56,31.38c-2.14,8.21,12.35,14.72,12.35,14.72-3.21,20.51-22.33,40.36-22.33,40.36s8.23,1.63,17,13.54c5.07,6.87,21-6.69,20.75-9.23-2.6-27.58,31.29-55.72,22.3-75.58S2739.24,1465.13,2739.24,1465.13Z"/><path class="cls-62" d="M2744.9,1472.93a47.05,47.05,0,0,0-12.34-14.34c-7.94-5.89,4.36-28.85,7.39-27.93s7.45,17,12.8,25.15,19.94,21,14.81,40.75-24.37,34.63-24.37,34.63-4.52-7.63-4.09-11.19,11.27-8.3,11.27-12.6-5.89-1.75-8-3.08S2753,1491.35,2744.9,1472.93Z"/><path class="cls-90" d="M2489.1,1935.78l115.48-144.47c35.78-7.63,158.52-62.39,158.52-62.39s68.55,14.36,33.4,70.94c-23.47,37.76-170.76,42.35-177.46,41.47s-129.66,113.16-129.66,113.16Z"/><path class="cls-67" d="M2709.76,1713.32l-.53,20.4,10.45-7.71,1.82,23.18a214.89,214.89,0,0,0,30.41,8.69c47.57,9,64.23-14.59,64.23-14.59s3.74-115.63-61.21-182.06c-19.2-19.63-39.06-19.89-49.8-16.35-4.48,1.49-3.14,31.67-3.14,31.67S2752.07,1656.36,2709.76,1713.32Z"/><path class="cls-91" d="M2710.47,1544.21h.66a82.81,82.81,0,0,1,18.28,2.13c8.22,1.88,18.4,12,18.4,12l4.84-9.49s-7-6.63-20.25-8a57.51,57.51,0,0,0-12.13.33l-12.55-7.37-5.3,12.26Z"/><polygon class="cls-14" points="2720.23 1746.09 2818.51 1694.18 2852.33 1760.18 2754.05 1812.09 2720.23 1746.09"/><path class="cls-92" d="M2812.22,1706.85l26.5,51.7Z"/><rect class="cls-93" x="2823.96" y="1703.65" width="3.02" height="58.09" transform="translate(-479.26 1479.2) rotate(-27.13)"/><path class="cls-92" d="M2797.72,1714.43l26.49,51.7Z"/><rect class="cls-93" x="2809.45" y="1711.23" width="3.02" height="58.09" transform="translate(-484.33 1473.53) rotate(-27.13)"/><path class="cls-92" d="M2783.21,1722l26.49,51.7Z"/><rect class="cls-93" x="2794.94" y="1718.82" width="3.02" height="58.09" transform="translate(-489.38 1467.7) rotate(-27.13)"/><path class="cls-92" d="M2768.71,1729.59l26.49,51.7Z"/><rect class="cls-93" x="2780.44" y="1726.39" width="3.02" height="58.09" transform="translate(-494.43 1461.92) rotate(-27.13)"/><path class="cls-92" d="M2754.2,1737.17l26.49,51.69Z"/><rect class="cls-93" x="2765.93" y="1733.97" width="3.02" height="58.09" transform="translate(-499.49 1456.2) rotate(-27.13)"/><path class="cls-92" d="M2739.69,1744.75l26.49,51.69Z"/><rect class="cls-93" x="2751.43" y="1741.55" width="3.02" height="58.09" transform="translate(-504.53 1450.32) rotate(-27.13)"/><path class="cls-57" d="M2752,1564.48s65,64.45,63.81,69c-9.73,37.75-44,85.39-44,85.39s6.23,7.47,9.36,10.23,21.4,3.73.49,7.11c-18.77,3-24.11-13.16-21.41-20.8,4.45-12.6,23.93-62.66,25.66-72.85.44-2.61-80.73-47.83-73.83-74.66C2720.08,1536.75,2752,1564.48,2752,1564.48Z"/><polygon class="cls-57" points="2501.12 1752.52 2505.95 1773.31 2488.71 1787.02 2488.71 1764.47 2501.12 1752.52"/><polygon class="cls-57" points="2502.06 1919.92 2503.89 1941.46 2489.38 1954.85 2489.1 1936.14 2502.06 1919.92"/><path class="cls-14" d="M938.89,2076.65c-.15,1.17,2,7.83,6.62,10.93s14.92,3.54,14.92,3.54l1.77,13.78s-11.15-2.79-17.79-9.5-8.2-10-8.2-10Z"/><path class="cls-14" d="M966.11,2094.35s9.52-1.74,12-8.91-2.26-11-2.26-11l8.27,9.91s.85,3.68-6.9,10-13.29,10.55-13.29,10.55Z"/><path class="cls-63" d="M1356.36,2713c0,5.64-155.64,10.21-347.63,10.21S661.1,2718.64,661.1,2713s155.64-10.21,347.63-10.21S1356.36,2707.36,1356.36,2713Z"/><polygon class="cls-57" points="1042.42 2193.04 994.94 2193.04 994.94 2212.19 1038.3 2221.53 1042.42 2193.04"/><path class="cls-94" d="M1134.28,2687.69l5.1-178.82,24.3-205.28s-11.94-48.55,38,10.37-25.51,198.31-23.64,205.93c2.87,11.72-18.15,170.63-18.15,170.63Z"/><path class="cls-59" d="M1158.46,2694.48l-17.48-1.07-14.22,9.18s-18.16,4-23,8,56.09-1.08,56.09-1.08Z"/><polygon class="cls-57" points="1140.5 2688.38 1158.7 2690.39 1158.35 2696.41 1140.98 2693.41 1140.5 2688.38"/><path class="cls-94" d="M1289.56,2687.69l-30-163.69,13.17-196.45s14.86-54.6-50.58-13.59c-38.66,24.24-4.48,181.24-3.41,215.09,1,32.51,45.2,161.47,45.2,161.47Z"/><path class="cls-59" d="M1286.16,2694.48l-17.48-1.07-14.22,9.18s-18.16,4-23,8,56.09-1.08,56.09-1.08Z"/><polygon class="cls-57" points="1268.36 2690.03 1285.39 2688.15 1286.05 2696.41 1268.68 2693.41 1268.36 2690.03"/><path class="cls-14" d="M1035.91,2185.79l43.44-8.39,84-83.05,24,43.86s-71.17,62.37-83,69.37-46.6,20.23-78,15.9c-20.53-2.82,4.66.5,4.66.5Z"/><path class="cls-57" d="M1181.05,1996.71s-16.35,25.94-11.49,47c2.21,9.59,20.59,8.51,20.59,8.51,7.71,22.8-1.3,53.45-1.3,53.45s9.33-2.73,24.76,4.8c8.89,4.34,18-18.14,16.38-20.63-17.48-26.94,2.25-74-17.64-89.63S1181.05,1996.71,1181.05,1996.71Z"/><path class="cls-62" d="M1191.05,2001.69s-.53-9.68-13.81-9.43c-11.45.22-26.17-25.58-12.41-33.45,16-9.12,27.81,8.42,37.39,19.26,11.42,12.92,16.46,13.67,23.16,15.71,5.14,1.56,14.69,3.79,16.72,14.43,1.19,6.23-5.56,13.22-8.08,16.61a13,13,0,0,1,9,8c2.17,5.92-20,27.28-20,27.28s-11.2-3.08-12.67-7,7.13-14.58,4.83-19-7.73-.8-9.92,1.15c-.91.81-4.74-2.5-4-10.39.21-2.33,4.12-6.59,4.12-6.59s-8.36-.5-12.27-5.2C1187.81,2006.8,1191.05,2001.69,1191.05,2001.69Z"/><path class="cls-14" d="M1269.55,2222c-3.84-39.06.12-103.29-1.77-113.64s-34-48.2-86.09-26.68c-5.44,2.25-9.2,4.2-15.18,10.07-14.41,14.13-4.85,98.09-5.91,144.2s-2.89,90.35-2.89,90.35l18.67,18.36,14.61-31.24,23.07,35.81,62.11-22.93S1273.38,2261.05,1269.55,2222Z"/><polygon class="cls-95" points="1209 2085.44 1204.11 2101.92 1216.56 2288.66 1193.58 2286.65 1199.59 2102.62 1193.58 2087.43 1209 2085.44"/><path class="cls-57" d="M1363.55,2324.45s17-5.34,7.71-26.24c-4.88-11-17.83-17.08-17.83-17.08s-40.44-68.8-59.12-92.37c-8.42-10.62-28.33,20-18.14,21.12s56.91,71.63,64.72,90.93c3.66,9.08.16,18.11,4.79,18.82,6.29.95,2.44-20.2,2.44-20.2S1354.86,2315.5,1363.55,2324.45Z"/><path class="cls-14" d="M1298.83,2239.16l-33.68-40.54-26.87-94.28,27.14-1.39s29.26,74.13,36.76,85.63,24,42.64,24,42.64Z"/><path class="cls-94" d="M1031,2687.69l-22.92-198.59-6.48-185.51s11.93-48.55-38,10.37,7.69,178.54,5.82,186.16c-2.87,11.71,36,190.4,36,190.4Z"/><path class="cls-59" d="M1006.81,2694.48l17.49-1.07,14.22,9.18s18.16,4,23,8-56.09-1.08-56.09-1.08Z"/><polygon class="cls-57" points="1024.77 2688.38 1006.58 2690.39 1006.92 2696.41 1024.3 2693.41 1024.77 2688.38"/><path class="cls-94" d="M875.72,2687.69l16.22-174.57.58-185.57S877.67,2273,943.1,2314c38.66,24.24-9.27,170.36-10.35,204.21-1,32.51-31.44,172.35-31.44,172.35Z"/><path class="cls-59" d="M879.11,2694.48l17.49-1.07,14.22,9.18s18.16,4,23,8-56.09-1.08-56.09-1.08Z"/><polygon class="cls-57" points="896.92 2690.03 879.88 2688.15 879.23 2696.41 896.6 2693.41 896.92 2690.03"/><path class="cls-67" d="M1109.9,2112.18l-36.44,15L985.25,2082l-1.17,50s66.3,32.79,80,33.59,37.73-19.74,37.73-19.74Z"/><path class="cls-67" d="M895.73,2222c3.83-39.06-.12-103.29,1.76-113.64s34-48.2,86.1-26.68c5.44,2.25,9.2,4.2,15.18,10.07,14.4,14.13,4.84,98.09,5.91,144.2s2.89,90.35,2.89,90.35l-23.53,8-9.75-20.85-12.09,18.76-73.09-5.88S891.89,2261.05,895.73,2222Z"/><path class="cls-57" d="M955.67,1978.64s23.55,19.65,25.42,41.21c.86,9.79-17,14.43-17,14.43-.31,24.07,17.7,50.46,17.7,50.46s-.73,1.92-13.08,13.83c-7.12,6.87-31.69-13.36-30.93-16.22,8.32-31-25-69.75-10.84-90.7S955.67,1978.64,955.67,1978.64Z"/><path class="cls-62" d="M947.69,1986.46s-4.74-4,8-7.82c11-3.32,1.59-33.4-13.93-36.64-18-3.76-32.37,5.46-37.91,27.7-4.16,16.74,14.5,15.81,8.76,19.81-4.41,3.07-12.81,8.14-11.46,18.89.79,6.29,9.36,10.86,12.81,13.3a13.06,13.06,0,0,0-6.12,10.45c-.24,6.3,27.48,19.78,27.48,19.78s9.7-6.38,9.9-10.54-11.27-11.67-10.44-16.59,7.11-3.14,9.79-2c1.11.49,3.74-3.84.61-11.12-.92-2.15-5.95-5-5.95-5s7.79-3.06,10.07-8.73C952.34,1990.32,947.69,1986.46,947.69,1986.46Z"/><polygon class="cls-14" points="956.27 2085.44 961.16 2101.92 948.34 2207.29 976.07 2207.29 965.68 2102.62 971.7 2087.43 956.27 2085.44"/><path class="cls-57" d="M801.73,2324.45s-17-5.34-7.71-26.24c4.87-11,17.83-17.08,17.83-17.08s40.44-68.8,59.12-92.37c8.42-10.62,28.32,20,18.14,21.12s-56.92,71.63-64.72,90.93c-3.67,9.08-.16,18.11-4.8,18.82-6.29.95-2.43-20.2-2.43-20.2S810.42,2315.5,801.73,2324.45Z"/><path class="cls-67" d="M875.72,2228l24.4-29.38,27.07-95c2.42-8.5-2.27-23.4-9.42-18.21h0A44.38,44.38,0,0,0,888.42,2115c-7.82,25.92-20.34,65.91-25.33,73.56-7.49,11.51-16.16,16.39-16.16,16.39Z"/><path class="cls-57" d="M1107.08,2113.34s55.67-34.75,69.44-34.75,22.58,4.86,19.82,6.85-20,5.83-23.54,8.91,11.18,5.31,6.47,8.6-27.14,2.51-32.8,8.1-43.65,30.63-43.65,30.63Z"/><path class="cls-89" d="M1157.37,2068.1l-2-165.77-4.09-200.43s-9.16-83.31-52.61-15.93,19.3,224.81,18.41,232.9c-1.39,12.45,14.32,155.59,14.32,155.59Z"/><path class="cls-59" d="M991.4,2093.4l18.18.55,13.84,10.83s18.39,5.86,23,10.49-57.89-6.44-57.89-6.44Z"/><path class="cls-90" d="M1017.06,2088.66l34.47-162.15,64.82-169.85s2.62-88.12-67.79-49.75c-6.46,3.52-35.38,219.62-38,227.32-4.08,11.85-20.21,154.94-20.21,154.94Z"/><polygon class="cls-57" points="1010.55 2088.79 991.55 2089.14 991.34 2095.4 1009.59 2093.95 1010.55 2088.79"/><path class="cls-59" d="M1133.39,2078.35l17.85-3.46,15.88,7.53s19.23,1.68,24.74,5.18S1134,2094,1134,2094Z"/><polygon class="cls-57" points="1151.05 2069.64 1132.59 2074.17 1133.76 2080.32 1151.24 2074.89 1151.05 2069.64"/><path class="cls-57" d="M1289.32,1354s14.89,11-1.32,28.37c-8.5,9.1-23.28,10.73-23.28,10.73s-50.21,101.69-76.52,118.49c-11.86,7.58-112.25,13.68-112.25,13.68l.72-39.35s91.55,1.91,101.91,4.31,66.3-104.39,80.49-120.7c6.67-7.67,6.29-17.72,11.08-16.84,6.5,1.19-4.45,20.65-4.45,20.65S1277.76,1359.81,1289.32,1354Z"/><path class="cls-96" d="M1241.16,1395.45l-61.49,89.76-109.22-2.55,1.23,50.48s105.72-2.81,118.72-8.68,34.73-48,49.8-77.28c9.83-19.13,18.67-40.49,18.67-40.49Z"/><polygon class="cls-14" points="1246.47 1386.9 1241.16 1395.45 1258.87 1406.69 1263.28 1396.47 1246.47 1386.9"/><path class="cls-57" d="M1040.08,1397.06s24.23,20.66,25.93,43.07c.78,10.18-17.77,14.8-17.77,14.8-.6,25,17.81,52.58,17.81,52.58s-10.1.17-23.06,12.4c-7.47,7-23.44-12.41-22.61-15.38,9-32.11-25.13-72.7-10.23-94.29S1040.08,1397.06,1040.08,1397.06Z"/><path class="cls-62" d="M1031.71,1405.09s4.76,4.2,15.43-1.07,12.92-23.25-.5-32.78c-3.68-2.61-18.07-7.89-26.2,12.29,0,0-10.36-5.71-16.71,1.45-9,10.21-1.92,23.66-1.92,23.66s-14.7,1.31-13.68,18a20.65,20.65,0,0,0,8.14,14.63,13.54,13.54,0,0,0-6.47,10.78c-.32,6.53,9,13.29,15.35,10.74,0,0,2.3,3.82,3.83,5.8,4.67,6.05,9.13,4.3,9.13,4.3s10.14-6.52,10.4-10.82-11.58-12.25-10.66-17.35,7.42-3.18,10.19-1.92c1.14.51,5.34-5.78,2.17-13.37-.93-2.25-4.87-4.91-4.87-4.91,0-2.37,6.71-5,7.89-7.47C1036.89,1409.32,1031.71,1405.09,1031.71,1405.09Z"/><path class="cls-14" d="M1045.22,1714.94l3,3.72s22.6,22,40.38,24.73c57.64,8.69,60.09-36.93,60.09-36.93s-54.57-187-64.33-203.92c-16.51-28.64-49.54-19.26-61.73-13.22-12,5.94-21,15.57-27.36,24.6a29.25,29.25,0,0,0,2.85,37.12C1024.32,1578.12,1081.44,1662.11,1045.22,1714.94Z"/><path class="cls-96" d="M1022.66,1489.32l64.68,107-35.91-115.27a55.07,55.07,0,0,1,14.29.38,67.61,67.61,0,0,1,21.22,6.74c18.65,9.56,32.06,94.27,47.38,139.65s30.79,88.66,30.79,88.66l-22,33.42-15-35.9-11.79,42.62-80.16-4.11s-5.9-64.94-14.17-104.83S990,1545.38,988.63,1534.53,993.89,1497.55,1022.66,1489.32Z"/><polygon class="cls-97" points="1036.79 1483.97 1045.47 1493.54 1053.54 1540.42 1087.35 1596.36 1073.43 1536.98 1049.41 1492.28 1049.3 1482.89 1036.79 1483.97"/><rect class="cls-14" x="1104.38" y="1370.64" width="493.74" height="254.42" transform="translate(2702.49 2995.7) rotate(180)"/><path class="cls-98" d="M1564.08,1614.42a5.25,5.25,0,0,0,5.24-5.24V1405.65a5.25,5.25,0,1,0-10.49,0v203.53A5.25,5.25,0,0,0,1564.08,1614.42Z"/><path class="cls-98" d="M1139.62,1587.78h444.1a5.25,5.25,0,0,0,0-10.5h-444.1a5.25,5.25,0,0,0,0,10.5Z"/><path class="cls-99" d="M1529,1563.14a5.26,5.26,0,0,0,4.64-7.7L1507,1505a5.24,5.24,0,0,0-4.22-2.78,5.29,5.29,0,0,0-4.62,2.09L1470.71,1541l-46.77-66a5.28,5.28,0,0,0-4.2-2.21h-.08a5.24,5.24,0,0,0-4.18,2.08l-48.12,63.59-47.82-93.15a5.28,5.28,0,0,0-4.58-2.85,5,5,0,0,0-4.67,2.7l-55.75,100.11-55.3-152a5.25,5.25,0,0,0-9.86,3.59l59.22,162.83a5.25,5.25,0,0,0,9.52.76l56.56-101.58,47.15,91.84a5.25,5.25,0,0,0,8.86.78l48.83-64.53,46.8,66a5.23,5.23,0,0,0,4.21,2.21,5.33,5.33,0,0,0,4.27-2.1l26.83-35.85,22.76,43.13A5.23,5.23,0,0,0,1529,1563.14Z"/><path class="cls-100" d="M1181.38,1433.06a5.25,5.25,0,0,0,4.95-3.5l10.73-30.38,27.82,17.65a5.25,5.25,0,0,0,5.62-8.86l-33.38-21.18a5.25,5.25,0,0,0-7.76,2.68l-12.92,36.6a5.25,5.25,0,0,0,4.94,7Z"/><path class="cls-98" d="M1408.68,1427.37h-39.91a5.25,5.25,0,0,1,0-10.49h39.91a5.25,5.25,0,0,1,0,10.49Z"/><path class="cls-98" d="M1398.12,1461.56H1438a5.25,5.25,0,0,0,0-10.5h-39.9a5.25,5.25,0,0,0,0,10.5Z"/><path class="cls-98" d="M1487.6,1493.11h39.9a5.25,5.25,0,1,0,0-10.49h-39.9a5.25,5.25,0,0,0,0,10.49Z"/><path class="cls-98" d="M1131.33,1468.57h39.9a5.25,5.25,0,1,0,0-10.49h-39.9a5.25,5.25,0,1,0,0,10.49Z"/><path class="cls-98" d="M1131.33,1493.11h39.9a5.25,5.25,0,1,0,0-10.49h-39.9a5.25,5.25,0,1,0,0,10.49Z"/><path class="cls-98" d="M1131.33,1517.65h39.9a5.25,5.25,0,1,0,0-10.49h-39.9a5.25,5.25,0,1,0,0,10.49Z"/><path class="cls-98" d="M1131.33,1542.19h39.9a5.25,5.25,0,1,0,0-10.49h-39.9a5.25,5.25,0,1,0,0,10.49Z"/><path class="cls-57" d="M1247.47,1619.14s-.8,18.5-24.25,14.76c-12.31-2-21.92-13.31-21.92-13.31s-112.38,15.2-141,2.78c-12.92-5.6-38.09-57.11-38.09-57.11l-.56-35.81s47.18,63.06,51,73,123.62-3.37,145.08-.71c10.09,1.24,18.21-4.69,20.16-.23,2.64,6-19.61,7.85-19.61,7.85S1236.16,1612.82,1247.47,1619.14Z"/><path class="cls-66" d="M1186.15,1602.39l-108.79-.82-71.73-103.72s-8.7,5-14.84,21.79c-11,30,47.88,105.26,60,112.76s59.21,2,91.92-1.9c21.36-2.53,44-7.14,44-7.14Z"/><polygon class="cls-14" points="1196.21 1602.02 1186.15 1602.39 1186.73 1623.36 1197.67 1621.3 1196.21 1602.02"/><path class="cls-101" d="M1229.65,1362.59a4.37,4.37,0,0,1-2-.49,4.32,4.32,0,0,1-1.81-5.82l6.08-11.57a4.3,4.3,0,0,1,5.72-1.86l8.28,4.09,4.58-9.25a4.29,4.29,0,0,1,2.48-2.17,4.37,4.37,0,0,1,3.29.22l9.87,4.89,4.89-9.87a4.3,4.3,0,0,1,5.77-2l14,6.92a4.31,4.31,0,0,1-3.82,7.72l-10.12-5-4.89,9.87a4.3,4.3,0,0,1-5.77,2l-9.88-4.89-4.57,9.25a4.31,4.31,0,0,1-5.77,2l-8.37-4.14-4.12,7.86A4.32,4.32,0,0,1,1229.65,1362.59Z"/><path class="cls-102" d="M1107.31,1362.59a4.3,4.3,0,0,1-3.81-2.3l-4.13-7.86-8.36,4.14a4.29,4.29,0,0,1-5.77-2l-4.58-9.25-9.88,4.89a4.3,4.3,0,0,1-5.77-2l-4.88-9.87-10.13,5a4.31,4.31,0,0,1-3.82-7.72l14-6.92a4.3,4.3,0,0,1,5.77,2l4.89,9.87,9.88-4.89a4.31,4.31,0,0,1,5.77,2l4.58,9.25,8.27-4.09a4.3,4.3,0,0,1,5.72,1.86l6.08,11.57a4.3,4.3,0,0,1-3.81,6.31Z"/><path class="cls-103" d="M1183.86,1319.68a4.3,4.3,0,0,1-3.65-6.58l4.68-7.53-7.81-5.12a4.31,4.31,0,0,1-1.24-6l5.66-8.63-9.22-6a4.32,4.32,0,0,1-1.24-6l6-9.21-9.44-6.19a4.31,4.31,0,0,1,4.72-7.21l13.05,8.55a4.33,4.33,0,0,1,1.24,6l-6,9.21,9.21,6a4.3,4.3,0,0,1,1.24,6l-5.65,8.63,7.72,5.06a4.31,4.31,0,0,1,1.29,5.88l-6.9,11.1A4.31,4.31,0,0,1,1183.86,1319.68Z"/><path class="cls-104" d="M1221.17,1323a4.31,4.31,0,0,1-3-7.35l35.77-35.77a4.31,4.31,0,1,1,6.09,6.09l-35.77,35.77A4.29,4.29,0,0,1,1221.17,1323Z"/><path class="cls-105" d="M1137.83,1321a4.29,4.29,0,0,1-3-1.26l-30.39-30.39a4.31,4.31,0,1,1,6.09-6.09l30.39,30.39a4.31,4.31,0,0,1-3,7.35Z"/><path class="cls-57" d="M3388,2658.83s-71.84-11-107.91-25.09c-15.94-6.22-42.55-69.12-51.83-82.29-5.43-7.71-48.59-17.8-51-16.78-4.77,2,19.52,12.21,19.52,12.21-2.21,1.36-10.54.31-11.39,6.94-.53,4.16,19.25-6.23,32.37,8.12s17.55,67.65,49.21,93.5c42,34.29,137,38.84,137,38.84Z"/><path class="cls-89" d="M3477.81,2871.32l-16,170.57,106.4,120.56,29,11.63s-63.46-94.7-81.49-148.34,70.83-136.52,62.76-159.82S3473.25,2816.39,3477.81,2871.32Z"/><polygon class="cls-57" points="3581.73 3175.98 3597.25 3174.06 3587.85 3159.63 3568.2 3162.45 3581.73 3175.98"/><path class="cls-59" d="M3539,3193.89l58.5-2.37-.9-18s-20.77-4.66-33.4,1.55S3539.76,3184,3539,3193.89Z"/><path class="cls-59" d="M3684.48,3192.38,3743,3190l-.89-18s-20.78-4.66-33.41,1.55S3685.28,3182.47,3684.48,3192.38Z"/><path class="cls-57" d="M3326.08,2597.85s7.8,40.26,16.09,45c7.62,4.35,21.28-9,23.85-4.54s9.7,33.72,9.7,33.72,9.1-19.73,19.42-21.22c4.61-.66,9-.81,9-.81s-40.14-70.76-63-64.74S3326.08,2597.85,3326.08,2597.85Z"/><path class="cls-90" d="M3713.72,3163.54s-101.47-126.47-113.49-148.13c-7.13-12.84-82.73-156.41-82.73-156.41h86.26s26.4,58.42,45.65,139.4c1,4.38,74.24,145.65,74.24,145.65Z"/><polygon class="cls-57" points="3742.08 3172.02 3722.63 3171.3 3715.26 3159.37 3723.65 3144.05 3742.08 3172.02"/><path class="cls-14" d="M3407.43,2646.73s47.55-10.68,136.27,96.32c40.69,49.08,60.06,115.95,60.06,115.95l-128.39,9.36c-15.08-73.15-115.23-178.2-105.85-204.13C3373.46,2653.35,3398.06,2644,3407.43,2646.73Z"/><path class="cls-57" d="M3388.64,2695.32l54.25,46.48,79,61.34a24.86,24.86,0,0,0,5.11,22.16c8.8,10.47,29,12,31.28,9.41s-2.06-7.2-2.06-7.2-19.52-10.8-22.21-27.15c-1-6-47.64-46.21-64-66.75-13.8-17.28-44.71-57.13-66.92-67.62a16.26,16.26,0,0,0-18.5,3.27h0A16.33,16.33,0,0,0,3388.64,2695.32Z"/><path class="cls-62" d="M3378.72,2612.21S3368,2613,3366,2609s-4.68-16.39-9.58-15.59-3.34,4.23-6.23,5-25.35,15.52-46,6.08-9.67-32.72,4.12-34.6,11.44,12.6,11.44,12.6a94.89,94.89,0,0,1,35-8C3373.79,2574.12,3378.72,2612.21,3378.72,2612.21Z"/><path class="cls-45" d="M3826.65,3199.35a7.66,7.66,0,0,1-8.07-2.74l-620.64-863.35c-2.28-3.17-1.26-7.55,2.29-9.79s8.26-1.48,10.54,1.69l620.64,863.35c2.28,3.17,1.25,7.56-2.29,9.79A8.36,8.36,0,0,1,3826.65,3199.35Z"/><path class="cls-45" d="M3928.06,3174.51a7.68,7.68,0,0,1-8.08-2.73l-620.64-863.36c-2.28-3.17-1.25-7.55,2.29-9.79s8.26-1.48,10.54,1.69l620.64,863.36c2.28,3.17,1.25,7.55-2.29,9.79A8.39,8.39,0,0,1,3928.06,3174.51Z"/><path class="cls-45" d="M3362.22,2387.39l-101,24.75c-4.11,1-8.19-1.21-9.11-5s1.67-7.6,5.79-8.61l101.05-24.75c4.11-1,8.18,1.22,9.1,5S3366.33,2386.38,3362.22,2387.39Z"/><path class="cls-45" d="M3429.65,2482.21,3328.6,2507c-4.12,1-8.19-1.21-9.11-5s1.67-7.6,5.78-8.61l101.06-24.75c4.11-1,8.18,1.22,9.1,5S3433.76,2481.2,3429.65,2482.21Z"/><path class="cls-45" d="M3497.07,2577l-97.46,23.87c-4.12,1-8.19-1.21-9.11-5s1.67-7.6,5.78-8.6l97.47-23.88c4.11-1,8.19,1.22,9.11,5S3501.19,2576,3497.07,2577Z"/><path class="cls-45" d="M3564.5,2671.85l-95.75,23.45c-4.11,1-8.19-1.21-9.11-5s1.67-7.6,5.79-8.6l95.75-23.46c4.11-1,8.19,1.22,9.1,5S3568.61,2670.84,3564.5,2671.85Z"/><path class="cls-45" d="M3631.93,2766.67,3533,2790.9c-4.11,1-8.19-1.22-9.1-5s1.67-7.6,5.78-8.61l98.9-24.23c4.11-1,8.18,1.22,9.1,5S3636,2765.66,3631.93,2766.67Z"/><path class="cls-45" d="M3699.36,2861.49l-98.28,24.08c-4.11,1-8.18-1.22-9.1-5s1.67-7.6,5.78-8.61l98.27-24.07c4.12-1,8.19,1.21,9.11,5S3703.47,2860.49,3699.36,2861.49Z"/><path class="cls-45" d="M3766.78,2956.31l-97.64,23.92c-4.11,1-8.19-1.21-9.11-5s1.67-7.6,5.79-8.61l97.64-23.91c4.11-1,8.19,1.21,9.11,5S3770.9,2955.31,3766.78,2956.31Z"/><path class="cls-45" d="M3835.61,3050.79l-96.08,23.54c-4.11,1-8.19-1.22-9.11-5s1.67-7.6,5.79-8.61l96.08-23.54c4.11-1,8.19,1.22,9.11,5S3839.73,3049.78,3835.61,3050.79Z"/><path class="cls-57" d="M2565.8,1409s18.44.38,17.27-19.88c-.62-10.62-10.85-19.48-10.85-19.48s6.88-10.6-2.35-35.78c-4.16-11.35-11.68-1.81-10.52,7.19,1.47,11.47-6.92,23.08-6.6,41.56.15,8.69-6.61,15.29-2.4,17.21,5.72,2.61,9.9-16.3,9.9-16.3S2560.76,1398.92,2565.8,1409Z"/><path class="cls-96" d="M2555.81,1355.6l-24.92-74.6-52.8-99.37,23.95-28.14s52.78,89.92,58.91,100.72,14.57,39.32,15.59,67.46c.58,16,0,35.62,0,35.62Z"/><polygon class="cls-14" points="2554.36 1364.17 2555.81 1355.6 2576.54 1357.29 2573.32 1366.52 2554.36 1364.17"/><path class="cls-89" d="M2423.47,1725.77l-2-165.76-4.1-200.44s-9.15-83.31-52.61-15.92,19.31,224.81,18.41,232.9c-1.38,12.45,14.33,155.59,14.33,155.59Z"/><path class="cls-59" d="M2257.51,1751.07l18.18.56,13.83,10.83s18.4,5.86,23,10.48-57.9-6.43-57.9-6.43Z"/><path class="cls-90" d="M2283.16,1746.34l34.47-162.16,64.82-169.84s7.4-105.5-63-67.13c-6.46,3.52-40.15,237-42.81,244.7-4.08,11.84-20.2,154.93-20.2,154.93Z"/><polygon class="cls-57" points="2276.66 1746.46 2257.65 1746.82 2257.44 1753.08 2275.69 1751.63 2276.66 1746.46"/><path class="cls-59" d="M2399.49,1736l17.86-3.46,15.87,7.53s19.57,7.47,25.08,11-58.23.65-58.23.65Z"/><polygon class="cls-57" points="2417.16 1727.32 2398.7 1731.84 2399.86 1737.99 2417.35 1732.57 2417.16 1727.32"/><path class="cls-57" d="M2541.36,1077.7s5,31.44-8.18,49.61c-6,8.25-23.13-.26-23.13-.26-16.64,18.63-20.53,51.58-20.53,51.58s-7.8-6.41-25.6-5.51c-10.25.53-9.79-24.65-7.23-26.37,27.65-18.61,28-71.64,53.34-78.42S2541.36,1077.7,2541.36,1077.7Z"/><path class="cls-62" d="M2529.78,1078.39s.9,6.29,12.44,9.19,24.91-9.33,20.87-25.28c-1.1-4.37-8.64-17.73-27.91-7.64,0,0-4.19-11.06-13.66-9.72-13.51,1.91-16.8,16.77-16.8,16.77s-12-8.53-22.11,4.86a20.66,20.66,0,0,0-3.29,16.41,13.55,13.55,0,0,0-11.91,4c-4.48,4.77-1.79,15.93,4.72,18.14,0,0-.72,4.39-.84,6.89-.37,7.63,4.16,9.19,4.16,9.19s12,1.62,14.93-1.5-.87-16.83,3.13-20.11,7.71,2.39,9,5.14c.54,1.14,7.81-.93,10.32-8.77.75-2.31-.53-6.89-.53-6.89,1.56-1.79,8.35.55,10.85-.58C2531,1085,2529.78,1078.39,2529.78,1078.39Z"/><path class="cls-14" d="M2339.18,1323.05l-.1,4.8s2.91,31.44,14.71,45c38.25,44,69.69,10.84,69.69,10.84s79.69-177.75,83.23-197c6-32.51-25.23-46.78-38.43-50.09-13-3.26-26.08-1.76-36.78,1a29.26,29.26,0,0,0-21.9,30.11C2412,1205.33,2401,1306.31,2339.18,1323.05Z"/><path class="cls-96" d="M2468.28,1136.65l-20.14,123.43,47.38-111a54.79,54.79,0,0,1,10.63,9.56,67.18,67.18,0,0,1,11.79,18.88c8,19.37-36.71,92.56-54.47,137s-34,87.47-34,87.47L2391,1413.18l11.87-37-36.62,24.81-58.36-55.1s37.61-53.27,57.18-89,41.94-98.7,48-107.82S2441,1124.26,2468.28,1136.65Z"/><polygon class="cls-106" points="2482.51 1141.74 2482.91 1154.65 2458.66 1195.57 2448.14 1260.08 2476.03 1205.85 2486.73 1156.25 2492.74 1149.03 2482.51 1141.74"/><path class="cls-57" d="M2557,1400s-13.14,13-27.85-5.6c-7.71-9.78-7.08-24.64-7.08-24.64s-50.26-36.14-62.89-64.69c-5.7-12.88,26.51-16.16,22.57-6.28s50.5,52.46,64.47,69c6.57,7.75,16.57,8.89,15,13.5-2.16,6.24-19.73-7.53-19.73-7.53S2552.93,1387.63,2557,1400Z"/><path class="cls-90" d="M2523.25,1346.06l-51.44-94.89-16.67-112.27s-9.8-2.22-25.68,5.95c-28.4,14.61-8.83,103.69-5,117.43s21.13,55.67,47.8,75c17.42,12.62,37.19,24.59,37.19,24.59Z"/><polygon class="cls-14" points="2530.89 1352.61 2523.25 1346.06 2509.45 1361.87 2518.89 1367.77 2530.89 1352.61"/></g></svg>
