<svg class="operating-system-svg" xmlns="http://www.w3.org/2000/svg" viewBox="0 0 500 500"><defs><style>.operating-system-svg .cls-1,.operating-system-svg .cls-9{fill:#4fa4d1;}.operating-system-svg .cls-10,.operating-system-svg .cls-14,.operating-system-svg .cls-2,.operating-system-svg .cls-21,.operating-system-svg .cls-25,.operating-system-svg .cls-4{fill:#fff;}.operating-system-svg .cls-2{opacity:0.7;}.operating-system-svg .cls-20,.operating-system-svg .cls-23,.operating-system-svg .cls-3,.operating-system-svg .cls-5{fill:#263238;}.operating-system-svg .cls-14,.operating-system-svg .cls-15,.operating-system-svg .cls-20,.operating-system-svg .cls-22,.operating-system-svg .cls-25,.operating-system-svg .cls-4,.operating-system-svg .cls-5,.operating-system-svg .cls-6,.operating-system-svg .cls-7,.operating-system-svg .cls-9{stroke:#263238;}.operating-system-svg .cls-22,.operating-system-svg .cls-25,.operating-system-svg .cls-4,.operating-system-svg .cls-5,.operating-system-svg .cls-7{stroke-linecap:round;stroke-linejoin:round;}.operating-system-svg .cls-14,.operating-system-svg .cls-15,.operating-system-svg .cls-19,.operating-system-svg .cls-20,.operating-system-svg .cls-22,.operating-system-svg .cls-4,.operating-system-svg .cls-5,.operating-system-svg .cls-6,.operating-system-svg .cls-7,.operating-system-svg .cls-9{stroke-width:0.97px;}.operating-system-svg .cls-19,.operating-system-svg .cls-6,.operating-system-svg .cls-7,.operating-system-svg .cls-8{fill:none;}.operating-system-svg .cls-14,.operating-system-svg .cls-15,.operating-system-svg .cls-19,.operating-system-svg .cls-20,.operating-system-svg .cls-23,.operating-system-svg .cls-6,.operating-system-svg .cls-8,.operating-system-svg .cls-9{stroke-miterlimit:10;}.operating-system-svg .cls-8{stroke:#b2b2b2;stroke-width:0.97px;}.operating-system-svg .cls-11{fill:#525252;}.operating-system-svg .cls-12{fill:#757575;}.operating-system-svg .cls-13{fill:#ccc;}.operating-system-svg .cls-15{fill:#696969;}.operating-system-svg .cls-16{fill:#c4c4c4;}.operating-system-svg .cls-17{fill:#969696;}.operating-system-svg .cls-18,.operating-system-svg .cls-21{opacity:0.3;}.operating-system-svg .cls-19{stroke:#fff;}.operating-system-svg .cls-22{fill:#a8a8a8;}.operating-system-svg .cls-23{stroke:#595959;stroke-width:0.48px;}.operating-system-svg .cls-24{fill:#3c464c;}.operating-system-svg .cls-25{stroke-width:1.06px;}</style></defs><g id="Background_Simple" data-name="Background Simple"><path class="cls-1" d="M451.2,100.8c-24-42.58-74.12-64.4-124.17-67.31-55.48-3.23-106,14.31-143,52.9-14.65,15.3-27.88,31.81-44.13,45.73-27.95,23.94-63,43.56-87.4,70.64-30.85,34.24-35.09,88.06.2,120.9,12.24,11.39,27.4,19.72,43,26.66,38.45,17.06,80.48,26.3,122.74,31.35,47.64,5.7,97.32,6,142.25-9.75,99.15-34.79,125.6-148.64,104-236.54A136.58,136.58,0,0,0,451.2,100.8Z"/><path class="cls-2" d="M451.2,100.8c-24-42.58-74.12-64.4-124.17-67.31-55.48-3.23-106,14.31-143,52.9-14.65,15.3-27.88,31.81-44.13,45.73-27.95,23.94-63,43.56-87.4,70.64-30.85,34.24-35.09,88.06.2,120.9,12.24,11.39,27.4,19.72,43,26.66,38.45,17.06,80.48,26.3,122.74,31.35,47.64,5.7,97.32,6,142.25-9.75,99.15-34.79,125.6-148.64,104-236.54A136.58,136.58,0,0,0,451.2,100.8Z"/></g><g id="Plants"><ellipse class="cls-3" cx="63.85" cy="410.45" rx="29.47" ry="8.21"/><path class="cls-4" d="M56.29,411.07H70.73A17.37,17.37,0,0,0,88,395.26L92.37,347H34.65L39,395.26A17.37,17.37,0,0,0,56.29,411.07Z"/><path class="cls-4" d="M56.29,411.07H70.73A17.37,17.37,0,0,0,88,395.26L92.37,347H34.65L39,395.26A17.37,17.37,0,0,0,56.29,411.07Z"/><path class="cls-5" d="M39,395.26l-.23-2.55,26.55,4.83L43,404.81A17.27,17.27,0,0,1,39,395.26Z"/><polygon class="cls-5" points="88.02 395.28 61.71 384.01 90.57 366.98 88.02 395.28"/><polygon class="cls-5" points="68.92 365.97 37.5 378.67 35.08 351.8 68.92 365.97"/><path class="cls-4" d="M35.33,347c0,2.14,12.59,3.88,28.11,3.88s28.12-1.74,28.12-3.88S79,343.16,63.44,343.16,35.33,344.89,35.33,347Z"/><path class="cls-5" d="M63.44,350.92c-10.93,0-20.39-.86-25-2.12,2.74-1.75,14-3.06,27.47-3.06,10.93,0,20.4.87,25,2.12C88.18,349.61,76.92,350.92,63.44,350.92Z"/><path class="cls-3" d="M93,294.6a1,1,0,0,0-1.32-.36L72.12,305.58l10.15-20.1a1,1,0,1,0-1.73-.87l-9.09,18C72,286.33,70,267.18,69,257.05c-.35-3.45-.6-5.94-.6-6.77a1,1,0,1,0-1.93,0c0,.93.24,3.33.61,7,1.09,10.84,3.24,32.07,2.3,48.82L51.67,285a1,1,0,0,0-1.48,1.25l18.86,22.4,0,0,0,.05.07,0A59.82,59.82,0,0,1,67,321.62L53,308a1,1,0,0,0-1.35,1.39l14.68,14.2A63.58,63.58,0,0,0,64,331.69l-.06,0-17.24-9.2a1,1,0,0,0-.91,1.71l17.68,9.43.12,0A58.25,58.25,0,0,0,62.64,347a1,1,0,0,0,1,.92h0a1,1,0,0,0,.92-1A56.09,56.09,0,0,1,65.67,333l15.16-7.58a1,1,0,0,0,.44-1.3,1,1,0,0,0-1.3-.43l-13.76,6.88a61.23,61.23,0,0,1,2.13-6.86c1.5-4,2.37-9.34,2.81-15.34l21.52-12.45A1,1,0,0,0,93,294.6Z"/><path class="cls-1" d="M69.22,279s10.83-9.48,12.19-18.28-3.39-14.89-2-19,5.41-10.82,2-16.24S61.1,207.22,61.1,207.22A32.07,32.07,0,0,1,57,219.4c-3.38,5.41-1.35,12.18,0,16.92s-7.44,10.15-2.7,16.92,4.73,7.44,4.73,12.86S61.78,277.6,69.22,279Z"/><path class="cls-1" d="M57.72,293.17s2-5.42-1.35-10.15-6.77-2-8.13-7.45-3.38-8.8-6.76-11.5-3.39-2-6.09-4.06-3.39-4.74-6.09-6.77-8.8-2.71-8.8-2.71,2,5.42,2,8.8-2.71,8.8,1.35,12.86,7.45,2.71,10.15,7.44S40.8,292.49,57.72,293.17Z"/><path class="cls-1" d="M59.07,314.15s.68-8.8-7.44-12.18-9.48-12.86-18.27-14.89-15.57,0-16.25,5.41a118.68,118.68,0,0,0-.67,12.18s4.06-6.76,8.12-6.09,6.77,0,11.5,7.45S52.31,318.21,59.07,314.15Z"/><path class="cls-1" d="M55.69,329c-2-.68-6.09-13.54-18.27-14.89S9,318.21,9,318.21s7.45,4.06,18.28,9.47S55.69,329,55.69,329Z"/><path class="cls-1" d="M70.58,328.36S76,315.5,84.79,312.79s11.51,1.36,16.24,4.74,8.12,5.42,8.12,5.42-5.41-2-10.82,3.38-12.86,6.77-19.63,6.09S70.58,328.36,70.58,328.36Z"/><path class="cls-1" d="M83.44,299.94s0-3.39,4.06-10.83,4.73-14.89,12.86-16.25,8.79-2,13.53-5.41,16.24,2.71,19,5.41a34.79,34.79,0,0,1,4.06,4.74s-8.8-.67-12.18,3.39-10.83,7.44-14.21,8.79-6.77-1.35-10.15,4.06S94.27,301.29,83.44,299.94Z"/><path class="cls-1" d="M78,290.46s-6.09-10.15-3.38-15.56,8.12-7.45,7.44-10.83-3.38-7.45,0-12.18,6.09-2.71,10.15-5.42a122.58,122.58,0,0,0,10.16-8.12s1.35,14.21,0,21S97,266.77,97,272.19s-2.7,8.8-6.09,12.86S78,290.46,78,290.46Z"/><line class="cls-6" x1="28.88" y1="261.6" x2="25.64" y2="258.06"/><line class="cls-6" x1="57.72" y1="293.17" x2="33.52" y2="266.68"/><path class="cls-7" d="M65.78,220.36a33.38,33.38,0,0,0-1.13-4"/><path class="cls-7" d="M69.22,279s.55-31.91-2.22-51.75"/><line class="cls-6" x1="97.18" y1="251.29" x2="99.3" y2="246.96"/><line class="cls-6" x1="78.02" y1="290.46" x2="94.14" y2="257.5"/><path class="cls-6" d="M120.46,274a18.52,18.52,0,0,1,2.38-.16h4.71"/><path class="cls-6" d="M83.44,299.94c1.06.16,7.11-7.91,17.54-16a61.5,61.5,0,0,1,12.58-7.86"/><path class="cls-6" d="M18.65,296.32a8.41,8.41,0,0,0-1.42,4.12"/><path class="cls-6" d="M59.07,314.15s-5.85-.93-16.28-11.7c-9.69-10-17.64-11.29-21.41-9"/><path class="cls-6" d="M96.32,319c1.62.27,3.07.67,4.32,1"/><path class="cls-6" d="M70.58,328.36s2.15,1,10.55-5.39a19.61,19.61,0,0,1,9.7-4.18"/><path class="cls-6" d="M18.92,318.77c-2.91,0-4.71.16-4.71.16"/><path class="cls-6" d="M55.69,329s-1.13-1.36-14.24-6.41a62,62,0,0,0-17.8-3.69"/></g><g id="Graphics"><path class="cls-8" d="M470.05,316H458.39v-3.18a.35.35,0,0,0-.35-.35H445.31a.35.35,0,0,0-.35.35V316H441.3a.73.73,0,0,0-.73.72v17.91h30.2V316.74A.72.72,0,0,0,470.05,316Z"/><path class="cls-8" d="M470.05,343.62H458.39v-3.18a.35.35,0,0,0-.35-.35H445.31a.35.35,0,0,0-.35.35v3.18H441.3a.73.73,0,0,0-.73.72v17.91h30.2V344.34A.72.72,0,0,0,470.05,343.62Z"/><path class="cls-8" d="M470.05,371.21H458.39V368a.35.35,0,0,0-.35-.35H445.31a.35.35,0,0,0-.35.35v3.17H441.3a.73.73,0,0,0-.73.73v17.91h30.2V371.94A.73.73,0,0,0,470.05,371.21Z"/><path class="cls-8" d="M414.59,79.2l-4.19-.29a25.69,25.69,0,0,0-.41-4.23l4.06-1.09a1.19,1.19,0,0,0,.85-1.46l-.51-1.89a1.2,1.2,0,0,0-1.46-.85l-4.05,1.09a26,26,0,0,0-1.77-3.86l3.48-2.35a1.19,1.19,0,0,0,.32-1.66L409.82,61a1.2,1.2,0,0,0-1.66-.32L404.67,63a26.54,26.54,0,0,0-2.92-3.08l2.53-3.35a1.2,1.2,0,0,0-.23-1.68l-1.57-1.18a1.19,1.19,0,0,0-1.67.24l-2.53,3.35a25.78,25.78,0,0,0-3.76-2l1.29-4a1.19,1.19,0,0,0-.77-1.51l-1.86-.61a1.2,1.2,0,0,0-1.51.77l-1.29,4a24.42,24.42,0,0,0-3.75-.59V49.21a1.19,1.19,0,0,0-1.2-1.19h-1.95a1.19,1.19,0,0,0-1.2,1.19v4.21a26.35,26.35,0,0,0-4.19.69l-1.36-4a1.21,1.21,0,0,0-1.52-.74l-1.86.64a1.2,1.2,0,0,0-.74,1.52l1.37,4a25.84,25.84,0,0,0-3.73,2l-2.59-3.31A1.19,1.19,0,0,0,366,54l-1.54,1.21a1.2,1.2,0,0,0-.21,1.68l2.59,3.31A25.71,25.71,0,0,0,364,63.37l-3.53-2.29a1.19,1.19,0,0,0-1.65.35l-1.07,1.64a1.2,1.2,0,0,0,.35,1.66L361.58,67a25.09,25.09,0,0,0-1.69,3.9l-4.07-1a1.19,1.19,0,0,0-1.45.87l-.48,1.9a1.2,1.2,0,0,0,.87,1.45l4.08,1a25.7,25.7,0,0,0-.34,4.14s0,.06,0,.09l-4.19.36a1.21,1.21,0,0,0-1.09,1.3l.17,2a1.2,1.2,0,0,0,1.3,1.09l4.19-.37A24.29,24.29,0,0,0,360,87.8l-3.84,1.71a1.21,1.21,0,0,0-.61,1.58l.8,1.79a1.2,1.2,0,0,0,1.58.61l3.83-1.71a27.06,27.06,0,0,0,2.35,3.53L361,98.18a1.19,1.19,0,0,0-.06,1.69l1.33,1.43a1.2,1.2,0,0,0,1.7.06L367,98.5a25,25,0,0,0,3.37,2.58l-2,3.71a1.2,1.2,0,0,0,.5,1.62l1.73.92a1.18,1.18,0,0,0,1.61-.5l2-3.7a26.45,26.45,0,0,0,4,1.34l-.66,4.15a1.21,1.21,0,0,0,1,1.37l1.93.31a1.2,1.2,0,0,0,1.37-1l.66-4.15c.63,0,1.26.07,1.9.07.79,0,1.57,0,2.34-.11l.73,4.14a1.2,1.2,0,0,0,1.39,1l1.93-.34a1.19,1.19,0,0,0,1-1.38l-.73-4.13a26,26,0,0,0,4-1.43l2,3.68a1.2,1.2,0,0,0,1.63.46l1.71-1a1.19,1.19,0,0,0,.47-1.62l-2-3.67a26.33,26.33,0,0,0,3.31-2.65l3.13,2.81a1.19,1.19,0,0,0,1.69-.09l1.31-1.45a1.2,1.2,0,0,0-.09-1.69L405.13,95a27.13,27.13,0,0,0,2.28-3.58L411.27,93a1.2,1.2,0,0,0,1.57-.63l.77-1.81A1.2,1.2,0,0,0,413,89l-3.86-1.64a24.74,24.74,0,0,0,1-4.12l4.19.29a1.2,1.2,0,0,0,1.28-1.11l.13-2A1.19,1.19,0,0,0,414.59,79.2ZM384.46,93.84A14.57,14.57,0,1,1,399,79.27,14.57,14.57,0,0,1,384.46,93.84Z"/><path class="cls-8" d="M452.25,100.33l-2.75-.2a17.92,17.92,0,0,0-.27-2.76l2.66-.72a.79.79,0,0,0,.56-1l-.34-1.24a.79.79,0,0,0-1-.55l-2.65.71a17.55,17.55,0,0,0-1.16-2.53l2.28-1.54a.79.79,0,0,0,.22-1.09l-.72-1.06a.78.78,0,0,0-1.09-.21l-2.28,1.54a17.49,17.49,0,0,0-1.92-2l1.66-2.2a.78.78,0,0,0-.16-1.1l-1-.77a.79.79,0,0,0-1.1.15L441.55,86a18,18,0,0,0-2.46-1.29l.85-2.61a.79.79,0,0,0-.51-1l-1.22-.39a.77.77,0,0,0-1,.5l-.86,2.62a16.26,16.26,0,0,0-2.45-.39V80.68a.78.78,0,0,0-.78-.79h-1.29a.78.78,0,0,0-.78.79v2.75a17.73,17.73,0,0,0-2.75.45l-.89-2.6a.78.78,0,0,0-1-.48l-1.21.42a.78.78,0,0,0-.49,1l.9,2.6a18.06,18.06,0,0,0-2.45,1.33L421.49,84a.78.78,0,0,0-1.1-.13l-1,.79a.78.78,0,0,0-.14,1.1l1.7,2.17a17.38,17.38,0,0,0-1.88,2l-2.31-1.5a.79.79,0,0,0-1.09.23l-.7,1.08a.78.78,0,0,0,.24,1.08l2.3,1.5a18.71,18.71,0,0,0-1.11,2.55l-2.67-.66a.78.78,0,0,0-1,.57L412.46,96A.78.78,0,0,0,413,97l2.67.67a17.32,17.32,0,0,0-.21,2.72v.05l-2.75.24a.78.78,0,0,0-.71.85l.11,1.28a.78.78,0,0,0,.85.71l2.75-.24a17.23,17.23,0,0,0,.69,2.7l-2.51,1.12a.77.77,0,0,0-.4,1l.52,1.17a.78.78,0,0,0,1,.4l2.51-1.12a17.29,17.29,0,0,0,1.54,2.32l-2,1.88a.79.79,0,0,0,0,1.11l.87.94a.79.79,0,0,0,1.11,0l2-1.87a18.19,18.19,0,0,0,2.21,1.69L422,117.1a.78.78,0,0,0,.32,1.06l1.13.6a.78.78,0,0,0,1.06-.32l1.3-2.43a15.62,15.62,0,0,0,2.63.88l-.43,2.72a.8.8,0,0,0,.66.9l1.26.2a.79.79,0,0,0,.9-.65l.43-2.73c.41,0,.83,0,1.24,0s1,0,1.54-.07l.48,2.71a.78.78,0,0,0,.91.64l1.26-.22a.79.79,0,0,0,.64-.91l-.48-2.71a16.61,16.61,0,0,0,2.62-.93l1.34,2.41a.77.77,0,0,0,1.06.3L443,118a.79.79,0,0,0,.3-1.07l-1.33-2.4a16.54,16.54,0,0,0,2.17-1.74l2.05,1.85a.79.79,0,0,0,1.11-.06l.86-1a.79.79,0,0,0-.06-1.11l-2-1.84a18,18,0,0,0,1.5-2.35l2.53,1.08a.79.79,0,0,0,1-.42l.5-1.18a.79.79,0,0,0-.41-1l-2.54-1.07a16.46,16.46,0,0,0,.65-2.71l2.75.19a.78.78,0,0,0,.83-.73l.09-1.28A.77.77,0,0,0,452.25,100.33Zm-19.76,9.59a9.55,9.55,0,1,1,9.55-9.54A9.54,9.54,0,0,1,432.49,109.92Z"/><path class="cls-8" d="M168.16,71.85H87.3a3,3,0,0,1-3-3h0a3,3,0,0,1,3-3h80.86a3,3,0,0,1,3,3h0A3,3,0,0,1,168.16,71.85Z"/><circle class="cls-8" cx="158.01" cy="68.85" r="3.05"/><path class="cls-8" d="M168.16,61.47H87.3a3,3,0,0,1-3-3h0a3,3,0,0,1,3-3h80.86a3,3,0,0,1,3,3h0A3,3,0,0,1,168.16,61.47Z"/><circle class="cls-8" cx="120.16" cy="58.48" r="3.05"/></g><g id="Device"><ellipse class="cls-3" cx="259.25" cy="415.44" rx="165.93" ry="13.21"/><rect class="cls-9" x="92.53" y="106.48" width="337.17" height="194.47"/><rect class="cls-10" x="103.77" y="226.72" width="108.7" height="45.94"/><rect class="cls-3" x="103.77" y="224.13" width="108.7" height="7.76"/><path class="cls-1" d="M108.52,228.07a1.22,1.22,0,1,1-1.21-1.21A1.21,1.21,0,0,1,108.52,228.07Z"/><circle class="cls-1" cx="112.76" cy="228.07" r="1.21"/><circle class="cls-1" cx="118.22" cy="228.07" r="1.21"/><rect class="cls-1" x="116.71" y="237.6" width="23.29" height="9.71"/><rect class="cls-11" x="109.59" y="244.4" width="37.53" height="19.41"/><rect class="cls-12" x="116.71" y="244.4" width="23.29" height="6.47"/><rect class="cls-3" x="116.71" y="254.1" width="23.29" height="9.71"/><rect class="cls-1" x="116.71" y="259.6" width="23.29" height="9.71"/><rect class="cls-13" x="154.24" y="253.45" width="23.94" height="8.41"/><rect class="cls-1" x="182.06" y="253.45" width="23.94" height="8.41"/><path class="cls-3" d="M155.5,240.59c1.05,0,1.46.66,1.46,1.66V243c0,1.08-.49,1.62-1.57,1.62h-.85v2.8h-.44v-6.81Zm-.11,3.6c.78,0,1.13-.35,1.13-1.18v-.79c0-.74-.26-1.22-1-1.22h-1v3.19Z"/><path class="cls-3" d="M159.05,240.59c1,0,1.46.58,1.46,1.54v.59a1.49,1.49,0,0,0,0,2.8v1.06a1.52,1.52,0,0,0,.17.82h-.47a1.58,1.58,0,0,1-.15-.82v-1.07c0-.9-.49-1.16-1.27-1.16h-.71v3.05h-.45v-6.81ZM158.8,244c.8,0,1.26-.23,1.26-1.14v-.64c0-.73-.28-1.17-1-1.17h-1V244Z"/><path class="cls-3" d="M161.83,240.59v6.81h-.44v-6.81Z"/><path class="cls-3" d="M163,247.4h-.41v-6.81h.58l2.05,5.75v-5.75h.4v6.81h-.49L163,241.33Z"/><path class="cls-3" d="M167.56,247.4V241h-1.38v-.41h3.22V241H168v6.4Z"/><path class="cls-3" d="M172.25,243.74v.41H170.4V247h2.23v.41H170v-6.81h2.68V241H170.4v2.74Z"/><path class="cls-3" d="M174.78,240.59c1,0,1.46.58,1.46,1.54v.59a1.49,1.49,0,0,0,0,2.8v1.06a1.52,1.52,0,0,0,.17.82h-.47a1.58,1.58,0,0,1-.15-.82v-1.07c0-.9-.49-1.16-1.27-1.16h-.71v3.05h-.45v-6.81Zm-.25,3.36c.8,0,1.26-.23,1.26-1.14v-.64c0-.73-.28-1.17-1-1.17h-1V244Z"/><rect class="cls-3" x="237.72" y="117.7" width="140.1" height="87.04"/><rect class="cls-10" x="237.72" y="117.7" width="140.1" height="80.81"/><rect class="cls-13" x="237.72" y="117.7" width="32.75" height="80.81"/><rect class="cls-3" x="237.72" y="115.9" width="140.1" height="22.67"/><path class="cls-1" d="M244.74,120.19a1.35,1.35,0,1,1-1.35-1.35A1.35,1.35,0,0,1,244.74,120.19Z"/><circle class="cls-1" cx="249.46" cy="120.19" r="1.35"/><path class="cls-1" d="M256.87,120.19a1.35,1.35,0,1,1-1.35-1.35A1.34,1.34,0,0,1,256.87,120.19Z"/><path class="cls-14" d="M369.81,130.9H340.39a3.9,3.9,0,0,1-3.9-3.9h0a3.91,3.91,0,0,1,3.9-3.9h29.42a3.91,3.91,0,0,1,3.9,3.9h0A3.9,3.9,0,0,1,369.81,130.9Z"/><rect class="cls-15" x="320.29" y="123.7" width="8.4" height="6"/><rect class="cls-15" x="303.56" y="123.7" width="8.4" height="6"/><rect class="cls-15" x="241.05" y="123.7" width="8.4" height="6"/><rect class="cls-15" x="250.06" y="123.7" width="8.4" height="6"/><path class="cls-13" d="M276.41,147.09H289a.77.77,0,0,1,.77.77v7.93a0,0,0,0,1,0,0H275.64a0,0,0,0,1,0,0v-7.93A.77.77,0,0,1,276.41,147.09Z"/><rect class="cls-13" x="277.69" y="145.44" width="6.27" height="3.27" rx="0.38"/><path class="cls-13" d="M306.57,147.09h12.56a.77.77,0,0,1,.77.77v7.93a0,0,0,0,1,0,0H305.8a0,0,0,0,1,0,0v-7.93A.77.77,0,0,1,306.57,147.09Z"/><rect class="cls-13" x="307.85" y="145.44" width="6.27" height="3.27" rx="0.38"/><path class="cls-13" d="M336.73,147.09h12.56a.77.77,0,0,1,.77.77v7.93a0,0,0,0,1,0,0H336a0,0,0,0,1,0,0v-7.93A.77.77,0,0,1,336.73,147.09Z"/><rect class="cls-13" x="338.01" y="145.44" width="6.27" height="3.27" rx="0.38"/><path class="cls-13" d="M276.41,166.9H289a.77.77,0,0,1,.77.77v7.93a0,0,0,0,1,0,0H275.64a0,0,0,0,1,0,0v-7.93A.77.77,0,0,1,276.41,166.9Z"/><rect class="cls-13" x="277.69" y="165.25" width="6.27" height="3.27" rx="0.38"/><path class="cls-13" d="M306.57,166.9h12.56a.77.77,0,0,1,.77.77v7.93a0,0,0,0,1,0,0H305.8a0,0,0,0,1,0,0v-7.93A.77.77,0,0,1,306.57,166.9Z"/><rect class="cls-13" x="307.85" y="165.25" width="6.27" height="3.27" rx="0.38"/><path class="cls-16" d="M369.13,201.88H344.37a.68.68,0,0,1-.68-.67h0a.68.68,0,0,1,.68-.68h24.76a.68.68,0,0,1,.68.68h0A.68.68,0,0,1,369.13,201.88Z"/><path class="cls-3" d="M349.82,201.19a.89.89,0,1,1-.88-.88A.88.88,0,0,1,349.82,201.19Z"/><rect class="cls-3" x="274.73" y="226.22" width="138.13" height="66.62"/><rect class="cls-10" x="274.73" y="226.22" width="138.13" height="60.48"/><rect class="cls-3" x="274.73" y="224.45" width="138.13" height="22.35"/><path class="cls-1" d="M281.66,228.68a1.33,1.33,0,1,1-1.33-1.33A1.34,1.34,0,0,1,281.66,228.68Z"/><path class="cls-1" d="M287.64,228.68a1.33,1.33,0,1,1-1.33-1.33A1.34,1.34,0,0,1,287.64,228.68Z"/><path class="cls-1" d="M293.62,228.68a1.33,1.33,0,1,1-1.33-1.33A1.34,1.34,0,0,1,293.62,228.68Z"/><rect class="cls-14" x="372.12" y="231.55" width="36.69" height="7.69" rx="3.58"/><rect class="cls-15" x="278.02" y="232.14" width="8.29" height="5.92"/><rect class="cls-15" x="286.9" y="232.14" width="8.29" height="5.92"/><rect class="cls-15" x="296.67" y="232.14" width="15.56" height="5.92"/><polygon class="cls-17" points="311.23 281.19 299.23 281.19 301.68 277.59 301.68 274.31 308.78 274.31 308.78 277.71 311.23 281.19"/><rect class="cls-13" x="287.81" y="248.88" width="34.83" height="27.98"/><rect class="cls-3" x="287.81" y="248.88" width="34.83" height="23"/><rect class="cls-1" x="289.89" y="251.36" width="30.68" height="18.03"/><rect class="cls-17" x="336.1" y="259.23" width="67.47" height="2.66" rx="1.24"/><path class="cls-13" d="M395.58,260.57a3.55,3.55,0,1,0-3.55,3.55A3.55,3.55,0,0,0,395.58,260.57Z"/><rect class="cls-3" x="103.77" y="115.19" width="97.24" height="100.84"/><rect class="cls-10" x="103.77" y="115.19" width="97.24" height="8.07"/><path class="cls-1" d="M112.71,130.06h-2.83a.7.7,0,1,1,0-1.4h2.83a.7.7,0,1,1,0,1.4Zm.71,2.55a.7.7,0,0,0-.71-.7h-2.83a.7.7,0,1,0,0,1.4h2.83A.7.7,0,0,0,113.42,132.61Zm0,3.24a.71.71,0,0,0-.71-.7h-2.83a.71.71,0,1,0,0,1.41h2.83A.71.71,0,0,0,113.42,135.85Zm0,3.25a.7.7,0,0,0-.71-.7h-2.83a.7.7,0,1,0,0,1.4h2.83A.7.7,0,0,0,113.42,139.1Zm0,3.25a.71.71,0,0,0-.71-.71h-2.83a.71.71,0,1,0,0,1.41h2.83A.71.71,0,0,0,113.42,142.35Zm0,3.24a.7.7,0,0,0-.71-.7h-2.83a.7.7,0,1,0,0,1.4h2.83A.7.7,0,0,0,113.42,145.59Zm0,3.25a.7.7,0,0,0-.71-.7h-2.83a.7.7,0,1,0,0,1.4h2.83A.71.71,0,0,0,113.42,148.84Zm0,3.24a.7.7,0,0,0-.71-.7h-2.83a.7.7,0,1,0,0,1.4h2.83A.7.7,0,0,0,113.42,152.08ZM124,129.36a.7.7,0,0,0-.7-.7h-7.46a.7.7,0,0,0,0,1.4h7.46A.7.7,0,0,0,124,129.36Zm0,3.25a.7.7,0,0,0-.7-.7h-7.46a.7.7,0,1,0,0,1.4h7.46A.7.7,0,0,0,124,132.61Zm0,3.24a.7.7,0,0,0-.7-.7h-7.46a.71.71,0,0,0,0,1.41h7.46A.7.7,0,0,0,124,135.85Zm0,3.25a.7.7,0,0,0-.7-.7h-7.46a.7.7,0,1,0,0,1.4h7.46A.7.7,0,0,0,124,139.1Zm0,3.25a.7.7,0,0,0-.7-.71h-7.46a.71.71,0,0,0,0,1.41h7.46A.7.7,0,0,0,124,142.35Zm8.92,3.24a.7.7,0,0,0-.7-.7h-7.45a.7.7,0,0,0,0,1.4h7.45A.7.7,0,0,0,133,145.59Zm0,3.25a.7.7,0,0,0-.7-.7h-7.45a.7.7,0,0,0,0,1.4h7.45A.7.7,0,0,0,133,148.84Zm0,3.24a.7.7,0,0,0-.7-.7h-7.45a.7.7,0,0,0,0,1.4h7.45A.7.7,0,0,0,133,152.08Zm-5.64-22.72a.81.81,0,1,0-.81.82A.81.81,0,0,0,127.32,129.36Zm2.43,0a.81.81,0,1,0-.81.82A.81.81,0,0,0,129.75,129.36Zm2.44,0a.82.82,0,1,0-.81.82A.82.82,0,0,0,132.19,129.36Zm2.43,0a.81.81,0,1,0-.81.82A.81.81,0,0,0,134.62,129.36Zm2.43,0a.81.81,0,0,0-1.62,0,.81.81,0,1,0,1.62,0Zm2.44,0a.81.81,0,1,0-.81.82A.81.81,0,0,0,139.49,129.36Zm-12.17,6.49a.81.81,0,1,0-.81.82A.81.81,0,0,0,127.32,135.85Zm2.43,0a.81.81,0,1,0-.81.82A.81.81,0,0,0,129.75,135.85Zm2.44,0a.82.82,0,1,0-.81.82A.82.82,0,0,0,132.19,135.85Zm2.43,0a.81.81,0,1,0-.81.82A.81.81,0,0,0,134.62,135.85Zm2.43,0a.81.81,0,0,0-1.62,0,.81.81,0,1,0,1.62,0Zm2.44,0a.81.81,0,1,0-.81.82A.81.81,0,0,0,139.49,135.85Zm-3.86,9.34a.81.81,0,1,0-.81.81A.82.82,0,0,0,135.63,145.19Zm2.44,0a.81.81,0,1,0-.81.81A.82.82,0,0,0,138.07,145.19Zm2.43,0a.81.81,0,1,0-.81.81A.82.82,0,0,0,140.5,145.19Zm2.44,0a.82.82,0,1,0-.81.81A.82.82,0,0,0,142.94,145.19Zm2.43,0a.81.81,0,1,0-.81.81A.82.82,0,0,0,145.37,145.19Zm2.43,0a.81.81,0,1,0-.81.81A.82.82,0,0,0,147.8,145.19Zm-12.17,6.69a.81.81,0,1,0-.81.81A.81.81,0,0,0,135.63,151.88Zm2.44,0a.81.81,0,1,0-.81.81A.81.81,0,0,0,138.07,151.88Zm2.43,0a.81.81,0,1,0-.81.81A.81.81,0,0,0,140.5,151.88Zm2.44,0a.82.82,0,1,0-.81.81A.81.81,0,0,0,142.94,151.88Zm2.43,0a.81.81,0,1,0-.81.81A.81.81,0,0,0,145.37,151.88Zm2.43,0a.81.81,0,1,0-.81.81A.81.81,0,0,0,147.8,151.88Z"/><path class="cls-1" d="M112.71,156h-2.83a.7.7,0,1,1,0-1.4h2.83a.7.7,0,1,1,0,1.4Zm.71,2.55a.7.7,0,0,0-.71-.7h-2.83a.7.7,0,1,0,0,1.4h2.83A.7.7,0,0,0,113.42,158.58Zm0,3.24a.71.71,0,0,0-.71-.7h-2.83a.7.7,0,1,0,0,1.4h2.83A.7.7,0,0,0,113.42,161.82Zm0,3.25a.7.7,0,0,0-.71-.7h-2.83a.7.7,0,1,0,0,1.4h2.83A.7.7,0,0,0,113.42,165.07Zm0,3.24a.71.71,0,0,0-.71-.7h-2.83a.7.7,0,1,0,0,1.4h2.83A.7.7,0,0,0,113.42,168.31Zm0,3.25a.7.7,0,0,0-.71-.7h-2.83a.7.7,0,1,0,0,1.4h2.83A.7.7,0,0,0,113.42,171.56Zm0,3.25a.71.71,0,0,0-.71-.71h-2.83a.71.71,0,1,0,0,1.41h2.83A.71.71,0,0,0,113.42,174.81Zm0,3.24a.7.7,0,0,0-.71-.7h-2.83a.7.7,0,1,0,0,1.4h2.83A.7.7,0,0,0,113.42,178.05ZM124,155.33a.7.7,0,0,0-.7-.7h-7.46a.7.7,0,0,0,0,1.4h7.46A.7.7,0,0,0,124,155.33Zm0,3.25a.7.7,0,0,0-.7-.7h-7.46a.7.7,0,0,0,0,1.4h7.46A.7.7,0,0,0,124,158.58Zm0,3.24a.7.7,0,0,0-.7-.7h-7.46a.7.7,0,0,0,0,1.4h7.46A.7.7,0,0,0,124,161.82Zm0,3.25a.7.7,0,0,0-.7-.7h-7.46a.7.7,0,0,0,0,1.4h7.46A.7.7,0,0,0,124,165.07Zm0,3.24a.7.7,0,0,0-.7-.7h-7.46a.7.7,0,0,0,0,1.4h7.46A.7.7,0,0,0,124,168.31Zm8.92,3.25a.7.7,0,0,0-.7-.7h-7.45a.7.7,0,0,0,0,1.4h7.45A.7.7,0,0,0,133,171.56Zm0,3.25a.7.7,0,0,0-.7-.71h-7.45a.71.71,0,0,0,0,1.41h7.45A.7.7,0,0,0,133,174.81Zm0,3.24a.7.7,0,0,0-.7-.7h-7.45a.7.7,0,0,0,0,1.4h7.45A.7.7,0,0,0,133,178.05Zm-5.64-22.72a.81.81,0,1,0-.81.81A.81.81,0,0,0,127.32,155.33Zm2.43,0a.81.81,0,1,0-.81.81A.81.81,0,0,0,129.75,155.33Zm2.44,0a.82.82,0,1,0-.81.81A.82.82,0,0,0,132.19,155.33Zm2.43,0a.81.81,0,1,0-.81.81A.81.81,0,0,0,134.62,155.33Zm2.43,0a.81.81,0,1,0-.81.81A.81.81,0,0,0,137.05,155.33Zm2.44,0a.81.81,0,1,0-.81.81A.81.81,0,0,0,139.49,155.33Zm-12.17,6.49a.81.81,0,1,0-.81.82A.81.81,0,0,0,127.32,161.82Zm2.43,0a.81.81,0,1,0-.81.82A.81.81,0,0,0,129.75,161.82Zm2.44,0a.82.82,0,1,0-.81.82A.82.82,0,0,0,132.19,161.82Zm2.43,0a.81.81,0,1,0-.81.82A.81.81,0,0,0,134.62,161.82Zm2.43,0a.81.81,0,0,0-1.62,0,.81.81,0,1,0,1.62,0Zm2.44,0a.81.81,0,1,0-.81.82A.81.81,0,0,0,139.49,161.82Zm-3.86,9.33a.81.81,0,0,0-1.62,0,.81.81,0,1,0,1.62,0Zm2.44,0a.81.81,0,1,0-.81.82A.81.81,0,0,0,138.07,171.15Zm2.43,0a.81.81,0,1,0-.81.82A.81.81,0,0,0,140.5,171.15Zm2.44,0a.82.82,0,1,0-.81.82A.82.82,0,0,0,142.94,171.15Zm2.43,0a.81.81,0,1,0-.81.82A.81.81,0,0,0,145.37,171.15Zm2.43,0a.81.81,0,1,0-1.62,0,.81.81,0,1,0,1.62,0Zm-12.17,6.7a.81.81,0,1,0-.81.81A.81.81,0,0,0,135.63,177.85Zm2.44,0a.81.81,0,1,0-.81.81A.81.81,0,0,0,138.07,177.85Zm2.43,0a.81.81,0,1,0-.81.81A.81.81,0,0,0,140.5,177.85Zm2.44,0a.82.82,0,1,0-.81.81A.81.81,0,0,0,142.94,177.85Zm2.43,0a.81.81,0,1,0-.81.81A.81.81,0,0,0,145.37,177.85Zm2.43,0a.81.81,0,1,0-.81.81A.81.81,0,0,0,147.8,177.85Z"/><path class="cls-1" d="M112.71,182.63h-2.83a.7.7,0,1,1,0-1.4h2.83a.7.7,0,1,1,0,1.4Zm.71,2.54a.71.71,0,0,0-.71-.7h-2.83a.7.7,0,1,0,0,1.4h2.83A.7.7,0,0,0,113.42,185.17Zm0,3.25a.7.7,0,0,0-.71-.7h-2.83a.7.7,0,1,0,0,1.4h2.83A.7.7,0,0,0,113.42,188.42Zm0,3.25a.71.71,0,0,0-.71-.71h-2.83a.71.71,0,1,0,0,1.41h2.83A.71.71,0,0,0,113.42,191.67Zm0,3.24a.7.7,0,0,0-.71-.7h-2.83a.7.7,0,1,0,0,1.4h2.83A.7.7,0,0,0,113.42,194.91Zm0,3.25a.7.7,0,0,0-.71-.7h-2.83a.7.7,0,1,0,0,1.4h2.83A.71.71,0,0,0,113.42,198.16Zm0,3.24a.7.7,0,0,0-.71-.7h-2.83a.7.7,0,1,0,0,1.4h2.83A.7.7,0,0,0,113.42,201.4Zm0,3.25a.7.7,0,0,0-.71-.7h-2.83a.7.7,0,1,0,0,1.4h2.83A.71.71,0,0,0,113.42,204.65ZM124,181.93a.7.7,0,0,0-.7-.7h-7.46a.7.7,0,0,0,0,1.4h7.46A.7.7,0,0,0,124,181.93Zm0,3.24a.7.7,0,0,0-.7-.7h-7.46a.7.7,0,0,0,0,1.4h7.46A.7.7,0,0,0,124,185.17Zm0,3.25a.7.7,0,0,0-.7-.7h-7.46a.7.7,0,0,0,0,1.4h7.46A.7.7,0,0,0,124,188.42Zm0,3.25a.7.7,0,0,0-.7-.71h-7.46a.71.71,0,0,0,0,1.41h7.46A.7.7,0,0,0,124,191.67Zm0,3.24a.7.7,0,0,0-.7-.7h-7.46a.7.7,0,0,0,0,1.4h7.46A.7.7,0,0,0,124,194.91Zm8.92,3.25a.7.7,0,0,0-.7-.7h-7.45a.7.7,0,1,0,0,1.4h7.45A.7.7,0,0,0,133,198.16Zm0,3.24a.7.7,0,0,0-.7-.7h-7.45a.7.7,0,0,0,0,1.4h7.45A.7.7,0,0,0,133,201.4Zm0,3.25a.7.7,0,0,0-.7-.7h-7.45a.7.7,0,0,0,0,1.4h7.45A.7.7,0,0,0,133,204.65Zm-5.64-22.72a.81.81,0,1,0-.81.81A.81.81,0,0,0,127.32,181.93Zm2.43,0a.81.81,0,1,0-.81.81A.81.81,0,0,0,129.75,181.93Zm2.44,0a.82.82,0,1,0-.81.81A.81.81,0,0,0,132.19,181.93Zm2.43,0a.81.81,0,1,0-.81.81A.81.81,0,0,0,134.62,181.93Zm2.43,0a.81.81,0,1,0-.81.81A.81.81,0,0,0,137.05,181.93Zm2.44,0a.81.81,0,1,0-.81.81A.81.81,0,0,0,139.49,181.93Zm-12.17,6.49a.81.81,0,1,0-.81.81A.81.81,0,0,0,127.32,188.42Zm2.43,0a.81.81,0,1,0-.81.81A.81.81,0,0,0,129.75,188.42Zm2.44,0a.82.82,0,1,0-.81.81A.81.81,0,0,0,132.19,188.42Zm2.43,0a.81.81,0,1,0-.81.81A.81.81,0,0,0,134.62,188.42Zm2.43,0a.81.81,0,1,0-.81.81A.81.81,0,0,0,137.05,188.42Zm2.44,0a.81.81,0,1,0-.81.81A.81.81,0,0,0,139.49,188.42Zm-3.86,9.33a.81.81,0,1,0-.81.81A.81.81,0,0,0,135.63,197.75Zm2.44,0a.81.81,0,1,0-.81.81A.81.81,0,0,0,138.07,197.75Zm2.43,0a.81.81,0,1,0-.81.81A.81.81,0,0,0,140.5,197.75Zm2.44,0a.82.82,0,1,0-.81.81A.81.81,0,0,0,142.94,197.75Zm2.43,0a.81.81,0,1,0-.81.81A.81.81,0,0,0,145.37,197.75Zm2.43,0a.81.81,0,1,0-.81.81A.81.81,0,0,0,147.8,197.75Zm-12.17,6.69a.81.81,0,1,0-.81.81A.81.81,0,0,0,135.63,204.44Zm2.44,0a.81.81,0,1,0-.81.81A.81.81,0,0,0,138.07,204.44Zm2.43,0a.81.81,0,1,0-.81.81A.81.81,0,0,0,140.5,204.44Zm2.44,0a.82.82,0,1,0-.81.81A.82.82,0,0,0,142.94,204.44Zm2.43,0a.81.81,0,1,0-.81.81A.81.81,0,0,0,145.37,204.44Zm2.43,0a.81.81,0,1,0-.81.81A.81.81,0,0,0,147.8,204.44Z"/><path class="cls-1" d="M156.31,130.06h-2.84a.7.7,0,1,1,0-1.4h2.84a.7.7,0,1,1,0,1.4Zm.7,2.55a.7.7,0,0,0-.7-.7h-2.84a.7.7,0,1,0,0,1.4h2.84A.7.7,0,0,0,157,132.61Zm0,3.24a.7.7,0,0,0-.7-.7h-2.84a.71.71,0,0,0,0,1.41h2.84A.7.7,0,0,0,157,135.85Zm0,3.25a.7.7,0,0,0-.7-.7h-2.84a.7.7,0,0,0,0,1.4h2.84A.7.7,0,0,0,157,139.1Zm0,3.25a.7.7,0,0,0-.7-.71h-2.84a.71.71,0,0,0,0,1.41h2.84A.7.7,0,0,0,157,142.35Zm0,3.24a.7.7,0,0,0-.7-.7h-2.84a.7.7,0,0,0,0,1.4h2.84A.7.7,0,0,0,157,145.59Zm0,3.25a.7.7,0,0,0-.7-.7h-2.84a.7.7,0,0,0,0,1.4h2.84A.7.7,0,0,0,157,148.84Zm0,3.24a.7.7,0,0,0-.7-.7h-2.84a.7.7,0,0,0,0,1.4h2.84A.7.7,0,0,0,157,152.08Zm10.63-22.72a.71.71,0,0,0-.71-.7h-7.45a.7.7,0,1,0,0,1.4h7.45A.7.7,0,0,0,167.64,129.36Zm0,3.25a.7.7,0,0,0-.71-.7h-7.45a.7.7,0,1,0,0,1.4h7.45A.7.7,0,0,0,167.64,132.61Zm0,3.24a.71.71,0,0,0-.71-.7h-7.45a.71.71,0,0,0,0,1.41h7.45A.71.71,0,0,0,167.64,135.85Zm0,3.25a.7.7,0,0,0-.71-.7h-7.45a.7.7,0,0,0,0,1.4h7.45A.7.7,0,0,0,167.64,139.1Zm0,3.25a.71.71,0,0,0-.71-.71h-7.45a.71.71,0,0,0,0,1.41h7.45A.71.71,0,0,0,167.64,142.35Zm8.92,3.24a.7.7,0,0,0-.7-.7h-7.45a.7.7,0,1,0,0,1.4h7.45A.7.7,0,0,0,176.56,145.59Zm0,3.25a.7.7,0,0,0-.7-.7h-7.45a.7.7,0,1,0,0,1.4h7.45A.7.7,0,0,0,176.56,148.84Zm0,3.24a.7.7,0,0,0-.7-.7h-7.45a.7.7,0,1,0,0,1.4h7.45A.7.7,0,0,0,176.56,152.08Zm-5.64-22.72a.82.82,0,1,0-.82.82A.82.82,0,0,0,170.92,129.36Zm2.43,0a.81.81,0,1,0-.81.82A.81.81,0,0,0,173.35,129.36Zm2.43,0a.81.81,0,1,0-.81.82A.81.81,0,0,0,175.78,129.36Zm2.44,0a.81.81,0,1,0-.81.82A.82.82,0,0,0,178.22,129.36Zm2.43,0a.81.81,0,1,0-.81.82A.81.81,0,0,0,180.65,129.36Zm2.44,0a.82.82,0,1,0-.82.82A.82.82,0,0,0,183.09,129.36Zm-12.17,6.49a.82.82,0,1,0-.82.82A.82.82,0,0,0,170.92,135.85Zm2.43,0a.81.81,0,1,0-.81.82A.81.81,0,0,0,173.35,135.85Zm2.43,0a.81.81,0,1,0-.81.82A.81.81,0,0,0,175.78,135.85Zm2.44,0a.81.81,0,1,0-.81.82A.82.82,0,0,0,178.22,135.85Zm2.43,0a.81.81,0,1,0-.81.82A.81.81,0,0,0,180.65,135.85Zm2.44,0a.82.82,0,1,0-.82.82A.82.82,0,0,0,183.09,135.85Zm-3.86,9.34a.81.81,0,1,0-.81.81A.82.82,0,0,0,179.23,145.19Zm2.44,0a.82.82,0,1,0-.82.81A.82.82,0,0,0,181.67,145.19Zm2.43,0a.81.81,0,1,0-.81.81A.82.82,0,0,0,184.1,145.19Zm2.43,0a.81.81,0,1,0-.81.81A.82.82,0,0,0,186.53,145.19Zm2.44,0a.82.82,0,1,0-.81.81A.82.82,0,0,0,189,145.19Zm2.43,0a.81.81,0,1,0-.81.81A.82.82,0,0,0,191.4,145.19Zm-12.17,6.69a.81.81,0,1,0-.81.81A.81.81,0,0,0,179.23,151.88Zm2.44,0a.82.82,0,1,0-.82.81A.82.82,0,0,0,181.67,151.88Zm2.43,0a.81.81,0,1,0-.81.81A.81.81,0,0,0,184.1,151.88Zm2.43,0a.81.81,0,1,0-.81.81A.81.81,0,0,0,186.53,151.88Zm2.44,0a.82.82,0,1,0-.81.81A.81.81,0,0,0,189,151.88Zm2.43,0a.81.81,0,1,0-.81.81A.81.81,0,0,0,191.4,151.88Z"/><path class="cls-1" d="M156.31,156.66h-2.84a.7.7,0,0,1,0-1.4h2.84a.7.7,0,1,1,0,1.4Zm.7,2.55a.7.7,0,0,0-.7-.7h-2.84a.7.7,0,0,0,0,1.4h2.84A.7.7,0,0,0,157,159.21Zm0,3.24a.7.7,0,0,0-.7-.7h-2.84a.7.7,0,0,0,0,1.4h2.84A.7.7,0,0,0,157,162.45Zm0,3.25a.7.7,0,0,0-.7-.7h-2.84a.7.7,0,0,0,0,1.4h2.84A.7.7,0,0,0,157,165.7Zm0,3.24a.7.7,0,0,0-.7-.7h-2.84a.7.7,0,1,0,0,1.4h2.84A.7.7,0,0,0,157,168.94Zm0,3.25a.7.7,0,0,0-.7-.7h-2.84a.7.7,0,1,0,0,1.4h2.84A.7.7,0,0,0,157,172.19Zm0,3.24a.7.7,0,0,0-.7-.7h-2.84a.7.7,0,1,0,0,1.4h2.84A.7.7,0,0,0,157,175.43Zm0,3.25a.7.7,0,0,0-.7-.7h-2.84a.7.7,0,1,0,0,1.4h2.84A.7.7,0,0,0,157,178.68ZM167.64,156a.7.7,0,0,0-.71-.7h-7.45a.7.7,0,0,0,0,1.4h7.45A.7.7,0,0,0,167.64,156Zm0,3.25a.7.7,0,0,0-.71-.7h-7.45a.7.7,0,0,0,0,1.4h7.45A.71.71,0,0,0,167.64,159.21Zm0,3.24a.7.7,0,0,0-.71-.7h-7.45a.7.7,0,0,0,0,1.4h7.45A.7.7,0,0,0,167.64,162.45Zm0,3.25a.7.7,0,0,0-.71-.7h-7.45a.7.7,0,0,0,0,1.4h7.45A.71.71,0,0,0,167.64,165.7Zm0,3.24a.7.7,0,0,0-.71-.7h-7.45a.7.7,0,1,0,0,1.4h7.45A.7.7,0,0,0,167.64,168.94Zm8.92,3.25a.7.7,0,0,0-.7-.7h-7.45a.7.7,0,1,0,0,1.4h7.45A.7.7,0,0,0,176.56,172.19Zm0,3.24a.7.7,0,0,0-.7-.7h-7.45a.7.7,0,1,0,0,1.4h7.45A.7.7,0,0,0,176.56,175.43Zm0,3.25a.7.7,0,0,0-.7-.7h-7.45a.7.7,0,1,0,0,1.4h7.45A.7.7,0,0,0,176.56,178.68ZM170.92,156a.82.82,0,1,0-.82.81A.82.82,0,0,0,170.92,156Zm2.43,0a.81.81,0,1,0-.81.81A.81.81,0,0,0,173.35,156Zm2.43,0a.81.81,0,1,0-.81.81A.81.81,0,0,0,175.78,156Zm2.44,0a.81.81,0,1,0-.81.81A.81.81,0,0,0,178.22,156Zm2.43,0a.81.81,0,1,0-.81.81A.81.81,0,0,0,180.65,156Zm2.44,0a.82.82,0,1,0-.82.81A.82.82,0,0,0,183.09,156Zm-12.17,6.49a.82.82,0,1,0-.82.81A.82.82,0,0,0,170.92,162.45Zm2.43,0a.81.81,0,1,0-.81.81A.81.81,0,0,0,173.35,162.45Zm2.43,0a.81.81,0,1,0-.81.81A.81.81,0,0,0,175.78,162.45Zm2.44,0a.81.81,0,1,0-.81.81A.81.81,0,0,0,178.22,162.45Zm2.43,0a.81.81,0,1,0-.81.81A.81.81,0,0,0,180.65,162.45Zm2.44,0a.82.82,0,1,0-.82.81A.82.82,0,0,0,183.09,162.45Zm-3.86,9.33a.81.81,0,1,0-.81.81A.81.81,0,0,0,179.23,171.78Zm2.44,0a.82.82,0,1,0-.82.81A.82.82,0,0,0,181.67,171.78Zm2.43,0a.81.81,0,1,0-.81.81A.81.81,0,0,0,184.1,171.78Zm2.43,0a.81.81,0,1,0-.81.81A.81.81,0,0,0,186.53,171.78Zm2.44,0a.82.82,0,1,0-.81.81A.81.81,0,0,0,189,171.78Zm2.43,0a.81.81,0,1,0-.81.81A.81.81,0,0,0,191.4,171.78Zm-12.17,6.69a.81.81,0,1,0-.81.82A.81.81,0,0,0,179.23,178.47Zm2.44,0a.82.82,0,1,0-.82.82A.82.82,0,0,0,181.67,178.47Zm2.43,0a.81.81,0,1,0-.81.82A.81.81,0,0,0,184.1,178.47Zm2.43,0a.81.81,0,1,0-.81.82A.81.81,0,0,0,186.53,178.47Zm2.44,0a.82.82,0,1,0-.81.82A.82.82,0,0,0,189,178.47Zm2.43,0a.81.81,0,1,0-.81.82A.81.81,0,0,0,191.4,178.47Z"/><path class="cls-3" d="M111.8,119.63a1.35,1.35,0,1,1-1.35-1.35A1.35,1.35,0,0,1,111.8,119.63Z"/><path class="cls-3" d="M117.87,119.63a1.35,1.35,0,1,1-1.35-1.35A1.36,1.36,0,0,1,117.87,119.63Z"/><path class="cls-3" d="M123.93,119.63a1.35,1.35,0,1,1-1.35-1.35A1.35,1.35,0,0,1,123.93,119.63Z"/><rect class="cls-18" x="193.22" y="165.47" width="140.1" height="80.81"/><rect class="cls-14" x="191.07" y="163.32" width="140.1" height="80.81"/><path class="cls-3" d="M262.8,209.09l-1.47-.1a9.05,9.05,0,0,0-.14-1.48l1.42-.38a.41.41,0,0,0,.3-.51l-.18-.67a.42.42,0,0,0-.51-.29l-1.42.38a9.18,9.18,0,0,0-.62-1.35l1.22-.83a.42.42,0,0,0,.11-.58l-.38-.57a.42.42,0,0,0-.58-.11l-1.22.82a11.65,11.65,0,0,0-1-1.08l.89-1.17a.43.43,0,0,0-.08-.59l-.55-.41a.43.43,0,0,0-.59.08l-.89,1.18a7.78,7.78,0,0,0-1.31-.69l.45-1.4a.42.42,0,0,0-.27-.53l-.65-.21a.42.42,0,0,0-.53.27l-.45,1.4a9.56,9.56,0,0,0-1.32-.21v-1.47a.42.42,0,0,0-.42-.42h-.68a.42.42,0,0,0-.42.42v1.47a9,9,0,0,0-1.47.24l-.48-1.39a.43.43,0,0,0-.53-.26l-.65.23a.42.42,0,0,0-.26.53l.48,1.39a8.58,8.58,0,0,0-1.3.71l-.91-1.16a.43.43,0,0,0-.59-.07l-.54.42a.42.42,0,0,0-.07.59l.9,1.16a9.46,9.46,0,0,0-1,1.1l-1.24-.8a.41.41,0,0,0-.58.12l-.37.57a.42.42,0,0,0,.12.58l1.24.8a8.71,8.71,0,0,0-.59,1.37l-1.43-.36a.42.42,0,0,0-.51.31l-.17.66a.42.42,0,0,0,.31.51l1.43.36a8.69,8.69,0,0,0-.12,1.45v0l-1.47.13a.42.42,0,0,0-.38.45l.06.69a.42.42,0,0,0,.46.38l1.46-.13a9.8,9.8,0,0,0,.37,1.44l-1.34.6a.41.41,0,0,0-.21.55l.28.63a.42.42,0,0,0,.55.21l1.34-.6a8.65,8.65,0,0,0,.83,1.24l-1.08,1a.41.41,0,0,0,0,.59l.47.5a.41.41,0,0,0,.59,0l1.08-1a8.75,8.75,0,0,0,1.18.9l-.7,1.3a.43.43,0,0,0,.18.57l.6.32a.42.42,0,0,0,.57-.17l.69-1.3a9.33,9.33,0,0,0,1.41.47l-.23,1.45a.42.42,0,0,0,.35.48l.68.11a.42.42,0,0,0,.48-.35l.23-1.45.66,0a7.38,7.38,0,0,0,.82,0l.26,1.45a.42.42,0,0,0,.49.34l.67-.11a.42.42,0,0,0,.34-.49l-.25-1.45a8.64,8.64,0,0,0,1.4-.5l.71,1.29a.41.41,0,0,0,.57.16l.6-.33A.41.41,0,0,0,258,218l-.71-1.28a9.45,9.45,0,0,0,1.16-.93l1.1,1a.41.41,0,0,0,.59,0l.46-.51a.42.42,0,0,0,0-.59l-1.1-1a9.24,9.24,0,0,0,.8-1.26l1.36.58a.42.42,0,0,0,.55-.22l.27-.64a.42.42,0,0,0-.23-.55l-1.35-.57a9.89,9.89,0,0,0,.35-1.45l1.46.11a.42.42,0,0,0,.45-.39l.05-.69A.42.42,0,0,0,262.8,209.09Zm-10.56,5.13a5.1,5.1,0,1,1,5.1-5.1A5.1,5.1,0,0,1,252.24,214.22Z"/><path class="cls-19" d="M259.37,209.12a7.13,7.13,0,1,1-7.13-7.13A7.13,7.13,0,0,1,259.37,209.12Z"/><path class="cls-3" d="M276,216.5l-1-.07a6.25,6.25,0,0,0-.09-1l.93-.25a.27.27,0,0,0,.19-.34l-.11-.43a.27.27,0,0,0-.34-.19l-.93.24a5.85,5.85,0,0,0-.41-.88l.8-.54a.28.28,0,0,0,.08-.38l-.25-.38a.28.28,0,0,0-.38-.07l-.8.54a6.5,6.5,0,0,0-.68-.71l.59-.77a.27.27,0,0,0-.06-.38l-.36-.27a.27.27,0,0,0-.38,0l-.58.77a7.16,7.16,0,0,0-.87-.45l.3-.92a.26.26,0,0,0-.18-.34l-.42-.14a.27.27,0,0,0-.35.18l-.3.91a5.93,5.93,0,0,0-.86-.13v-1a.27.27,0,0,0-.27-.27h-.45a.28.28,0,0,0-.28.27v1a5.07,5.07,0,0,0-1,.16l-.31-.91a.27.27,0,0,0-.35-.17l-.43.14a.28.28,0,0,0-.17.35l.32.91a5.51,5.51,0,0,0-.86.47l-.59-.76a.28.28,0,0,0-.39-.05l-.35.28a.27.27,0,0,0-.05.38l.59.76a6.4,6.4,0,0,0-.65.72l-.81-.52a.27.27,0,0,0-.38.08l-.25.37a.27.27,0,0,0,.08.38l.81.53a6.47,6.47,0,0,0-.39.89l-.93-.23a.28.28,0,0,0-.34.2l-.11.44a.29.29,0,0,0,.2.33l.94.23a6,6,0,0,0-.08.95v0l-1,.09a.27.27,0,0,0-.25.3l0,.44a.28.28,0,0,0,.3.25l1-.08a7.19,7.19,0,0,0,.24.94l-.88.4a.28.28,0,0,0-.14.36l.19.41a.27.27,0,0,0,.36.14l.88-.39a7.13,7.13,0,0,0,.54.81l-.71.66a.27.27,0,0,0,0,.38l.31.33a.28.28,0,0,0,.39,0l.7-.66a6.28,6.28,0,0,0,.77.59l-.45.85a.29.29,0,0,0,.11.38l.4.21a.27.27,0,0,0,.37-.12l.46-.85a5.53,5.53,0,0,0,.92.31l-.15.95a.29.29,0,0,0,.23.32l.44.07a.29.29,0,0,0,.32-.23l.15-.95h.43l.54,0,.17,1a.27.27,0,0,0,.32.22l.44-.08a.27.27,0,0,0,.22-.32l-.16-.94a7,7,0,0,0,.91-.33l.47.84a.28.28,0,0,0,.38.11l.39-.22a.28.28,0,0,0,.11-.37l-.47-.84a7.51,7.51,0,0,0,.76-.61l.72.64a.26.26,0,0,0,.39,0l.3-.33a.28.28,0,0,0,0-.39l-.72-.64a5.5,5.5,0,0,0,.52-.83l.89.38a.27.27,0,0,0,.36-.14l.18-.42a.28.28,0,0,0-.15-.36l-.89-.38a5.86,5.86,0,0,0,.23-.94l1,.06a.28.28,0,0,0,.3-.25l0-.45A.28.28,0,0,0,276,216.5Zm-6.92,3.36a3.35,3.35,0,1,1,3.35-3.35A3.35,3.35,0,0,1,269.07,219.86Z"/><path class="cls-19" d="M273.75,216.51a4.68,4.68,0,1,1-4.68-4.67A4.68,4.68,0,0,1,273.75,216.51Z"/><path class="cls-3" d="M199.8,183.51c0-2.36,1.25-3.72,3.53-3.72s3.52,1.36,3.52,3.72v7.68c0,2.36-1.24,3.71-3.52,3.71s-3.53-1.35-3.53-3.71Zm2.33,7.83c0,1,.46,1.45,1.2,1.45s1.2-.4,1.2-1.45v-8c0-1.05-.46-1.46-1.2-1.46s-1.2.41-1.2,1.46Z"/><path class="cls-3" d="M215.23,183.61v1.92c0,2.37-1.14,3.66-3.46,3.66h-1.1v5.55h-2.32V180h3.42C214.09,180,215.23,181.25,215.23,183.61Zm-4.56-1.54v5h1.1c.74,0,1.14-.33,1.14-1.39v-2.21c0-1.06-.4-1.4-1.14-1.4Z"/><path class="cls-3" d="M218.74,186.19h3.18v2.11h-3.18v4.32h4v2.12h-6.33V180h6.33v2.11h-4Z"/><path class="cls-3" d="M229,194.74a4.53,4.53,0,0,1-.21-1.82V190.6c0-1.37-.47-1.88-1.52-1.88h-.81v6h-2.32V180h3.51c2.4,0,3.44,1.12,3.44,3.4v1.16c0,1.52-.49,2.51-1.52,3,1.16.48,1.54,1.6,1.54,3.14v2.28a4.42,4.42,0,0,0,.25,1.8Zm-2.54-12.67v4.54h.91c.87,0,1.39-.38,1.39-1.56v-1.46c0-1.05-.35-1.52-1.18-1.52Z"/><path class="cls-3" d="M240.18,194.74h-2.34l-.4-2.68h-2.85l-.4,2.68h-2.13L234.42,180h3.4Zm-5.3-4.69h2.24L236,182.58Z"/><path class="cls-3" d="M240.58,180h7.18v2.11h-2.43v12.67H243V182.07h-2.43Z"/><path class="cls-3" d="M248.77,180h2.32v14.78h-2.32Z"/><path class="cls-3" d="M254.85,184v10.7h-2.09V180h2.91l2.39,8.85V180h2.07v14.78h-2.39Z"/><path class="cls-3" d="M265.28,186.51h3.25v4.68c0,2.36-1.19,3.71-3.47,3.71s-3.46-1.35-3.46-3.71v-7.68c0-2.36,1.19-3.72,3.46-3.72s3.47,1.36,3.47,3.72v1.43h-2.2v-1.58c0-1.05-.46-1.46-1.2-1.46s-1.2.41-1.2,1.46v8c0,1,.46,1.43,1.2,1.43s1.2-.38,1.2-1.43v-2.72h-1.05Z"/><path class="cls-3" d="M276.42,179.79c2.26,0,3.42,1.36,3.42,3.72V184h-2.2v-.61c0-1.05-.42-1.46-1.16-1.46s-1.16.41-1.16,1.46c0,3,4.54,3.61,4.54,7.83,0,2.36-1.18,3.71-3.46,3.71s-3.46-1.35-3.46-3.71v-.91h2.19v1.06c0,1,.47,1.43,1.21,1.43s1.2-.38,1.2-1.43c0-3-4.54-3.61-4.54-7.83C273,181.15,274.16,179.79,276.42,179.79Z"/><path class="cls-3" d="M283.22,189.84,280.28,180h2.43l1.77,6.73,1.78-6.73h2.21l-2.93,9.88v4.9h-2.32Z"/><path class="cls-3" d="M292.38,179.79c2.26,0,3.42,1.36,3.42,3.72V184h-2.2v-.61c0-1.05-.42-1.46-1.16-1.46s-1.16.41-1.16,1.46c0,3,4.54,3.61,4.54,7.83,0,2.36-1.18,3.71-3.46,3.71s-3.46-1.35-3.46-3.71v-.91h2.19v1.06c0,1,.46,1.43,1.2,1.43s1.21-.38,1.21-1.43c0-3-4.54-3.61-4.54-7.83C289,181.15,290.12,179.79,292.38,179.79Z"/><path class="cls-3" d="M296.47,180h7.18v2.11h-2.43v12.67H298.9V182.07h-2.43Z"/><path class="cls-3" d="M307,186.19h3.19v2.11H307v4.32h4v2.12h-6.33V180H311v2.11h-4Z"/><path class="cls-3" d="M317.35,190.45,318.93,180h3.23v14.78H320v-10.6l-1.6,10.6h-2.2l-1.73-10.45v10.45h-2V180h3.23Z"/><rect class="cls-20" x="191.07" y="163.32" width="140.1" height="5.86"/><circle class="cls-1" cx="196.29" cy="165.81" r="1.35"/><circle class="cls-1" cx="202.35" cy="165.81" r="1.35"/><circle class="cls-1" cx="208.42" cy="165.81" r="1.35"/><path class="cls-14" d="M319.59,230.17H203.65a1.49,1.49,0,0,1-1.49-1.49h0a1.49,1.49,0,0,1,1.49-1.49H319.59a1.49,1.49,0,0,1,1.5,1.49h0A1.5,1.5,0,0,1,319.59,230.17Z"/><path class="cls-9" d="M285.28,227.19H203.65a1.49,1.49,0,0,0,0,3h81.63Z"/><polygon class="cls-21" points="127.16 310.98 85.75 310.98 190.81 103.89 232.23 103.89 127.16 310.98"/><polygon class="cls-21" points="156.88 310.98 140.67 310.98 245.73 103.89 261.94 103.89 156.88 310.98"/><path class="cls-5" d="M433.33,94H88.9a7.64,7.64,0,0,0-7.64,7.64V350.47a7.64,7.64,0,0,0,7.64,7.64H433.33a7.64,7.64,0,0,0,7.64-7.64V101.63A7.64,7.64,0,0,0,433.33,94ZM422.87,297H99.36V110.42H422.87Z"/><path class="cls-22" d="M305.86,378.48V348.73h-89.5v29.75a42.55,42.55,0,0,1-9.5,26.74l-3.92,4.84H319.29l-3.92-4.84A42.5,42.5,0,0,1,305.86,378.48Z"/><rect class="cls-3" x="216.36" y="348.73" width="89.5" height="19.22"/><rect class="cls-22" x="202.94" y="410.06" width="116.37" height="5.31"/><path class="cls-4" d="M81.26,317.05H441a0,0,0,0,1,0,0v32.86a8.2,8.2,0,0,1-8.2,8.2H89.46a8.2,8.2,0,0,1-8.2-8.2V317.05A0,0,0,0,1,81.26,317.05Z"/><polygon class="cls-3" points="395.4 131.53 410.25 131.53 408.76 116.91 396.88 116.91 395.4 131.53"/><rect class="cls-10" x="395.4" y="130.82" width="14.85" height="3.41" rx="0.28"/><polygon class="cls-3" points="395.4 152.45 410.25 152.45 408.76 137.83 396.88 137.83 395.4 152.45"/><rect class="cls-10" x="395.4" y="151.74" width="14.85" height="3.41" rx="0.45"/><rect class="cls-3" x="396.35" y="152.74" width="6.72" height="1.38"/><path class="cls-23" d="M408.12,144.64c0,2.28-2.29,4.13-5.12,4.13s-5.12-1.85-5.12-4.13,2.29-4.12,5.12-4.12S408.12,142.37,408.12,144.64Z"/><path class="cls-10" d="M397.06,165.55h12.56a.77.77,0,0,1,.77.77v7.93a0,0,0,0,1,0,0H396.29a0,0,0,0,1,0,0v-7.93A.77.77,0,0,1,397.06,165.55Z"/><rect class="cls-10" x="398.34" y="163.9" width="6.27" height="3.26" rx="0.38"/><path class="cls-10" d="M397.06,186.25h12.56a.77.77,0,0,1,.77.77V195a0,0,0,0,1,0,0H396.29a0,0,0,0,1,0,0V187A.77.77,0,0,1,397.06,186.25Z"/><rect class="cls-10" x="398.34" y="184.61" width="6.27" height="3.27" rx="0.38"/><path class="cls-10" d="M397.06,207h12.56a.77.77,0,0,1,.77.77v7.93a0,0,0,0,1,0,0H396.29a0,0,0,0,1,0,0v-7.93A.77.77,0,0,1,397.06,207Z"/><rect class="cls-10" x="398.34" y="205.32" width="6.27" height="3.27" rx="0.38"/></g><g id="Keyboard"><rect class="cls-24" x="70.55" y="459.92" width="296.29" height="7.73" rx="2.66"/><path class="cls-3" d="M366.28,460.94,335.77,425.4c-.84-1-3.6-1.52-5.77-1.52H107.33c-2.17,0-4.93.53-5.78,1.52L71,460.94a1.43,1.43,0,0,0-.32,1.58c.44.93,2,1.47,4.32,1.47H362.29c2.31,0,3.88-.54,4.31-1.47A1.43,1.43,0,0,0,366.28,460.94Z"/><polygon class="cls-25" points="221.04 425.15 207.86 425.15 207.49 429.8 221.13 429.8 221.04 425.15"/><polygon class="cls-25" points="189.23 425.15 176.04 425.15 174.58 429.8 188.22 429.8 189.23 425.15"/><polygon class="cls-25" points="236.95 425.15 223.77 425.15 223.94 429.8 237.58 429.8 236.95 425.15"/><polygon class="cls-25" points="157.41 425.15 144.23 425.15 141.67 429.8 155.31 429.8 157.41 425.15"/><polygon class="cls-25" points="173.32 425.15 160.13 425.15 158.13 429.8 171.76 429.8 173.32 425.15"/><polygon class="cls-25" points="125.22 429.8 138.86 429.8 141.5 425.15 128.32 425.15 125.22 429.8"/><polygon class="cls-25" points="205.14 425.15 191.95 425.15 191.03 429.8 204.67 429.8 205.14 425.15"/><polygon class="cls-25" points="252.86 425.15 239.67 425.15 240.4 429.8 254.03 429.8 252.86 425.15"/><polygon class="cls-25" points="125.6 425.15 105.52 425.15 101.64 429.8 122.4 429.8 125.6 425.15"/><polygon class="cls-25" points="319.21 425.15 322.66 429.8 336.74 429.8 332.82 425.15 319.21 425.15"/><polygon class="cls-25" points="316.49 425.15 303.31 425.15 306.21 429.8 319.85 429.8 316.49 425.15"/><polygon class="cls-25" points="300.58 425.15 287.4 425.15 289.76 429.8 303.39 429.8 300.58 425.15"/><polygon class="cls-25" points="268.77 425.15 255.58 425.15 256.85 429.8 270.49 429.8 268.77 425.15"/><polygon class="cls-25" points="284.68 425.15 271.49 425.15 273.3 429.8 286.94 429.8 284.68 425.15"/><polygon class="cls-25" points="179.76 430.26 166.05 430.26 164.17 435.27 178.37 435.27 179.76 430.26"/><polygon class="cls-25" points="196.3 430.26 182.59 430.26 181.3 435.27 195.5 435.27 196.3 430.26"/><polygon class="cls-25" points="212.84 430.26 199.12 430.26 198.43 435.27 212.63 435.27 212.84 430.26"/><polygon class="cls-25" points="146.69 430.26 132.97 430.26 129.92 435.27 144.12 435.27 146.69 430.26"/><polygon class="cls-25" points="112.79 435.27 126.99 435.27 130.15 430.26 116.44 430.26 112.79 435.27"/><polygon class="cls-25" points="229.37 430.26 215.66 430.26 215.55 435.27 229.75 435.27 229.37 430.26"/><polygon class="cls-25" points="163.22 430.26 149.51 430.26 147.04 435.27 161.25 435.27 163.22 430.26"/><polygon class="cls-25" points="312.06 430.26 298.35 430.26 301.19 435.27 315.39 435.27 312.06 430.26"/><polygon class="cls-25" points="113.61 430.26 101.25 430.26 97.07 435.27 109.87 435.27 113.61 430.26"/><polygon class="cls-25" points="314.88 430.26 318.32 435.27 341.36 435.27 337.13 430.26 314.88 430.26"/><polygon class="cls-25" points="295.52 430.26 281.81 430.26 284.06 435.27 298.26 435.27 295.52 430.26"/><polygon class="cls-25" points="245.91 430.26 232.2 430.26 232.68 435.27 246.88 435.27 245.91 430.26"/><polygon class="cls-25" points="262.45 430.26 248.74 430.26 249.81 435.27 264.01 435.27 262.45 430.26"/><polygon class="cls-25" points="278.99 430.26 265.27 430.26 266.94 435.27 281.14 435.27 278.99 430.26"/><polygon class="cls-25" points="256.26 455.23 162.18 455.23 159.79 462.22 257.85 462.22 256.26 455.23"/><polygon class="cls-25" points="158.85 455.23 137.86 455.23 134.45 462.22 156.33 462.22 158.85 455.23"/><polygon class="cls-25" points="276.82 455.23 259.58 455.23 261.31 462.22 279.28 462.22 276.82 455.23"/><polygon class="cls-25" points="94.54 462.22 111.57 462.22 115.91 455.23 99.58 455.23 94.54 462.22"/><polygon class="cls-25" points="134.54 455.23 119.24 455.23 115.03 462.22 130.98 462.22 134.54 455.23"/><polygon class="cls-25" points="96.25 455.23 80.39 455.23 74.55 462.22 91.08 462.22 96.25 455.23"/><polygon class="cls-25" points="297.39 455.23 280.15 455.23 282.75 462.22 300.72 462.22 297.39 455.23"/><polygon class="cls-25" points="341.85 455.23 347.06 462.22 364.08 462.22 358.18 455.23 341.85 455.23"/><polygon class="cls-25" points="317.96 455.23 300.72 455.23 304.19 462.22 322.15 462.22 317.96 455.23"/><polygon class="cls-25" points="338.52 455.23 321.28 455.23 325.62 462.22 343.59 462.22 338.52 455.23"/><polygon class="cls-25" points="198.7 448.19 183.31 448.19 181.88 454.59 197.89 454.59 198.7 448.19"/><polygon class="cls-25" points="235.85 448.19 220.46 448.19 220.53 454.59 236.55 454.59 235.85 448.19"/><polygon class="cls-25" points="180.12 448.19 164.73 448.19 162.55 454.59 178.56 454.59 180.12 448.19"/><polygon class="cls-25" points="142.97 448.19 127.57 448.19 123.89 454.59 139.91 454.59 142.97 448.19"/><polygon class="cls-25" points="104.56 454.59 120.58 454.59 124.39 448.19 109 448.19 104.56 454.59"/><polygon class="cls-25" points="161.54 448.19 146.15 448.19 143.22 454.59 159.24 454.59 161.54 448.19"/><polygon class="cls-25" points="217.28 448.19 201.88 448.19 201.21 454.59 217.22 454.59 217.28 448.19"/><polygon class="cls-25" points="105.81 448.19 86.27 448.19 80.92 454.59 101.25 454.59 105.81 448.19"/><polygon class="cls-25" points="310.16 448.19 294.77 448.19 297.85 454.59 313.86 454.59 310.16 448.19"/><polygon class="cls-25" points="313.35 448.19 317.17 454.59 357.64 454.59 352.25 448.19 313.35 448.19"/><polygon class="cls-25" points="254.43 448.19 239.04 448.19 239.86 454.59 255.88 454.59 254.43 448.19"/><polygon class="cls-25" points="273.01 448.19 257.62 448.19 259.19 454.59 275.2 454.59 273.01 448.19"/><polygon class="cls-25" points="291.58 448.19 276.19 448.19 278.52 454.59 294.53 454.59 291.58 448.19"/><polygon class="cls-25" points="208.45 441.72 193.64 441.72 192.68 447.6 208.06 447.6 208.45 441.72"/><polygon class="cls-25" points="226.32 441.72 211.51 441.72 211.23 447.6 226.62 447.6 226.32 441.72"/><polygon class="cls-25" points="190.59 441.72 175.78 441.72 174.12 447.6 189.5 447.6 190.59 441.72"/><polygon class="cls-25" points="172.72 441.72 157.91 441.72 155.56 447.6 170.95 447.6 172.72 441.72"/><polygon class="cls-25" points="154.86 441.72 140.05 441.72 137.01 447.6 152.39 447.6 154.86 441.72"/><polygon class="cls-25" points="118.45 447.6 133.83 447.6 136.99 441.72 122.18 441.72 118.45 447.6"/><polygon class="cls-25" points="244.18 441.72 229.37 441.72 229.79 447.6 245.17 447.6 244.18 441.72"/><polygon class="cls-25" points="119.13 441.72 91.67 441.72 86.76 447.6 115.28 447.6 119.13 441.72"/><polygon class="cls-25" points="333.51 441.72 318.7 441.72 322.57 447.6 337.95 447.6 333.51 441.72"/><polygon class="cls-25" points="262.05 441.72 247.24 441.72 248.34 447.6 263.73 447.6 262.05 441.72"/><polygon class="cls-25" points="315.64 441.72 300.83 441.72 304.01 447.6 319.4 447.6 315.64 441.72"/><polygon class="cls-25" points="279.92 441.72 265.11 441.72 266.9 447.6 282.29 447.6 279.92 441.72"/><polygon class="cls-25" points="297.78 441.72 282.97 441.72 285.46 447.6 300.84 447.6 297.78 441.72"/><polygon class="cls-25" points="188.03 441.19 202.49 441.19 203.07 435.77 189.12 435.77 188.03 441.19"/><polygon class="cls-25" points="170.52 441.19 184.98 441.19 186.19 435.77 172.24 435.77 170.52 441.19"/><polygon class="cls-25" points="205.53 441.19 219.99 441.19 219.95 435.77 206 435.77 205.53 441.19"/><polygon class="cls-25" points="118 441.19 132.46 441.19 135.55 435.77 121.6 435.77 118 441.19"/><polygon class="cls-25" points="135.51 441.19 149.97 441.19 152.43 435.77 138.48 435.77 135.51 441.19"/><polygon class="cls-25" points="223.04 441.19 237.5 441.19 236.83 435.77 222.88 435.77 223.04 441.19"/><polygon class="cls-25" points="153.01 441.19 167.48 441.19 169.31 435.77 155.36 435.77 153.01 441.19"/><path class="cls-25" d="M341.77,435.77H327.1l4,5.42h3.58a2,2,0,0,1,1.34.37l4.72,6.1h10.82Z"/><polygon class="cls-25" points="293.06 441.19 307.52 441.19 304.35 435.77 290.4 435.77 293.06 441.19"/><polygon class="cls-25" points="310.57 441.19 328.08 441.19 324.16 435.77 307.28 435.77 310.57 441.19"/><polygon class="cls-25" points="92.12 441.19 114.96 441.19 118.67 435.77 96.65 435.77 92.12 441.19"/><polygon class="cls-25" points="240.54 441.19 255.01 441.19 253.71 435.77 239.76 435.77 240.54 441.19"/><polygon class="cls-25" points="275.56 441.19 290.02 441.19 287.46 435.77 273.52 435.77 275.56 441.19"/><polygon class="cls-25" points="258.05 441.19 272.51 441.19 270.58 435.77 256.64 435.77 258.05 441.19"/></g><g id="CD"><path class="cls-4" d="M411.74,427.07c-27.47-.56-49.93,7.86-50.15,18.8s21.86,20.28,49.34,20.85,49.93-7.85,50.16-18.8S439.22,427.64,411.74,427.07Zm-.56,27.39c-10.49-.21-18.93-3.77-18.84-7.95s8.66-7.4,19.15-7.18,18.93,3.78,18.84,8S421.67,454.68,411.18,454.46Z"/><path class="cls-5" d="M411.53,437.28c-13.33-.27-24.22,3.81-24.33,9.12s10.61,9.84,23.94,10.11,24.22-3.81,24.33-9.12S424.86,437.55,411.53,437.28Zm-.29,14.09c-6.2-.13-11.19-2.23-11.14-4.7s5.12-4.38,11.33-4.25,11.19,2.24,11.14,4.71S417.45,451.5,411.24,451.37Z"/><line class="cls-7" x1="431.23" y1="449.71" x2="460" y2="451.03"/><line class="cls-7" x1="429.75" y1="450.41" x2="455.51" y2="456.77"/><polyline class="cls-7" points="373.44 458.37 396.19 451.18 381.02 461.8"/><line class="cls-7" x1="394.48" y1="428.17" x2="404.46" y2="439.31"/><line class="cls-7" x1="400.69" y1="427.57" x2="406.65" y2="439.36"/><path class="cls-4" d="M292,424.3c-27.48-.57-50,10.9-50.3,25.62s21.73,27.1,49.2,27.67,50-10.91,50.3-25.62S319.42,424.86,292,424.3Zm-.76,36.82c-10.49-.22-18.9-4.95-18.78-10.57s8.71-10,19.2-9.78,18.9,5,18.79,10.56S301.68,461.33,291.19,461.12Z"/><path class="cls-5" d="M291.67,438c-13.33-.28-24.26,5.29-24.41,12.43s10.54,13.15,23.87,13.42,24.26-5.29,24.41-12.43S305,438.29,291.67,438ZM291.28,457c-6.21-.13-11.18-2.93-11.11-6.25s5.15-5.91,11.35-5.78,11.18,2.92,11.11,6.24S297.48,457.09,291.28,457Z"/><line class="cls-7" x1="311.27" y1="454.58" x2="340.05" y2="456.16"/><line class="cls-7" x1="309.8" y1="455.53" x2="335.51" y2="463.9"/><polyline class="cls-7" points="253.42 466.63 276.23 456.8 260.98 471.19"/><line class="cls-7" x1="274.67" y1="425.89" x2="284.58" y2="440.8"/><line class="cls-7" x1="280.89" y1="425.04" x2="286.76" y2="440.85"/><polygon class="cls-14" points="300.45 419.82 221.34 423.29 234 483.27 325.52 478.16 300.45 419.82"/><path class="cls-3" d="M278.17,444.66l-2.7,0a10.5,10.5,0,0,0-.78-1.91l2.42-.57c.38-.09.54-.4.35-.68l-.56-.83a1,1,0,0,0-1-.35l-2.41.57a15.49,15.49,0,0,0-1.57-1.69l1.89-1.1c.3-.17.3-.5,0-.73l-.88-.69a1,1,0,0,0-1.07-.11l-1.9,1.09a19.54,19.54,0,0,0-2.18-1.29l1.2-1.5c.18-.24,0-.56-.34-.72l-1.1-.48a.91.91,0,0,0-1,.13l-1.2,1.49a23.73,23.73,0,0,0-2.56-.78l.38-1.74c.06-.28-.22-.56-.63-.63l-1.22-.23c-.41-.08-.8.08-.86.35L260,434c-.79-.1-1.59-.16-2.4-.19L257.2,432a.85.85,0,0,0-.86-.49l-1.22,0c-.42,0-.7.25-.64.53l.41,1.81a20.64,20.64,0,0,0-2.57.37l-1.23-1.69a1,1,0,0,0-1-.29l-1.11.3c-.37.11-.52.41-.33.67l1.22,1.7a17.29,17.29,0,0,0-2.18,1l-1.94-1.41a1.08,1.08,0,0,0-1.08-.06l-.88.56a.41.41,0,0,0,0,.74l1.93,1.41a12.1,12.1,0,0,0-1.57,1.45l-2.46-.95a.92.92,0,0,0-1,.18l-.56.76c-.19.25,0,.58.36.73l2.47,1a8.34,8.34,0,0,0-.77,1.8l-2.74-.37c-.43-.06-.83.13-.88.42l-.16.88c-.06.3.25.59.69.65l2.75.38a8.44,8.44,0,0,0,.13,1.93v0l-2.73.27c-.43,0-.71.32-.62.63l.27.91a.9.9,0,0,0,.95.49l2.75-.27a11.32,11.32,0,0,0,1.06,1.92l-2.41.91c-.38.14-.51.49-.28.77l.69.84a1,1,0,0,0,1.11.26l2.42-.92a15.89,15.89,0,0,0,1.89,1.64l-1.8,1.48a.49.49,0,0,0,.11.83l1,.67a1,1,0,0,0,1.14,0l1.8-1.48a19.89,19.89,0,0,0,2.51,1.17l-1,1.89c-.15.3.07.65.5.79l1.26.41a.87.87,0,0,0,1-.29l.95-1.89a25.92,25.92,0,0,0,2.84.55v2.08c0,.33.37.62.82.65l1.34.1c.45,0,.81-.21.81-.54l0-2.08c.42,0,.85,0,1.28,0s1-.06,1.55-.12l1,2a1,1,0,0,0,1,.44l1.25-.22c.42-.07.63-.4.48-.72l-1-2a18.46,18.46,0,0,0,2.48-.81l1.79,1.75a1.06,1.06,0,0,0,1.14.18l1-.51a.47.47,0,0,0,.11-.81l-1.8-1.73a12.39,12.39,0,0,0,1.84-1.37l2.4,1.28a1,1,0,0,0,1.1-.09l.66-.73c.23-.25.1-.61-.27-.81l-2.39-1.26a10,10,0,0,0,1-1.75l2.7.68a.76.76,0,0,0,.93-.34l.26-.87c.08-.29-.19-.61-.62-.72l-2.69-.67a7.83,7.83,0,0,0,.12-1.94l2.7,0c.43,0,.73-.23.67-.53l-.17-.9A.86.86,0,0,0,278.17,444.66Zm-17.72,7.54c-5.32.2-10.28-2.75-11-6.52s2.84-6.77,8-6.92,9.95,2.62,10.88,6.27S265.73,452,260.45,452.2Z"/><path class="cls-19" d="M272,444.91c1.38,5.21-3.45,9.79-10.88,10.08s-14.44-3.88-15.46-9.18,4.06-9.4,11.18-9.61S270.62,439.84,272,444.91Z"/><path class="cls-3" d="M305.08,453.59l-1.77,0a8.51,8.51,0,0,0-.61-1.3l1.56-.39a.29.29,0,0,0,.19-.47l-.41-.57a.69.69,0,0,0-.69-.23l-1.56.39a11.13,11.13,0,0,0-1.13-1.15l1.19-.76c.19-.12.17-.35,0-.51l-.61-.47a.68.68,0,0,0-.72-.08l-1.19.76a14.9,14.9,0,0,0-1.51-.88l.7-1c.11-.16,0-.38-.26-.49l-.76-.33a.56.56,0,0,0-.66.09l-.71,1a14.43,14.43,0,0,0-1.73-.53l.14-1.21c0-.19-.18-.39-.46-.44l-.82-.15c-.28-.05-.52.06-.54.25l-.15,1.21a14.18,14.18,0,0,0-1.6-.12l-.4-1.26a.62.62,0,0,0-.6-.34l-.8,0c-.27,0-.44.18-.38.37l.39,1.26a14.2,14.2,0,0,0-1.67.27l-.92-1.17a.72.72,0,0,0-.7-.2l-.7.22c-.24.07-.32.28-.17.46l.92,1.18a9.64,9.64,0,0,0-1.37.66l-1.37-1a.66.66,0,0,0-.71,0l-.54.39c-.18.13-.15.36.06.51l1.38,1a6.17,6.17,0,0,0-.92,1l-1.68-.65a.58.58,0,0,0-.67.13l-.3.52c-.11.18,0,.4.29.51l1.68.64a5.9,5.9,0,0,0-.37,1.24l-1.81-.25c-.28,0-.53.09-.54.29l0,.6c0,.2.21.4.49.44l1.82.25a6.13,6.13,0,0,0,.23,1.3v0l-1.75.19c-.28,0-.44.22-.36.43l.25.61a.63.63,0,0,0,.65.32l1.76-.18a8.39,8.39,0,0,0,.82,1.28l-1.49.62a.31.31,0,0,0-.12.52l.51.56a.71.71,0,0,0,.73.17l1.49-.62a12,12,0,0,0,1.34,1.09l-1.06,1c-.16.16-.1.4.13.55l.72.44a.63.63,0,0,0,.73,0l1.06-1a16.22,16.22,0,0,0,1.69.78l-.49,1.25c-.08.19.09.43.37.52l.84.27a.52.52,0,0,0,.65-.2l.49-1.25a16.54,16.54,0,0,0,1.86.37l.13,1.37a.58.58,0,0,0,.57.43l.87.06c.29,0,.51-.13.49-.35l-.14-1.38c.27,0,.54,0,.82,0s.67,0,1-.08l.75,1.34a.66.66,0,0,0,.69.3l.8-.15a.33.33,0,0,0,.27-.48l-.75-1.33a11.91,11.91,0,0,0,1.56-.54l1.26,1.16a.7.7,0,0,0,.74.12l.63-.34a.31.31,0,0,0,0-.54l-1.26-1.15a7.94,7.94,0,0,0,1.13-.92l1.62.85a.6.6,0,0,0,.71-.06l.39-.49c.14-.17,0-.41-.22-.54l-1.62-.85a5.8,5.8,0,0,0,.58-1.17l1.8.45c.28.07.54,0,.58-.23l.13-.58c0-.2-.16-.42-.44-.49l-1.79-.45a5.78,5.78,0,0,0,0-1.31l1.77,0c.28,0,.47-.16.41-.37l-.15-.61A.62.62,0,0,0,305.08,453.59ZM294,458.72c-3.42.14-6.83-1.83-7.58-4.37s1.38-4.62,4.73-4.74,6.69,1.77,7.51,4.26S297.37,458.57,294,458.72Z"/><path class="cls-19" d="M301,453.77c1.18,3.53-1.7,6.6-6.49,6.81S285,458,283.92,454.45s2-6.43,6.63-6.6S299.86,450.31,301,453.77Z"/></g></svg>
