<svg class="vector-svg425235" xmlns="http://www.w3.org/2000/svg" xmlns:xlink="http://www.w3.org/1999/xlink" viewBox="0 0 462.28 395.4"><defs><style>.vector-svg425235 .svg-black{fill: #0e1010!important;} .vector-svg425235 .cls-1{fill:#fff;}.vector-svg425235 .cls-2,.vector-svg425235 .cls-6{fill:#263238;}.vector-svg425235 .cls-2{clip-path:url(#clip-path);}#Background_Simple .cls-3{fill: #4a0bac;opacity: 0.2;}.vector-svg425235 .cls-3{fill:#b293e2; opacity: 0.1}.vector-svg425235 .cls-4{opacity:0.7;}.vector-svg425235 .cls-5{opacity:0.2;}.vector-svg425235 .cls-7{fill:#a794e0;}.vector-svg425235 .cls-8{fill:#965fed;}.vector-svg425235 .cls-9{fill:#757575;}.vector-svg425235 .cls-10{fill:#999;}.vector-svg425235 .cls-11{fill:#bfbfbf;}.vector-svg425235 .cls-12{fill:#8a69ed;}.vector-svg425235 .cls-13{opacity:0.5;}.vector-svg425235 .cls-14{opacity:0.1;}.vector-svg425235 .cls-15{clip-path:url(#clip-path-2);}.vector-svg425235 .cls-16{fill:#9a93e2;}</style><clipPath id="clip-path"><path class="cls-1" d="M431.17,264.82a71.82,71.82,0,0,1-1,11.86c-2.9,17.31-12,29.93-22.76,29.93a13.68,13.68,0,0,1-2.86-.3c-11.75-2.49-20.86-20.11-20.86-41.49,0-23.08,10.62-31.25,23.72-31.25S431.17,241.74,431.17,264.82Z"/></clipPath><clipPath id="clip-path-2"><path class="cls-2" d="M407.44,307.11a14.32,14.32,0,0,1-3-.31c-12.12-2.57-21.26-20.62-21.26-42,0-27.62,15.17-31.75,24.22-31.75s24.23,4.13,24.23,31.75a72.36,72.36,0,0,1-1,11.95C427.7,294.63,418.14,307.11,407.44,307.11Zm0-73c-10.6,0-23.22,5.34-23.22,30.75,0,20.9,8.8,38.53,20.46,41a13.15,13.15,0,0,0,2.76.29c10.2,0,19.35-12.13,22.27-29.51a71.39,71.39,0,0,0,1-11.78C430.67,239.41,418,234.07,407.44,234.07Z"/></clipPath></defs><g id="Plants"><g class="cls-5"><path class="cls-6" d="M13.28,210c-.2-.13-.15-.22,0,0Z"/></g><g class="cls-5"><path d="M106.81,201.14a18.32,18.32,0,0,1-12.57,14.47l-2.48.81c-8.92,12.63-24.56,18-37.89,10.19L50,224.32l-10.92-13-.13,0c-3.46.72-7.37.19-9.93-2.25a3.57,3.57,0,0,1-5.07,2.3,3.57,3.57,0,0,1-.44-5.55c-2.2,1.94-5.6,1-7.72-1.07a66.7,66.7,0,0,1,2-17.29,69.72,69.72,0,0,1,3.45-10.25,72.21,72.21,0,0,1,3.59-7.34c.1-.2.22-.41.34-.61a87.87,87.87,0,0,1,6.65-10L33,158.15c1-.87,1.91-1.72,2.88-2.58l.18-.16q2.32-2,4.71-4c2.45-2,4.94-4.06,7.45-6.06l.25-.2c2.15-1.7,4.32-3.39,6.48-5.07l3.26-2.52a8.94,8.94,0,0,1,1.92.45c2.67.93,3.13,3.38,5,5.06,2.46,2.25,4.82-1.53,8.61-1.41,11.65.36,7.13,12.31,12.82,10.81C111.11,146,107,177.39,96.3,184.29,102.6,189.51,108,193,106.81,201.14Z"/></g><ellipse class="cls-1" cx="53.98" cy="190.09" rx="41.44" ry="40.93"/><path class="cls-6" d="M54,231.51C30.85,231.51,12,212.93,12,190.09S30.85,148.66,54,148.66s41.94,18.59,41.94,41.43S77.1,231.51,54,231.51Zm0-81.85C31.4,149.66,13,167.8,13,190.09S31.4,230.51,54,230.51s40.94-18.13,40.94-40.42S76.55,149.66,54,149.66Z"/><ellipse class="cls-6" cx="53.98" cy="188.43" rx="37.78" ry="37.32"/><path class="cls-1" d="M54,226.25c-21.11,0-38.29-17-38.29-37.82S32.87,150.62,54,150.62s38.28,17,38.28,37.81S75.09,226.25,54,226.25Zm0-74.63c-20.56,0-37.29,16.51-37.29,36.81S33.42,225.25,54,225.25s37.28-16.52,37.28-36.82S74.54,151.62,54,151.62Z"/><path class="cls-7" d="M13.38,203.14c-2.38,1.48-3.06,6.45-1.19,8.61s5.46.49,6.19-2.87a1.12,1.12,0,0,0,2,.28,2.3,2.3,0,0,0,.14-2.1c-.18-.15-.11-.26,0,0,1.22,1,3.32-.09,3.61-2.16-.89,5.5,4.11,10.3,7.79,7.5-1.09,2.34.34,5.41,2.24,6s3.94-.53,5.76-1.77,3.69-2.67,5.68-2.76c1.73-.08,3.34.9,5,1.48,5.26,1.83,11.42-.6,15.44-6.11,2.66,4.55,9.21,2.87,11-2.79.37,2.65,2.18,4.67,4.21,4.69s4.06-1.94,4.76-4.57v0c0,2.51,2.28,3.74,3.88,2.13a9.38,9.38,0,0,0,2.31-8.87c2.72-.11,5.36-3.27,5.77-6.93s-1.43-7.34-4.06-8.06c4.51-1.87,8-8,8.22-14.29S99.05,158.49,94.62,157a4.7,4.7,0,0,0-5.08,1.06c-.53-3.57-2.15-6.76-4.54-8.36-3.8-2.57-9.09-.81-11.92,4a9.41,9.41,0,0,0,.22-8.38c-1.26-2.33-3.76-3.27-5.88-2.17-.45-3.83-3.41-6.55-6.3-5.81s-5.22,4.84-5,8.71c-.27-3.12-3.95-3.89-5.28-1.27.11.24-.06.1,0,0-1.84-3.86-5.58-5.84-9-4.71-3.69,1.21-6.79,5.84-7.27,10.9a6.51,6.51,0,0,0-9,.25c-2.73,2.46-4.31,7.14-3.83,11.32-2.87-2.83-7.7-1.28-9.67,3.1s-.62,10.58,2.71,12.42c-2.29.35-4.31,3.39-4.31,6.47s2,5.72,4.32,5.64c-2.31.2-4.5,2.94-4.84,6.05S11.15,202.46,13.38,203.14Z"/><g class="cls-5"><path class="cls-1" d="M51.47,188.8a4.32,4.32,0,0,0-4-1,4.81,4.81,0,0,0-3,3.72c-.32,1.81.52,3.81,1.9,4.15,1.69.42,3.42-1.47,5.14-1.26a11.1,11.1,0,0,1,1.77.58c2.47.69,5-1.53,7.06-3.61a9.82,9.82,0,0,0,2-2.49,4.06,4.06,0,0,0,.26-3.29c-.61-1.35-2.1-1.46-3.36-1.2a13.44,13.44,0,0,0-7,4.1c.07-.51.14-1,.22-1.52Z"/><path class="cls-1" d="M87.59,183.87a5.69,5.69,0,0,0-2.14-1.32,2.06,2.06,0,0,0-2.26.95,3.29,3.29,0,0,0,.55,3.76,5.26,5.26,0,0,0,3.14,1.17c1.14.15,2.58.12,3.17-1.21a2.88,2.88,0,0,0-.48-2.88,4.93,4.93,0,0,0-2.22-1.27Z"/><path class="cls-1" d="M31.05,163.44a11,11,0,0,0-4.74,7.32c-.18.94-.18,2.12.46,2.58a1.67,1.67,0,0,0,1.55-.05l6.64-2.4a10,10,0,0,0-3,2.19,5,5,0,0,0-1.2,3.92,2.88,2.88,0,0,0,3,2.44,6.44,6.44,0,0,0,3.67-2.08,6.75,6.75,0,0,0,2.38-4.45c0-1.8-1.7-3.37-2.81-2.15a24.61,24.61,0,0,0,7.17-4.54,8.59,8.59,0,0,0,2.09-2.58,4.33,4.33,0,0,0,.27-3.44c-2.16-5.09-5.15,2.75-6.55,3.52C37.32,165.18,34.42,161.46,31.05,163.44Z"/><path class="cls-1" d="M20.37,186.39a3.17,3.17,0,0,0,.53,2.88,1.3,1.3,0,0,0,2.12-.68,8.1,8.1,0,0,0-4,3.09c-.95,1.64-.77,4.39.69,4.91.91.33,1.89-.31,2.75-1a56.84,56.84,0,0,0,6.93-6.15,3.16,3.16,0,0,0,2.48,4.14c1.64.08,3.2-1.14,4.63-2.32,1.75-1.45,3.77-3.61,3.36-6.09A3,3,0,0,0,35.61,183c-1.7.75-3,2.56-4.21,4.3,1-1.78-.31-4.25-1.93-4.43s-3.16,1.14-4.17,2.68c1.86-1.4,2.33-4.77-.12-5C23.58,180.35,20.79,184.67,20.37,186.39Z"/><path class="cls-1" d="M70.9,175.79c-1.37-.58-3.13.68-3.54,2.53s.64,3.87,2.09,4.06a4.43,4.43,0,0,0-2.83,2,3.56,3.56,0,0,0-.63,2.14,2,2,0,0,0,1.94,1.8,5.36,5.36,0,0,0,2.59-1.08A4.38,4.38,0,0,0,68,188.36a2.57,2.57,0,0,0-.43,3c.52.64,1.39.47,2.11.17A11.31,11.31,0,0,0,74,188.15a3.53,3.53,0,0,0,3.59,1.73,3.47,3.47,0,0,0,2.14-3.9,2.51,2.51,0,0,0-2.2-1.94,5.77,5.77,0,0,0-2.88.75,7.41,7.41,0,0,0,2.37-3.38c.37-1.44-.35-3.29-1.51-3.11-1.31.21-2,2.52-3.06,3.4C71.23,180.25,73.67,176.94,70.9,175.79Z"/><path class="cls-1" d="M47.5,170.3c-1.5,1.37-2.07,3.93-2,6.21.06,2.52.91,5.16,2.71,6.06,2.36,1.18,5.39-1.53,5.89-4.83a8.08,8.08,0,0,0-3.41-7.92A2.87,2.87,0,0,0,47.5,170.3Z"/><path class="cls-1" d="M64.22,166.56l.6.64a2.62,2.62,0,0,0-4.34-.17,4.75,4.75,0,0,0-.12,5.56,2.71,2.71,0,0,0,4.36-.66A4,4,0,0,0,70,170.36c1.25-1.93,1-5.17-.6-6.26s-4.17.85-4,3.25l-.7-1Z"/><path class="cls-1" d="M82.55,169.22a13.58,13.58,0,0,0-2.93,5.27c-.47,2.07.19,4.62,1.79,5s3.12-1.35,4.07-3.15a8.06,8.06,0,0,0,1.07-5.4c-.44-1.77-2.45-2.71-3.49-1.26Z"/><path class="cls-1" d="M56.26,158.53a2.31,2.31,0,0,0-3.73-1.08,5.12,5.12,0,0,0-1.25,5,3.93,3.93,0,0,0,3.35,2.91,3.69,3.69,0,0,0,3.61-4.09,3.21,3.21,0,0,0,3.43,1.46,9,9,0,0,0,3.63-1.94c1.54-1.21,3.19-3,3.07-5.25a3.2,3.2,0,0,0-2.8-3.12,5.13,5.13,0,0,0-3.86,2.05c-.85.95-1.56,2.12-2.48,3s-2.15,1.35-3.1.75Z"/></g></g><g id="Keyboard"><rect class="cls-8" x="126.82" y="220.46" width="230.67" height="97.15"/><path class="cls-6" d="M357.49,318.11H126.82a.5.5,0,0,1-.5-.5V220.46a.51.51,0,0,1,.5-.5H357.49a.5.5,0,0,1,.5.5v97.15A.5.5,0,0,1,357.49,318.11Zm-230.17-1H357V221H127.32Z"/><rect class="cls-1" x="131.64" y="226.34" width="21.7" height="12.01"/><path class="cls-6" d="M153.85,238.85H131.14v-13h22.71Zm-21.71-1h20.71v-11H132.14Z"/><rect class="cls-1" x="317.97" y="284.9" width="34.18" height="12.01"/><path class="cls-6" d="M352.65,297.42H317.47v-13h35.18Zm-34.18-1h33.18v-11H318.47Z"/><rect class="cls-1" x="331.05" y="241.34" width="21.1" height="12.01"/><path class="cls-6" d="M352.65,253.86h-22.1v-13h22.1Zm-21.1-1h20.1v-11h-20.1Z"/><rect class="cls-1" x="131.64" y="270.09" width="21.7" height="12.01"/><path class="cls-6" d="M153.85,282.6H131.14v-13h22.71Zm-21.71-1h20.71v-11H132.14Z"/><rect class="cls-1" x="131.64" y="255.62" width="17.57" height="12.01"/><path class="cls-6" d="M149.71,268.14H131.14v-13h18.57Zm-17.57-1h16.57v-11H132.14Z"/><rect class="cls-1" x="131.64" y="240.98" width="12.01" height="12.01"/><path class="cls-6" d="M144.16,253.49h-13v-13h13Zm-12-1h11v-11h-11Z"/><rect class="cls-1" x="146.98" y="240.98" width="12.01" height="12.01"/><path class="cls-6" d="M159.49,253.49h-13v-13h13Zm-12-1h11v-11h-11Z"/><rect class="cls-1" x="162.31" y="240.98" width="12.01" height="12.01"/><path class="cls-6" d="M174.82,253.49h-13v-13h13Zm-12-1h11v-11h-11Z"/><rect class="cls-1" x="177.64" y="240.98" width="12.01" height="12.01"/><path class="cls-6" d="M190.16,253.49h-13v-13h13Zm-12-1h11v-11h-11Z"/><rect class="cls-1" x="192.98" y="240.98" width="12.01" height="12.01"/><path class="cls-6" d="M205.49,253.49h-13v-13h13Zm-12-1h11v-11h-11Z"/><rect class="cls-1" x="208.31" y="240.98" width="12.01" height="12.01"/><path class="cls-6" d="M220.82,253.49h-13v-13h13Zm-12-1h11v-11h-11Z"/><rect class="cls-1" x="223.64" y="240.98" width="12.01" height="12.01"/><path class="cls-6" d="M236.16,253.49h-13v-13h13Zm-12-1h11v-11h-11Z"/><rect class="cls-1" x="238.98" y="240.98" width="12.01" height="12.01"/><path class="cls-6" d="M251.49,253.49h-13v-13h13Zm-12-1h11v-11h-11Z"/><rect class="cls-1" x="254.31" y="240.98" width="12.01" height="12.01"/><path class="cls-6" d="M266.83,253.49h-13v-13h13Zm-12-1h11v-11h-11Z"/><rect class="cls-1" x="269.64" y="240.98" width="12.01" height="12.01"/><path class="cls-6" d="M282.16,253.49h-13v-13h13Zm-12-1h11v-11h-11Z"/><rect class="cls-1" x="284.98" y="240.98" width="12.01" height="12.01"/><path class="cls-6" d="M297.49,253.49h-13v-13h13Zm-12-1h11v-11h-11Z"/><rect class="cls-1" x="300.31" y="240.98" width="12.01" height="12.01"/><path class="cls-6" d="M312.83,253.49h-13v-13h13Zm-12-1h11v-11h-11Z"/><rect class="cls-1" x="315.65" y="240.98" width="12.01" height="12.01"/><path class="cls-6" d="M328.16,253.49h-13v-13h13Zm-12-1h11v-11h-11Z"/><rect class="cls-1" x="131.64" y="299.72" width="12.01" height="12.01"/><path class="cls-6" d="M144.16,312.23h-13v-13h13Zm-12-1h11v-11h-11Z"/><rect class="cls-1" x="146.98" y="299.72" width="12.01" height="12.01"/><path class="cls-6" d="M159.49,312.23h-13v-13h13Zm-12-1h11v-11h-11Z"/><rect class="cls-1" x="162.31" y="299.72" width="12.01" height="12.01"/><path class="cls-6" d="M174.82,312.23h-13v-13h13Zm-12-1h11v-11h-11Z"/><rect class="cls-1" x="177.64" y="299.72" width="14.66" height="12.01"/><path class="cls-6" d="M192.8,312.23H177.14v-13H192.8Zm-14.66-1H191.8v-11H178.14Z"/><rect class="cls-1" x="195.62" y="299.72" width="73.35" height="12.01"/><path class="cls-6" d="M269.47,312.23H195.12v-13h74.35Zm-73.35-1h72.35v-11H196.12Z"/><rect class="cls-1" x="293.63" y="299.72" width="12.01" height="12.01"/><path class="cls-6" d="M306.14,312.23h-13v-13h13Zm-12-1h11v-11h-11Z"/><rect class="cls-1" x="308.96" y="299.72" width="12.01" height="12.01"/><path class="cls-6" d="M321.48,312.23h-13v-13h13Zm-12-1h11v-11h-11Z"/><rect class="cls-1" x="324.32" y="299.72" width="12.01" height="12.01"/><path class="cls-6" d="M336.84,312.23h-13v-13h13Zm-12-1h11v-11h-11Z"/><rect class="cls-1" x="271.97" y="299.72" width="18.65" height="12.01"/><path class="cls-6" d="M291.12,312.23H271.47v-13h19.65Zm-18.65-1h17.65v-11H272.47Z"/><rect class="cls-1" x="340.14" y="299.72" width="12.01" height="12.01"/><path class="cls-6" d="M352.65,312.23h-13v-13h13Zm-12-1h11v-11h-11Z"/><rect class="cls-1" x="152.62" y="255.62" width="12.01" height="12.01"/><path class="cls-6" d="M165.13,268.14h-13v-13h13Zm-12-1h11v-11h-11Z"/><rect class="cls-1" x="167.95" y="255.62" width="12.01" height="12.01"/><path class="cls-6" d="M180.47,268.14h-13v-13h13Zm-12-1h11v-11h-11Z"/><rect class="cls-1" x="183.29" y="255.62" width="12.01" height="12.01"/><path class="cls-6" d="M195.8,268.14h-13v-13h13Zm-12-1h11v-11h-11Z"/><rect class="cls-1" x="198.62" y="255.62" width="12.01" height="12.01"/><path class="cls-6" d="M211.14,268.14h-13v-13h13Zm-12-1h11v-11h-11Z"/><rect class="cls-1" x="213.95" y="255.62" width="12.01" height="12.01"/><path class="cls-6" d="M226.47,268.14h-13v-13h13Zm-12-1h11v-11h-11Z"/><rect class="cls-1" x="229.29" y="255.62" width="12.01" height="12.01"/><path class="cls-6" d="M241.8,268.14h-13v-13h13Zm-12-1h11v-11h-11Z"/><rect class="cls-1" x="244.62" y="255.62" width="12.01" height="12.01"/><path class="cls-6" d="M257.14,268.14h-13v-13h13Zm-12-1h11v-11h-11Z"/><rect class="cls-1" x="259.96" y="255.62" width="12.01" height="12.01"/><path class="cls-6" d="M272.47,268.14h-13v-13h13Zm-12-1h11v-11h-11Z"/><rect class="cls-1" x="275.29" y="255.62" width="12.01" height="12.01"/><path class="cls-6" d="M287.8,268.14h-13v-13h13Zm-12-1h11v-11h-11Z"/><rect class="cls-1" x="290.62" y="255.62" width="12.01" height="12.01"/><path class="cls-6" d="M303.14,268.14h-13v-13h13Zm-12-1h11v-11h-11Z"/><rect class="cls-1" x="305.96" y="255.62" width="12.01" height="12.01"/><path class="cls-6" d="M318.47,268.14h-13v-13h13Zm-12-1h11v-11h-11Z"/><rect class="cls-1" x="321.29" y="255.62" width="12.01" height="12.01"/><path class="cls-6" d="M333.8,268.14h-13v-13h13Zm-12-1h11v-11h-11Z"/><polygon class="cls-1" points="352.15 255.62 352.15 282.28 340.14 282.28 340.14 267.63 336.62 267.63 336.62 255.62 352.15 255.62"/><path class="cls-6" d="M352.65,282.78h-13V268.13h-3.52v-13h16.53Zm-12-1h11V256.12H337.12v11h3.52Z"/><rect class="cls-1" x="156.14" y="270.26" width="12.01" height="12.01"/><path class="cls-6" d="M168.65,282.78h-13v-13h13Zm-12-1h11v-11h-11Z"/><rect class="cls-1" x="171.47" y="270.26" width="12.01" height="12.01"/><path class="cls-6" d="M184,282.78H171v-13h13Zm-12-1h11v-11H172Z"/><rect class="cls-1" x="186.8" y="270.26" width="12.01" height="12.01"/><path class="cls-6" d="M199.32,282.78h-13v-13h13Zm-12-1h11v-11h-11Z"/><rect class="cls-1" x="202.14" y="270.26" width="12.01" height="12.01"/><path class="cls-6" d="M214.65,282.78h-13v-13h13Zm-12-1h11v-11h-11Z"/><rect class="cls-1" x="217.47" y="270.26" width="12.01" height="12.01"/><path class="cls-6" d="M230,282.78H217v-13h13Zm-12-1h11v-11H218Z"/><rect class="cls-1" x="232.81" y="270.26" width="12.01" height="12.01"/><path class="cls-6" d="M245.32,282.78h-13v-13h13Zm-12-1h11v-11h-11Z"/><rect class="cls-1" x="248.14" y="270.26" width="12.01" height="12.01"/><path class="cls-6" d="M260.65,282.78h-13v-13h13Zm-12-1h11v-11h-11Z"/><rect class="cls-1" x="263.47" y="270.26" width="12.01" height="12.01"/><path class="cls-6" d="M276,282.78H263v-13h13Zm-12-1h11v-11H264Z"/><rect class="cls-1" x="278.81" y="270.26" width="12.01" height="12.01"/><path class="cls-6" d="M291.32,282.78h-13v-13h13Zm-12-1h11v-11h-11Z"/><rect class="cls-1" x="294.14" y="270.26" width="12.01" height="12.01"/><path class="cls-6" d="M306.65,282.78h-13v-13h13Zm-12-1h11v-11h-11Z"/><rect class="cls-1" x="309.47" y="270.26" width="12.01" height="12.01"/><path class="cls-6" d="M322,282.78H309v-13h13Zm-12-1h11v-11H310Z"/><rect class="cls-1" x="324.81" y="270.26" width="12.01" height="12.01"/><path class="cls-6" d="M337.32,282.78h-13v-13h13Zm-12-1h11v-11h-11Z"/><rect class="cls-1" x="149.62" y="284.9" width="12.01" height="12.01"/><path class="cls-6" d="M162.13,297.42h-13v-13h13Zm-12-1h11v-11h-11Z"/><rect class="cls-1" x="164.95" y="284.9" width="12.01" height="12.01"/><path class="cls-6" d="M177.47,297.42h-13v-13h13Zm-12-1h11v-11h-11Z"/><rect class="cls-1" x="180.29" y="284.9" width="12.01" height="12.01"/><path class="cls-6" d="M192.8,297.42h-13v-13h13Zm-12-1h11v-11h-11Z"/><rect class="cls-1" x="195.62" y="284.9" width="12.01" height="12.01"/><path class="cls-6" d="M208.13,297.42h-13v-13h13Zm-12-1h11v-11h-11Z"/><rect class="cls-1" x="210.95" y="284.9" width="12.01" height="12.01"/><path class="cls-6" d="M223.47,297.42h-13v-13h13Zm-12-1h11v-11h-11Z"/><rect class="cls-1" x="226.29" y="284.9" width="12.01" height="12.01"/><path class="cls-6" d="M238.8,297.42h-13v-13h13Zm-12-1h11v-11h-11Z"/><rect class="cls-1" x="241.62" y="284.9" width="12.01" height="12.01"/><path class="cls-6" d="M254.14,297.42h-13v-13h13Zm-12-1h11v-11h-11Z"/><rect class="cls-1" x="256.96" y="284.9" width="12.01" height="12.01"/><path class="cls-6" d="M269.47,297.42h-13v-13h13Zm-12-1h11v-11h-11Z"/><rect class="cls-1" x="272.29" y="284.9" width="12.01" height="12.01"/><path class="cls-6" d="M284.8,297.42h-13v-13h13Zm-12-1h11v-11h-11Z"/><rect class="cls-1" x="287.62" y="284.9" width="12.01" height="12.01"/><path class="cls-6" d="M300.14,297.42h-13v-13h13Zm-12-1h11v-11h-11Z"/><rect class="cls-1" x="302.96" y="284.9" width="12.01" height="12.01"/><path class="cls-6" d="M315.47,297.42h-13v-13h13Zm-12-1h11v-11h-11Z"/><rect class="cls-1" x="156.14" y="227.06" width="12.01" height="12.01"/><path class="cls-6" d="M168.65,239.58h-13v-13h13Zm-12-1h11v-11h-11Z"/><rect class="cls-1" x="171.47" y="227.06" width="12.01" height="12.01"/><path class="cls-6" d="M184,239.58H171v-13h13Zm-12-1h11v-11H172Z"/><rect class="cls-1" x="186.8" y="227.06" width="12.01" height="12.01"/><path class="cls-6" d="M199.32,239.58h-13v-13h13Zm-12-1h11v-11h-11Z"/><rect class="cls-1" x="202.14" y="227.06" width="12.01" height="12.01"/><path class="cls-6" d="M214.65,239.58h-13v-13h13Zm-12-1h11v-11h-11Z"/><rect class="cls-1" x="217.47" y="227.06" width="12.01" height="12.01"/><path class="cls-6" d="M230,239.58H217v-13h13Zm-12-1h11v-11H218Z"/><rect class="cls-1" x="232.81" y="227.06" width="12.01" height="12.01"/><path class="cls-6" d="M245.32,239.58h-13v-13h13Zm-12-1h11v-11h-11Z"/><rect class="cls-1" x="248.14" y="227.06" width="12.01" height="12.01"/><path class="cls-6" d="M260.65,239.58h-13v-13h13Zm-12-1h11v-11h-11Z"/><rect class="cls-1" x="263.47" y="227.06" width="12.01" height="12.01"/><path class="cls-6" d="M276,239.58H263v-13h13Zm-12-1h11v-11H264Z"/><rect class="cls-1" x="278.81" y="227.06" width="12.01" height="12.01"/><path class="cls-6" d="M291.32,239.58h-13v-13h13Zm-12-1h11v-11h-11Z"/><rect class="cls-1" x="294.14" y="227.06" width="12.01" height="12.01"/><path class="cls-6" d="M306.65,239.58h-13v-13h13Zm-12-1h11v-11h-11Z"/><rect class="cls-1" x="309.47" y="227.06" width="12.01" height="12.01"/><path class="cls-6" d="M322,239.58H309v-13h13Zm-12-1h11v-11H310Z"/><rect class="cls-1" x="324.81" y="227.06" width="12.01" height="12.01"/><path class="cls-6" d="M337.32,239.58h-13v-13h13Zm-12-1h11v-11h-11Z"/><rect class="cls-1" x="340.14" y="227.06" width="12.01" height="12.01"/><path class="cls-6" d="M352.65,239.58h-13v-13h13Zm-12-1h11v-11h-11Z"/><rect class="cls-1" x="131.64" y="284.9" width="14.55" height="12.01"/><path class="cls-6" d="M146.7,297.42H131.14v-13H146.7Zm-14.56-1H145.7v-11H132.14Z"/><polygon class="cls-6" points="126.82 221.08 131.64 219.48 354.36 219.48 357.53 221.06 126.82 221.08"/></g><g id="Coffee"><path class="cls-6" d="M404.58,218a41.95,41.95,0,1,1,41.94-41.95A42,42,0,0,1,404.58,218Zm0-82.89a40.95,40.95,0,1,0,40.94,40.94A41,41,0,0,0,404.58,135.15Z"/><g class="cls-5"><path d="M451.5,177.18c-8.84,14.49-12,12.53-42.12,27-15.31,7.34-30.1-16.23-20.09-40.42.49-1.18,4.81-7.15,4.81-7.15a22.08,22.08,0,0,1,38.58-9.12,23.84,23.84,0,0,1,21.18-5.06c.35,1,.68,2,1,3,.12.38.25.75.36,1.13.38,1.17.74,2.34,1.07,3.52q1,3.36,1.84,6.76a13.55,13.55,0,0,0-9.84.59c-2.21,1.08-4.06,2.86-6.36,3.74s-5.48.38-6.36-1.92c1.11,4.62,6,3.24,10.61,4.15C453.39,164.79,455.22,171.08,451.5,177.18Z"/></g><path class="cls-1" d="M437.89,170s7.41-1,10.94-.47A6.75,6.75,0,0,1,453.1,172a2.37,2.37,0,0,1,.51,1.33l.4,5.8a2.37,2.37,0,0,1-.64,1.79c-1.45,1.51-5.82,4.26-18.76,5.25C416.42,187.56,437.89,170,437.89,170Z"/><path class="cls-6" d="M432.69,186.75c-3.21,0-5.07-.76-5.69-2.29-1.81-4.53,9.3-13.77,10.57-14.81a.47.47,0,0,1,.25-.11c.3,0,7.53-1,11.08-.48a7.3,7.3,0,0,1,4.59,2.63,2.88,2.88,0,0,1,.62,1.6l.4,5.8a2.89,2.89,0,0,1-.78,2.18c-1.53,1.59-6,4.4-19.08,5.4C434,186.72,433.3,186.75,432.69,186.75Zm5.4-16.24c-3.37,2.77-11.45,10.35-10.16,13.58.53,1.32,2.83,1.87,6.65,1.58,12.71-1,17-3.61,18.43-5.09a1.87,1.87,0,0,0,.5-1.42l-.4-5.8a1.9,1.9,0,0,0-.4-1,6.3,6.3,0,0,0-3.95-2.27C445.61,169.58,439.12,170.38,438.09,170.51Z"/><path class="cls-1" d="M432.46,155a27.69,27.69,0,0,1,6.08,17.63c0,6.91-8,30.51-28.49,33.39-21.69,3-39.13-15.52-35.41-37.86C377.22,152.75,415.05,133.4,432.46,155Z"/><path class="cls-6" d="M405.43,206.88a31.24,31.24,0,0,1-22.55-9.44c-7.39-7.59-10.57-18.27-8.73-29.32,1.42-8.54,13.49-18.34,26.91-21.85,13.12-3.44,24.7-.35,31.79,8.46h0A28.19,28.19,0,0,1,439,172.67c0,6.07-7.55,30.89-28.93,33.88A33.69,33.69,0,0,1,405.43,206.88Zm6-61a40.25,40.25,0,0,0-10.1,1.36c-13.07,3.42-24.81,12.86-26.17,21-1.79,10.73,1.29,21.11,8.46,28.46A30.46,30.46,0,0,0,410,205.56c20.73-2.9,28.06-27,28.06-32.89a27.23,27.23,0,0,0-6-17.31C426.1,147.93,418.24,145.88,411.41,145.88Z"/><ellipse class="cls-1" cx="405.96" cy="171.11" rx="31.47" ry="29.79"/><ellipse class="cls-6" cx="405.9" cy="172.67" rx="25.84" ry="24.45"/><path class="cls-6" d="M437.43,171.61a.5.5,0,0,1-.5-.5c0-16.14-13.89-29.28-31-29.28S375,155,375,171.11a.5.5,0,0,1-.5.5.5.5,0,0,1-.5-.5c0-16.7,14.35-30.28,32-30.28s32,13.58,32,30.28A.5.5,0,0,1,437.43,171.61Z"/><path class="cls-6" d="M429.13,191.78a.49.49,0,0,1-.35-.15.49.49,0,0,1,0-.7,28.34,28.34,0,0,0,8.16-19.82.51.51,0,0,1,.5-.5.5.5,0,0,1,.5.5,29.34,29.34,0,0,1-8.44,20.51A.52.52,0,0,1,429.13,191.78Z"/><path class="cls-6" d="M406,201.4a32.74,32.74,0,0,1-22.38-8.66.5.5,0,1,1,.68-.73A31.74,31.74,0,0,0,406,200.4a32.62,32.62,0,0,0,14.39-3.34.5.5,0,1,1,.44.89A33.44,33.44,0,0,1,406,201.4Z"/><path class="cls-6" d="M380.68,189.36a.52.52,0,0,1-.39-.19c-.46-.59-.91-1.21-1.33-1.83a.5.5,0,0,1,.14-.69.49.49,0,0,1,.69.13q.61.91,1.29,1.77a.5.5,0,0,1-.09.7A.51.51,0,0,1,380.68,189.36Z"/><path class="cls-6" d="M377.49,184.32a.49.49,0,0,1-.44-.27A28.68,28.68,0,0,1,374,171.11a.51.51,0,0,1,.5-.5.5.5,0,0,1,.5.5,27.68,27.68,0,0,0,2.95,12.49.5.5,0,0,1-.22.67A.48.48,0,0,1,377.49,184.32Z"/><path class="cls-1" d="M452.15,179.27s-5.61-3.93-14.72-.37"/><path class="cls-6" d="M452.15,179.77a.52.52,0,0,1-.29-.09c-.05,0-5.52-3.72-14.24-.31a.51.51,0,0,1-.37-.94c9.24-3.61,14.95.26,15.18.43a.5.5,0,0,1,.13.69A.52.52,0,0,1,452.15,179.77Z"/><path class="cls-1" d="M447.32,182a57.1,57.1,0,0,1-11.64,1.83"/><path class="cls-6" d="M435.68,184.32a.5.5,0,0,1,0-1,56.69,56.69,0,0,0,11.53-1.81.5.5,0,1,1,.29,1,59.33,59.33,0,0,1-11.74,1.85Z"/><path class="cls-1" d="M450.23,180.75a5.44,5.44,0,0,1-1.4.73"/><path class="cls-6" d="M448.83,182a.48.48,0,0,1-.46-.32.49.49,0,0,1,.28-.65,4.84,4.84,0,0,0,1.26-.64.5.5,0,0,1,.7.06.49.49,0,0,1-.05.7,5.22,5.22,0,0,1-1.55.81A.39.39,0,0,1,448.83,182Z"/></g><g id="Monitor"><g class="cls-5"></g><path class="cls-1" d="M409.72,50.09,74.25,51.62,79.32,44a13.17,13.17,0,0,1,10.94-5.85H393.82a13.14,13.14,0,0,1,10.24,4.91Z"/><path class="cls-6" d="M74.25,52.12a.5.5,0,0,1-.44-.27.49.49,0,0,1,0-.51l5.08-7.6a13.61,13.61,0,0,1,11.35-6.08H393.82a13.6,13.6,0,0,1,10.63,5.09l5.66,7a.51.51,0,0,1-.39.82L74.25,52.12Zm16-13.46a12.64,12.64,0,0,0-10.52,5.63l-4.55,6.82,333.48-1.52-5-6.21a12.57,12.57,0,0,0-9.85-4.72Z"/><rect class="cls-9" x="195.3" y="100.37" width="86.68" height="86.68" rx="34.15"/><path class="cls-6" d="M247.83,187.56H229.45a34.69,34.69,0,0,1-34.65-34.65V134.53a34.69,34.69,0,0,1,34.65-34.66h18.38a34.69,34.69,0,0,1,34.65,34.66v18.38A34.69,34.69,0,0,1,247.83,187.56Zm-18.38-86.69a33.69,33.69,0,0,0-33.65,33.66v18.38a33.69,33.69,0,0,0,33.65,33.65h18.38a33.69,33.69,0,0,0,33.65-33.65V134.53a33.7,33.7,0,0,0-33.65-33.66Z"/><path class="cls-10" d="M211.05,151v12.32a7,7,0,0,0,7,7h42.27a7,7,0,0,0,7-7c.05-5.55.35-12.37.35-12.37Z"/><path class="cls-6" d="M260.32,170.86H218.05a7.51,7.51,0,0,1-7.5-7.5V151a.5.5,0,0,1,.5-.5h56.62a.48.48,0,0,1,.36.15.47.47,0,0,1,.14.37c0,.07-.3,6.88-.35,12.35A7.53,7.53,0,0,1,260.32,170.86Zm-48.77-19.32v11.82a6.51,6.51,0,0,0,6.5,6.5h42.27a6.53,6.53,0,0,0,6.5-6.46c.05-4.6.26-10.16.33-11.86Z"/><path class="cls-11" d="M365.76,155.16H118.55a6.34,6.34,0,0,1-5.9-4L74.52,53.26a3.9,3.9,0,0,1,3.64-5.32h328a3.9,3.9,0,0,1,3.64,5.32l-38.13,97.86A6.34,6.34,0,0,1,365.76,155.16Z"/><path class="cls-6" d="M365.76,155.66H118.55a6.79,6.79,0,0,1-6.37-4.36L74.05,53.44a4.41,4.41,0,0,1,4.11-6h328a4.4,4.4,0,0,1,4.1,6L372.12,151.3A6.79,6.79,0,0,1,365.76,155.66ZM78.16,48.44A3.4,3.4,0,0,0,75,53.08l38.13,97.86a5.79,5.79,0,0,0,5.43,3.72H365.76a5.79,5.79,0,0,0,5.43-3.72l38.13-97.86a3.4,3.4,0,0,0-3.17-4.64Z"/><polygon class="cls-6" points="367.59 146.63 116.12 146.63 81.52 54.14 402.03 54.14 367.59 146.63"/><rect class="cls-6" x="211.32" y="155.02" width="56.06" height="3.84"/><path class="cls-12" d="M330.86,142.65H153.28c-1,0-1.9-.44-2.08-1L125.94,61.41c-.28-.9.51-1.63,1.77-1.63H356.43c1.26,0,2.05.73,1.76,1.63l-25.25,80.25C332.76,142.21,331.83,142.65,330.86,142.65Z"/><polygon class="cls-6" points="330.2 140.84 153.94 140.84 132.47 70.32 351.67 70.32 330.2 140.84"/><path class="cls-1" d="M179.24,87.83H145.87c-.83,0-1.37.44-1.21,1a1.81,1.81,0,0,0,1.76,1H179.6c.82,0,1.4-.44,1.3-1S180.06,87.83,179.24,87.83Z"/><path class="cls-1" d="M180.35,93.92H152c-.81,0-1.35.43-1.2,1a1.77,1.77,0,0,0,1.71,1H180.7c.81,0,1.38-.43,1.29-1S181.16,93.92,180.35,93.92Z"/><g class="cls-13"><path class="cls-1" d="M181.43,99.8h-32.2c-.8,0-1.32.42-1.18.92a1.76,1.76,0,0,0,1.7.92h32c.79,0,1.36-.41,1.27-.92S182.23,99.8,181.43,99.8Z"/></g><path class="cls-1" d="M182.47,105.48H163.56c-.78,0-1.32.4-1.2.89s.85.89,1.63.89H182.8c.78,0,1.34-.4,1.25-.89S183.25,105.48,182.47,105.48Z"/><path class="cls-1" d="M183.48,111H152.36c-.76,0-1.28.39-1.14.87s.86.85,1.63.85h30.94c.77,0,1.32-.38,1.23-.85S184.25,111,183.48,111Z"/><path class="cls-1" d="M184.45,116.27H159.33c-.76,0-1.27.37-1.15.83s.83.83,1.58.83h25c.75,0,1.29-.37,1.21-.83S185.21,116.27,184.45,116.27Z"/><path class="cls-1" d="M185.39,121.4H160.68c-.75,0-1.25.36-1.13.8s.81.81,1.55.81h24.59c.74,0,1.27-.36,1.19-.81S186.14,121.4,185.39,121.4Z"/><path class="cls-1" d="M186.3,126.36h-27c-.73,0-1.23.35-1.11.78s.8.78,1.53.78h26.83c.73,0,1.26-.35,1.18-.78S187,126.36,186.3,126.36Z"/><g class="cls-13"><path class="cls-1" d="M187.19,131.17H169.77c-.72,0-1.22.34-1.12.76s.77.75,1.48.75h17.33c.72,0,1.24-.34,1.16-.75S187.91,131.17,187.19,131.17Z"/></g><g class="cls-13"><path class="cls-1" d="M178.08,81.51H153.21c-.84,0-1.4.46-1.25,1a1.8,1.8,0,0,0,1.77,1h24.72c.84,0,1.43-.45,1.33-1A1.66,1.66,0,0,0,178.08,81.51Z"/></g><path class="cls-1" d="M176.87,75H142.25c-.85,0-1.41.48-1.24,1.07a1.92,1.92,0,0,0,1.84,1.06h34.41c.85,0,1.46-.48,1.35-1.06A1.69,1.69,0,0,0,176.87,75Z"/><path class="cls-1" d="M188,135.83H159.35c-.71,0-1.19.33-1.08.73s.78.73,1.49.73h28.55c.7,0,1.22-.32,1.14-.73S188.75,135.83,188,135.83Z"/><g class="cls-13"><polygon class="cls-1" points="190.96 90.05 197.43 90.05 197.11 87.58 190.59 87.58 190.96 90.05"/></g><g class="cls-13"><polygon class="cls-1" points="191.86 96.07 198.22 96.07 197.91 93.68 191.5 93.68 191.86 96.07"/></g><g class="cls-13"><polygon class="cls-1" points="192.73 101.87 198.98 101.87 198.68 99.57 192.39 99.57 192.73 101.87"/></g><g class="cls-13"><polygon class="cls-1" points="193.57 107.48 199.72 107.48 199.42 105.25 193.24 105.25 193.57 107.48"/></g><g class="cls-13"><polygon class="cls-1" points="194.39 112.9 200.43 112.9 200.15 110.75 194.06 110.75 194.39 112.9"/></g><g class="cls-13"><polygon class="cls-1" points="195.18 118.14 201.11 118.14 200.84 116.06 194.86 116.06 195.18 118.14"/></g><g class="cls-13"><polygon class="cls-1" points="195.94 123.21 201.78 123.21 201.51 121.2 195.63 121.2 195.94 123.21"/></g><g class="cls-13"><polygon class="cls-1" points="196.67 128.12 202.42 128.12 202.17 126.17 196.38 126.17 196.67 128.12"/></g><g class="cls-13"><polygon class="cls-1" points="197.39 132.87 203.05 132.87 202.8 130.98 197.1 130.98 197.39 132.87"/></g><g class="cls-13"><polygon class="cls-1" points="190.02 83.82 196.61 83.82 196.28 81.25 189.63 81.25 190.02 83.82"/></g><g class="cls-13"><polygon class="cls-1" points="189.05 77.35 195.76 77.35 195.41 74.69 188.65 74.69 189.05 77.35"/></g><g class="cls-13"><polygon class="cls-1" points="198.08 137.47 203.65 137.47 203.41 135.65 197.81 135.65 198.08 137.47"/></g><path class="cls-1" d="M232.19,127.14c0-.43.56-.78,1.29-.78H329.3c.73,0,1.22.35,1.1.78a1.62,1.62,0,0,1-1.54.78H233.53C232.8,127.92,232.2,127.57,232.19,127.14Z"/><path class="cls-1" d="M330.27,123H277.21c-.74,0-1.3-.36-1.25-.81s.69-.8,1.44-.8h53.33c.74,0,1.24.36,1.11.8S331,123,330.27,123Z"/><g class="cls-13"><path class="cls-1" d="M264.62,123H248.11c-.73,0-1.33-.36-1.32-.81s.61-.8,1.36-.8h16.59c.74,0,1.32.36,1.28.8S265.36,123,264.62,123Z"/></g><path class="cls-1" d="M299.06,117.93H224.22c-.75,0-1.38-.37-1.41-.83s.56-.83,1.32-.83h75.24c.75,0,1.3.37,1.21.83S299.82,117.93,299.06,117.93Z"/><g class="cls-13"><path class="cls-1" d="M208.57,116.27h5.34c.75,0,1.4.37,1.44.83s-.54.83-1.29.83h-5.31c-.75,0-1.4-.37-1.45-.83S207.82,116.27,208.57,116.27Z"/></g><path class="cls-1" d="M309.89,111.83c-.1.47-.8.85-1.57.85H237.8c-.77,0-1.39-.38-1.4-.85s.61-.87,1.37-.87h70.91C309.45,111,310,111.35,309.89,111.83Z"/><path class="cls-1" d="M208,111h20c.77,0,1.41.39,1.43.87s-.59.85-1.35.85H208.19c-.76,0-1.42-.38-1.48-.85S207.24,111,208,111Z"/><path class="cls-1" d="M207.42,105.48h76.93c.79,0,1.37.4,1.3.89s-.75.89-1.53.89H207.61c-.77,0-1.45-.4-1.5-.89S206.64,105.48,207.42,105.48Z"/><path class="cls-1" d="M257.37,101.64c-.79,0-1.41-.41-1.39-.92s.68-.92,1.48-.92h40.59c.8,0,1.37.42,1.28.92s-.8.92-1.59.92Z"/><path class="cls-1" d="M206.82,99.8H242c.8,0,1.44.42,1.44.92s-.65.92-1.44.92H207c-.79,0-1.47-.41-1.53-.92S206,99.8,206.82,99.8Z"/><path class="cls-1" d="M338.06,95.83h-96.7c-.8,0-1.46-.43-1.46-1s.65-1,1.46-1h97.25c.81,0,1.34.43,1.19,1A1.82,1.82,0,0,1,338.06,95.83Z"/><path class="cls-1" d="M339.79,89.81H254.7c-.82,0-1.47-.44-1.45-1s.7-1,1.52-1h85.59c.82,0,1.36.44,1.2,1A1.84,1.84,0,0,1,339.79,89.81Z"/><g class="cls-13"><path class="cls-1" d="M341.58,83.56H323.77c-.84,0-1.41-.45-1.28-1a1.77,1.77,0,0,1,1.76-1h17.92c.84,0,1.39.46,1.22,1A1.87,1.87,0,0,1,341.58,83.56Z"/></g><path class="cls-1" d="M311.3,83.56H245.87c-.83,0-1.51-.45-1.5-1s.68-1,1.52-1h65.82c.84,0,1.42.46,1.31,1A1.71,1.71,0,0,1,311.3,83.56Z"/><path class="cls-1" d="M210.16,131.17h60.43c.72,0,1.27.34,1.22.76s-.65.75-1.37.75H210.32c-.71,0-1.33-.34-1.38-.75S209.44,131.17,210.16,131.17Z"/><path class="cls-1" d="M210.66,135.83H303.5c.7,0,1.21.33,1.12.73s-.73.73-1.43.73H210.82c-.71,0-1.32-.32-1.36-.73S210,135.83,210.66,135.83Z"/><path class="cls-1" d="M308.05,77.09H260.79c-.85,0-1.51-.48-1.48-1.06s.74-1.07,1.6-1.07h47.54c.86,0,1.46.48,1.34,1.07A1.72,1.72,0,0,1,308.05,77.09Z"/><g class="cls-13"><path class="cls-1" d="M247.39,77.09h-43c-.85,0-1.6-.48-1.66-1.06s.57-1.07,1.43-1.07h43.25c.85,0,1.54.48,1.53,1.07S248.24,77.09,247.39,77.09Z"/></g><g class="cls-13"><path class="cls-1" d="M284,131.17c.72,0,1.26.34,1.2.76s-.69.75-1.41.75h-4.67c-.71,0-1.25-.34-1.2-.75s.67-.76,1.39-.76Z"/></g><g class="cls-13"><path class="cls-1" d="M226.68,127.14c0,.43-.55.78-1.28.78H219c-.73,0-1.35-.35-1.38-.78s.53-.78,1.26-.78h6.39C226,126.36,226.66,126.71,226.68,127.14Z"/></g><g class="cls-13"><path class="cls-1" d="M303.43,106.37c-.09.49-.8.89-1.57.89h-7.44c-.78,0-1.35-.4-1.27-.89s.78-.89,1.56-.89h7.48C303,105.48,303.53,105.88,303.43,106.37Z"/></g><g class="cls-13"><path class="cls-1" d="M326.64,111c.77,0,1.29.39,1.16.87a1.66,1.66,0,0,1-1.61.85h-5.93c-.77,0-1.29-.38-1.18-.85a1.62,1.62,0,0,1,1.6-.87Z"/></g><g class="cls-13"><path class="cls-1" d="M229.65,95.83c-.8,0-1.47-.43-1.5-1s.62-1,1.43-1h6.31c.81,0,1.47.43,1.48,1s-.64,1-1.44,1Z"/></g><path class="cls-1" d="M143.71,65a2.13,2.13,0,0,1-2.1,2.95A4.44,4.44,0,0,1,137.67,65a2.13,2.13,0,0,1,2.08-3A4.42,4.42,0,0,1,143.71,65Z"/><path class="cls-1" d="M151.85,65.09a2.2,2.2,0,0,1-2.2,3,4.27,4.27,0,0,1-3.84-3,2.21,2.21,0,0,1,2.18-3A4.24,4.24,0,0,1,151.85,65.09Z"/><path class="cls-1" d="M160.08,65A2.27,2.27,0,0,1,157.79,68,4.09,4.09,0,0,1,154,65a2.28,2.28,0,0,1,2.28-3A4.06,4.06,0,0,1,160.08,65Z"/><g class="cls-14"><polygon class="cls-1" points="81.52 54.14 108.47 126.17 140.98 54.14 81.52 54.14"/></g><g class="cls-14"><polygon class="cls-1" points="126.99 146.63 180.91 54.14 237.37 54.14 158 146.63 126.99 146.63"/></g><g class="cls-14"><polygon class="cls-1" points="261.7 53.69 177.64 146.63 190.59 146.63 277.66 54.14 261.7 53.69"/></g><g class="cls-14"><polygon class="cls-1" points="278.3 146.63 370.68 54.14 383.72 54.14 288.47 146.63 278.3 146.63"/></g></g><g id="Code"><path class="cls-1" d="M153,186.77H132a5,5,0,0,0-5,5V202a5,5,0,0,0,5,5h5.51l4.18,9.47,5.89-9.47H153a5,5,0,0,0,5-5V191.73A5,5,0,0,0,153,186.77Z"/><path class="cls-6" d="M141.64,216.92h0a.51.51,0,0,1-.42-.3l-4.05-9.17H132a5.47,5.47,0,0,1-5.46-5.46V191.73a5.47,5.47,0,0,1,5.46-5.46H153a5.47,5.47,0,0,1,5.46,5.46V202a5.47,5.47,0,0,1-5.46,5.46h-5.23l-5.75,9.23A.49.49,0,0,1,141.64,216.92ZM132,187.27a4.46,4.46,0,0,0-4.46,4.46V202a4.46,4.46,0,0,0,4.46,4.46h5.51a.51.51,0,0,1,.46.3l3.79,8.6,5.39-8.66a.51.51,0,0,1,.43-.24H153A4.46,4.46,0,0,0,157.5,202V191.73a4.46,4.46,0,0,0-4.46-4.46Z"/><path class="cls-6" d="M139.56,192.64a1,1,0,0,1,1-1,1,1,0,0,1,1,.93,1,1,0,0,1-1,1A1,1,0,0,1,139.56,192.64Zm.22,2.09h1.61v6.86h-1.61Z"/><path class="cls-6" d="M145.26,194.37v.41h1.89v1.29h-1.83v5.52h-1.61v-5.52h-1.13v-1.29h1.13v-.43a2.22,2.22,0,0,1,2.45-2.38,2.64,2.64,0,0,1,1.46.37l-.45,1.21a1.59,1.59,0,0,0-.89-.28C145.61,193.27,145.26,193.64,145.26,194.37Z"/><path class="cls-1" d="M217.26,188.2h-21.1a5,5,0,0,0-5,5v10.27a5,5,0,0,0,5,5h5.52l4.17,9.47,5.89-9.47h5.52a5,5,0,0,0,5-5V193.16A5,5,0,0,0,217.26,188.2Z"/><path class="cls-6" d="M205.85,218.36h0a.5.5,0,0,1-.42-.3l-4.05-9.17h-5.19a5.47,5.47,0,0,1-5.46-5.46V193.16a5.47,5.47,0,0,1,5.46-5.46h21.1a5.47,5.47,0,0,1,5.46,5.46v10.27a5.47,5.47,0,0,1-5.46,5.46H212l-5.74,9.23A.5.5,0,0,1,205.85,218.36Zm-9.69-29.66a4.46,4.46,0,0,0-4.46,4.46v10.27a4.46,4.46,0,0,0,4.46,4.46h5.52a.49.49,0,0,1,.45.29l3.8,8.61,5.39-8.67a.48.48,0,0,1,.42-.23h5.52a4.46,4.46,0,0,0,4.46-4.46V193.16a4.46,4.46,0,0,0-4.46-4.46Z"/><path class="cls-6" d="M200.6,200.11h-5.39a2.08,2.08,0,0,0,2.23,1.65,2.46,2.46,0,0,0,1.86-.75l.86,1a3.85,3.85,0,0,1-6.55-2.4,3.41,3.41,0,0,1,3.54-3.51,3.34,3.34,0,0,1,3.47,3.55C200.62,199.77,200.61,200,200.6,200.11Zm-5.4-1.06h3.89a1.86,1.86,0,0,0-1.94-1.67A1.89,1.89,0,0,0,195.2,199.05Z"/><path class="cls-6" d="M202.16,193.5h1.6V203h-1.6Z"/><path class="cls-6" d="M205.09,202.35l.61-1.22a4.62,4.62,0,0,0,2.39.68c1,0,1.44-.28,1.44-.76,0-1.31-4.24-.08-4.24-2.81,0-1.3,1.17-2.15,3-2.15a5.51,5.51,0,0,1,2.57.59l-.62,1.22a3.78,3.78,0,0,0-2-.51c-1,0-1.44.32-1.44.77,0,1.39,4.24.15,4.24,2.84,0,1.28-1.18,2.12-3.11,2.12A5.4,5.4,0,0,1,205.09,202.35Z"/><path class="cls-6" d="M218.91,200.11h-5.39a2.08,2.08,0,0,0,2.23,1.65,2.46,2.46,0,0,0,1.86-.75l.86,1a3.85,3.85,0,0,1-6.55-2.4,3.41,3.41,0,0,1,3.54-3.51,3.34,3.34,0,0,1,3.47,3.55C218.93,199.77,218.92,200,218.91,200.11Zm-5.4-1.06h3.89a1.86,1.86,0,0,0-1.94-1.67A1.89,1.89,0,0,0,213.51,199.05Z"/><path class="cls-1" d="M279.52,187.6h-21.1a5,5,0,0,0-5,5v10.27a5,5,0,0,0,5,5h5.52l4.17,9.47,5.89-9.47h5.52a5,5,0,0,0,5-5V192.55A5,5,0,0,0,279.52,187.6Z"/><path class="cls-6" d="M268.11,217.75h0a.5.5,0,0,1-.42-.3l-4.05-9.17h-5.19a5.47,5.47,0,0,1-5.46-5.46V192.55a5.46,5.46,0,0,1,5.46-5.45h21.1a5.46,5.46,0,0,1,5.46,5.45v10.27a5.47,5.47,0,0,1-5.46,5.46h-5.24l-5.74,9.23A.5.5,0,0,1,268.11,217.75Zm-9.69-29.65a4.46,4.46,0,0,0-4.46,4.45v10.27a4.46,4.46,0,0,0,4.46,4.46h5.52a.49.49,0,0,1,.45.3l3.8,8.6,5.39-8.67a.5.5,0,0,1,.42-.23h5.52a4.46,4.46,0,0,0,4.46-4.46V192.55a4.46,4.46,0,0,0-4.46-4.45Z"/><path class="cls-6" d="M263.26,195.2v.41h1.89v1.29h-1.84v5.52h-1.6V196.9h-1.13v-1.29h1.13v-.43a2.22,2.22,0,0,1,2.45-2.38,2.54,2.54,0,0,1,1.45.37l-.45,1.21a1.54,1.54,0,0,0-.88-.28C263.61,194.1,263.26,194.47,263.26,195.2Z"/><path class="cls-6" d="M265.56,199a3.66,3.66,0,1,1,3.65,3.52A3.46,3.46,0,0,1,265.56,199Zm5.69,0a2,2,0,1,0-2,2.15A2,2,0,0,0,271.25,199Z"/><path class="cls-6" d="M278.37,195.48V197a2.6,2.6,0,0,0-.37,0,1.87,1.87,0,0,0-2,2.12v3.33H274.4v-6.86h1.53v1A2.71,2.71,0,0,1,278.37,195.48Z"/><path class="cls-1" d="M340.88,186.77h-21.1a5,5,0,0,0-5,5V202a5,5,0,0,0,5,5h5.52l4.17,9.47,5.89-9.47h5.52a5,5,0,0,0,5-5V191.73A5,5,0,0,0,340.88,186.77Z"/><path class="cls-6" d="M329.47,216.92h0a.5.5,0,0,1-.42-.3l-4-9.17h-5.19a5.47,5.47,0,0,1-5.46-5.46V191.73a5.47,5.47,0,0,1,5.46-5.46h21.1a5.47,5.47,0,0,1,5.46,5.46V202a5.47,5.47,0,0,1-5.46,5.46h-5.24l-5.74,9.23A.5.5,0,0,1,329.47,216.92Zm-9.69-29.65a4.46,4.46,0,0,0-4.46,4.46V202a4.46,4.46,0,0,0,4.46,4.46h5.52a.5.5,0,0,1,.45.3l3.8,8.6,5.39-8.66a.49.49,0,0,1,.42-.24h5.52a4.46,4.46,0,0,0,4.46-4.46V191.73a4.46,4.46,0,0,0-4.46-4.46Z"/><path class="cls-6" d="M327.59,194.39h5.92v1.29h-5.92Zm0,3.11h5.92v1.29h-5.92Z"/><path class="cls-1" d="M185.2,174.89H164.1a5,5,0,0,0-5,5v10.26a5,5,0,0,0,5,5h5.52l4.17,9.47,5.89-9.47h5.52a5,5,0,0,0,5-5V179.85A5,5,0,0,0,185.2,174.89Z"/><path class="cls-6" d="M173.79,205h0a.48.48,0,0,1-.42-.3l-4.05-9.17H164.1a5.47,5.47,0,0,1-5.46-5.46V179.85a5.47,5.47,0,0,1,5.46-5.46h21.1a5.47,5.47,0,0,1,5.46,5.46v10.26a5.47,5.47,0,0,1-5.46,5.46H180l-5.74,9.23A.5.5,0,0,1,173.79,205Zm-9.69-29.65a4.46,4.46,0,0,0-4.46,4.46v10.26a4.46,4.46,0,0,0,4.46,4.46h5.52a.5.5,0,0,1,.45.3l3.8,8.6,5.39-8.66a.49.49,0,0,1,.42-.24h5.52a4.46,4.46,0,0,0,4.46-4.46V179.85a4.46,4.46,0,0,0-4.46-4.46Z"/><path class="cls-6" d="M169.69,179.15h3.07v1.29h-1.47v9.45h1.47v1.29h-3.07Z"/><path class="cls-6" d="M176.74,191.18v-1.29h1.45v-9.45h-1.45v-1.29h3v12Z"/><path class="cls-1" d="M247.92,173.84h-21.1a5,5,0,0,0-5,5v10.26a5,5,0,0,0,5,5h5.52l4.17,9.47,5.9-9.47h5.51a5,5,0,0,0,5-5V178.8A5,5,0,0,0,247.92,173.84Z"/><path class="cls-6" d="M236.51,204h0a.49.49,0,0,1-.42-.3L232,194.52h-5.19a5.47,5.47,0,0,1-5.46-5.46V178.8a5.47,5.47,0,0,1,5.46-5.46h21.1a5.47,5.47,0,0,1,5.46,5.46v10.26a5.47,5.47,0,0,1-5.46,5.46h-5.24l-5.74,9.23A.5.5,0,0,1,236.51,204Zm-9.69-29.65a4.46,4.46,0,0,0-4.46,4.46v10.26a4.46,4.46,0,0,0,4.46,4.46h5.52a.49.49,0,0,1,.45.3l3.8,8.6,5.39-8.66a.5.5,0,0,1,.43-.24h5.51a4.46,4.46,0,0,0,4.46-4.46V178.8a4.46,4.46,0,0,0-4.46-4.46Z"/><path class="cls-6" d="M233.08,184.08c.51.16.76.51.76,1.31v2.44a.86.86,0,0,0,.95,1h.27v1.29h-.65a1.91,1.91,0,0,1-2.18-2.1v-2.64c0-.43-.22-.62-.58-.62h-.42v-1.31h.42c.36,0,.58-.19.58-.62v-2.64a1.91,1.91,0,0,1,2.18-2.1h.65v1.29h-.27a.86.86,0,0,0-.95,1v2.44C233.84,183.56,233.59,183.91,233.08,184.08Z"/><path class="cls-6" d="M242.88,183.42v1.31h-.44c-.35,0-.57.19-.57.62V188a1.91,1.91,0,0,1-2.19,2.1H239V188.8h.27a.87.87,0,0,0,1-1v-2.44c0-.8.23-1.15.74-1.31-.51-.17-.74-.52-.74-1.32v-2.44a.87.87,0,0,0-1-1H239v-1.29h.65a1.91,1.91,0,0,1,2.19,2.1v2.64c0,.43.22.62.57.62Z"/><path class="cls-1" d="M310,171.76H288.88a5,5,0,0,0-5,5V187a5,5,0,0,0,5,5h5.51l4.18,9.47,5.89-9.47H310a5,5,0,0,0,5-5V176.72A5,5,0,0,0,310,171.76Z"/><path class="cls-6" d="M298.57,201.91h0a.51.51,0,0,1-.43-.3l-4-9.17h-5.19a5.47,5.47,0,0,1-5.46-5.46V176.72a5.47,5.47,0,0,1,5.46-5.46H310a5.47,5.47,0,0,1,5.46,5.46V187a5.47,5.47,0,0,1-5.46,5.46h-5.23L299,201.67A.52.52,0,0,1,298.57,201.91Zm-9.69-29.65a4.46,4.46,0,0,0-4.46,4.46V187a4.46,4.46,0,0,0,4.46,4.46h5.51a.51.51,0,0,1,.46.3l3.8,8.6,5.39-8.66a.49.49,0,0,1,.42-.24H310a4.46,4.46,0,0,0,4.46-4.46V176.72a4.46,4.46,0,0,0-4.46-4.46Z"/><path class="cls-6" d="M298.59,179.36a1.06,1.06,0,1,1,2.11,0,1.06,1.06,0,1,1-2.11,0Zm2.11,4.89a3,3,0,0,1-.3,1.11l-.66,1.81h-1l.52-2a1,1,0,0,1-.61-.95,1,1,0,1,1,2.09,0Z"/><path class="cls-1" d="M227.5,351.2h21.09a5,5,0,0,0,5-5V336a5,5,0,0,0-5-5h-5.51l-1.61-9.47L233,331H227.5a5,5,0,0,0-5,5v10.26A5,5,0,0,0,227.5,351.2Z"/><path class="cls-6" d="M248.59,351.7H227.5a5.47,5.47,0,0,1-5.46-5.46V336a5.47,5.47,0,0,1,5.46-5.46h5.29l8.31-9.31a.5.5,0,0,1,.86.25l1.54,9.06h5.09a5.47,5.47,0,0,1,5.46,5.46v10.26A5.47,5.47,0,0,1,248.59,351.7ZM227.5,331.52A4.46,4.46,0,0,0,223,336v10.26a4.46,4.46,0,0,0,4.46,4.46h21.09a4.46,4.46,0,0,0,4.46-4.46V336a4.46,4.46,0,0,0-4.46-4.46h-5.51a.5.5,0,0,1-.49-.42l-1.44-8.45-7.77,8.7a.48.48,0,0,1-.37.17Z"/><path class="cls-6" d="M234.91,339l-4.43,1.66,4.43,1.65v1.34l-5.92-2.3V340l5.92-2.3Z"/><path class="cls-6" d="M239.59,334.33H241l-4.24,12.11h-1.44Z"/><path class="cls-6" d="M247.25,340v1.39l-5.92,2.3v-1.34l4.43-1.65L241.33,339v-1.34Z"/><path class="cls-1" d="M93.38,276.45h21.09a5,5,0,0,0,5-4.95V261.23a5,5,0,0,0-5-5H109l1.2-9.47-11.27,9.47H93.38a5,5,0,0,0-5,5V271.5A5,5,0,0,0,93.38,276.45Z"/><path class="cls-6" d="M114.47,277H93.38a5.46,5.46,0,0,1-5.46-5.46V261.23a5.47,5.47,0,0,1,5.46-5.46h5.33l11.13-9.35a.5.5,0,0,1,.82.45l-1.13,8.9h4.94a5.47,5.47,0,0,1,5.46,5.46v10.26A5.46,5.46,0,0,1,114.47,277ZM93.38,256.77a4.46,4.46,0,0,0-4.46,4.46v10.26A4.46,4.46,0,0,0,93.38,276h21.09a4.46,4.46,0,0,0,4.46-4.46V261.23a4.46,4.46,0,0,0-4.46-4.46H109a.52.52,0,0,1-.38-.17.51.51,0,0,1-.12-.39l1-8.2-10.29,8.65a.52.52,0,0,1-.32.11Z"/><path class="cls-6" d="M99.63,270a1,1,0,0,1,1-1,1,1,0,0,1,1,1,1,1,0,0,1-1,1A1,1,0,0,1,99.63,270Zm.09-8.09h1.9l-.32,6H100Z"/><path class="cls-6" d="M103.28,264.16h5.92v1.29h-5.92Zm0,3.11h5.92v1.29h-5.92Z"/></g><g id="Mouse"><path class="cls-1" d="M431.17,264.82a71.82,71.82,0,0,1-1,11.86c-2.9,17.31-12,29.93-22.76,29.93a13.68,13.68,0,0,1-2.86-.3c-11.75-2.49-20.86-20.11-20.86-41.49,0-23.08,10.62-31.25,23.72-31.25S431.17,241.74,431.17,264.82Z"/><path class="cls-6" d="M407.44,307.11a14.32,14.32,0,0,1-3-.31c-12.12-2.57-21.26-20.62-21.26-42,0-27.62,15.17-31.75,24.22-31.75s24.23,4.13,24.23,31.75a72.36,72.36,0,0,1-1,11.95C427.7,294.63,418.14,307.11,407.44,307.11Zm0-73c-10.6,0-23.22,5.34-23.22,30.75,0,20.9,8.8,38.53,20.46,41a13.15,13.15,0,0,0,2.76.29c10.2,0,19.35-12.13,22.27-29.51a71.39,71.39,0,0,0,1-11.78C430.67,239.41,418,234.07,407.44,234.07Z"/><g class="cls-15"><path class="cls-16" d="M422.57,265.08c.88,12.38-1.24,24.82-4.81,36.71,8.94-7.34,13.05-18.88,16.77-29.83,2.7-7.95,5.43-16.15,4.94-24.53s-5-17.11-12.84-20a17.13,17.13,0,0,0-12.13.19c-6.59,2.65-3,4.79-.21,9.53A64.6,64.6,0,0,1,422.57,265.08Z"/><g class="cls-13"><path class="cls-1" d="M422.57,265.08c.88,12.38-1.24,24.82-4.81,36.71,8.94-7.34,13.05-18.88,16.77-29.83,2.7-7.95,5.43-16.15,4.94-24.53s-5-17.11-12.84-20a17.13,17.13,0,0,0-12.13.19c-6.59,2.65-3,4.79-.21,9.53A64.6,64.6,0,0,1,422.57,265.08Z"/></g></g><path class="cls-1" d="M420.19,286.05a41,41,0,0,1-7.79,14.6"/><path class="cls-6" d="M412.79,301l-.77-.64a40.68,40.68,0,0,0,7.69-14.42l1,.29A41.93,41.93,0,0,1,412.79,301Z"/><path class="cls-6" d="M421,285l-1-.26c.14-.55.28-1.11.4-1.66l1,.21C421.3,283.83,421.16,284.39,421,285Z"/><path class="cls-1" d="M420.88,264.76a40.77,40.77,0,0,1,.47,16.28"/><path class="cls-6" d="M421.85,281.13l-1-.17a40.41,40.41,0,0,0-.47-16.08l1-.23A41.84,41.84,0,0,1,421.85,281.13Z"/><path class="cls-6" d="M383.9,265.28l-.37-.93c.27-.1,27.42-10.62,47.87,0l-.46.88C410.88,254.83,384.17,265.18,383.9,265.28Z"/><path class="cls-1" d="M407.44,233.57s2.7,10,3,26.27"/><path class="cls-6" d="M410,259.85c-.3-16-3-26.05-3-26.15l1-.26c0,.1,2.72,10.25,3,26.39Z"/><path class="cls-11" d="M411.2,245.74c.35,3.11-.19,5.75-1.2,5.91s-2.11-2.23-2.45-5.33.19-5.76,1.2-5.92S410.86,242.63,411.2,245.74Z"/><path class="cls-6" d="M409.91,252.16a1.33,1.33,0,0,1-.81-.29c-1-.73-1.76-2.89-2.05-5.5-.34-3,.11-6.23,1.62-6.47a1.29,1.29,0,0,1,1,.29c1,.73,1.76,2.88,2.05,5.49h0c.34,3-.11,6.23-1.62,6.47Zm-1.07-11.27h0c-.48.08-1.14,2.17-.79,5.37.29,2.54,1,4.34,1.67,4.81a.36.36,0,0,0,.21.09c.48-.07,1.14-2.17.79-5.37-.29-2.54-1-4.34-1.66-4.81A.5.5,0,0,0,408.84,240.89Z"/></g></svg>
