<svg fill="#fff" id="Layer_4" data-name="Layer 4" xmlns="http://www.w3.org/2000/svg" xmlns:xlink="http://www.w3.org/1999/xlink" viewBox="0 0 1131.92 223.9"><defs><linearGradient id="linear-gradient" x1="1119.17" y1="16.2" x2="939.39" y2="227.44" gradientUnits="userSpaceOnUse"><stop offset="0" stop-color="#4b119c"/><stop offset="1" stop-color="#1b107d"/></linearGradient><linearGradient id="linear-gradient-2" x1="1136.82" y1="31.23" x2="957.04" y2="242.47" xlink:href="#linear-gradient"/><linearGradient id="linear-gradient-3" x1="1112" y1="10.11" x2="932.23" y2="221.35" xlink:href="#linear-gradient"/><linearGradient id="linear-gradient-4" x1="-31.34" y1="91.73" x2="163.32" y2="321.27" xlink:href="#linear-gradient"/><linearGradient id="linear-gradient-5" x1="18.87" y1="49.15" x2="213.53" y2="278.69" xlink:href="#linear-gradient"/><linearGradient id="linear-gradient-6" x1="129.16" y1="-44.38" x2="323.82" y2="185.16" xlink:href="#linear-gradient"/><linearGradient id="linear-gradient-7" x1="158" y1="-68.83" x2="352.66" y2="160.71" xlink:href="#linear-gradient"/><linearGradient id="linear-gradient-8" x1="338.84" y1="-222.18" x2="533.49" y2="7.36" xlink:href="#linear-gradient"/><linearGradient id="linear-gradient-9" x1="325" y1="-210.45" x2="519.65" y2="19.1" xlink:href="#linear-gradient"/><linearGradient id="linear-gradient-10" x1="347.84" y1="-229.82" x2="542.5" y2="-0.28" xlink:href="#linear-gradient"/><linearGradient id="linear-gradient-11" x1="436.64" y1="-305.12" x2="631.29" y2="-75.57" xlink:href="#linear-gradient"/></defs><title>Artboard 1</title><path class="cls-1" d="M1105.68,0h-136a26.27,26.27,0,0,0-26.24,26.24V197.66a26.27,26.27,0,0,0,26.24,26.24h136a26.28,26.28,0,0,0,26-22.85,25.29,25.29,0,0,0,.22-3.39V26.24A26.27,26.27,0,0,0,1105.68,0Zm8.75,198a8.43,8.43,0,0,1-7.5,8.39,7.46,7.46,0,0,1-1,.06H1091.8c-.25,0-.5,0-.74,0H960.93l8-8.75-8-8.75h141.45V189h3.6a8.45,8.45,0,0,1,8.45,8.45Zm0-35.31a8.75,8.75,0,0,1-8.75,8.74h-136a26.19,26.19,0,0,0-8.75,1.5V26.24a8.76,8.76,0,0,1,8.75-8.75h136a8.75,8.75,0,0,1,8.75,8.75Z"/><path class="cls-2" d="M1086.44,139.91a8.71,8.71,0,0,1-6.18-2.57l-43.17-43.16,43.45-43.46a8.75,8.75,0,0,1,12.37,12.37l-31.08,31.09,30.8,30.8a8.75,8.75,0,0,1-6.19,14.93Z"/><path class="cls-3" d="M1032,139.91H986a8.75,8.75,0,0,1,0-17.5h46a8.75,8.75,0,0,1,0,17.5Z"/><rect class="cls-4" x="42.96" y="179.7" width="14.97" height="16.93"/><path class="cls-5" d="M165.76,76.68a98.08,98.08,0,0,0-18.27,1.6,73,73,0,0,0-13.28,3.56A178.9,178.9,0,0,0,130.65,101,164.31,164.31,0,0,0,129,123.73a169.54,169.54,0,0,0,2.5,28.69H82.88V106.8q0-16.39-8-23.26t-22.1-6.86A145.66,145.66,0,0,0,33,78.37q-11.94,1.69-21.74,4l.53,11.94q29.06-2.85,37.08-2.85,17.28,0,17.29,17.11v44.2a53,53,0,0,0-12.48-4.37,72.44,72.44,0,0,0-16.76-1.87q-18.36,0-27.62,9.18T0,182.9q0,19.6,10.52,30.3T41,223.9a120.1,120.1,0,0,0,18.9-1.7q10.52-1.69,19.6-3.83l-2-13.19Q67.74,207,58.73,208a140.53,140.53,0,0,1-14.35,1q-13.73,0-20.5-6.51T17.11,184q0-22.46,22.81-22.45a56.16,56.16,0,0,1,14.17,1.87,65.61,65.61,0,0,1,12,4.19H209.07V123q0-24.6-10.07-35.47T165.76,76.68Zm26.38,75.74H148.29q-.89-4.8-1.69-12.74a156.71,156.71,0,0,1-.8-16,189.44,189.44,0,0,1,2.67-30.3,69.55,69.55,0,0,1,15-1.6q15,0,21.84,7.21t6.86,23.62Z"/><rect class="cls-6" x="320.29" y="181.83" width="16.22" height="17.47"/><path class="cls-7" d="M426.52,76.68a98.08,98.08,0,0,0-18.27,1.6A72.79,72.79,0,0,0,395,81.84,178.62,178.62,0,0,0,391.4,101a165.84,165.84,0,0,0-1.6,22.73,169.54,169.54,0,0,0,2.5,28.69H336.87v-74H319.93v74H268.78V78.64H252v93.57q0,11.58-4.1,18t-12.12,6.42q-3.75,0-9.63-.54v15l4.28.36a80.33,80.33,0,0,0,8.91.54q14.79,0,22.1-11.14t7.31-32.18v-1.06H469.83V123q0-24.6-10.07-35.47T426.52,76.68Zm26.38,75.74H409.05q-.9-4.8-1.69-12.74a156.72,156.72,0,0,1-.81-16,189.52,189.52,0,0,1,2.68-30.3,69.55,69.55,0,0,1,15-1.6q15,0,21.83,7.21t6.87,23.62Z"/><rect class="cls-8" x="681.21" y="181.83" width="14.97" height="17.11"/><rect class="cls-9" x="657.33" y="181.83" width="15.15" height="17.11"/><path class="cls-10" d="M734,152.42H685.49v-74H668.56v74H621.33V40.67H604.4V171.32q0,11.58-8.65,18.45t-21.48,6.86a37.91,37.91,0,0,1-15.95-3.3A27.58,27.58,0,0,1,547,184.24a21.87,21.87,0,0,1-4.1-12.92q0-5,1.88-19.87t4.54-31.82l-16-.89q-6.94,41.7-6.95,54a33.7,33.7,0,0,0,6.33,20,42.5,42.5,0,0,0,17.37,14,62.71,62.71,0,0,0,48.4.44,39.18,39.18,0,0,0,16.75-13.36,34.72,34.72,0,0,0,6.15-20.5v-5.7H750.9V40.67H734Z"/><path class="cls-11" d="M841.8,100.38q-6.24-13.55-16.66-19.69a44.93,44.93,0,0,0-23.26-6.15,77.75,77.75,0,0,0-11.41.89,56.66,56.66,0,0,0-8.73,1.78L783,89.86h15.5q13.18,0,23,10.43T831.29,136v16.39H773.54v15.16H848V135.14Q848,113.93,841.8,100.38Z"/></svg>
