<?xml version="1.0"?>
<svg xmlns="http://www.w3.org/2000/svg" xmlns:xlink="http://www.w3.org/1999/xlink" xmlns:svgjs="http://svgjs.com/svgjs"
  version="1.1" x="0" y="0" viewBox="0 0 512 512" style="enable-background:new 0 0 512 512" xml:space="preserve"
  class="">
  <g>
    <g xmlns="http://www.w3.org/2000/svg">
      <path fill="currentColor"
        d="m210.67 191.014h232.02c4.174 0 7.557-3.38 7.557-7.55s-3.383-7.55-7.557-7.55h-232.02c-4.174 0-7.557 3.38-7.557 7.55s3.383 7.55 7.557 7.55z"
        data-original="#000000" style="" class="" />
      <path
        d="m210.67 246.025h232.02c4.174 0 7.557-3.38 7.557-7.55s-3.383-7.55-7.557-7.55h-232.02c-4.174 0-7.557 3.38-7.557 7.55s3.383 7.55 7.557 7.55z"
        data-original="#000000" style="" class="" />
      <path
        d="m272.65 285.964h-89.611c-4.174 0-7.557 3.38-7.557 7.55s3.383 7.55 7.557 7.55h89.611c4.174 0 7.557-3.38 7.557-7.55s-3.383-7.55-7.557-7.55z"
        data-original="#000000" style="" class="" />
      <path
        d="m77.992 293.513c0 4.17 3.384 7.55 7.557 7.55h57.53c4.174 0 7.557-3.38 7.557-7.55s-3.383-7.55-7.557-7.55h-57.53c-4.174.001-7.557 3.381-7.557 7.55z"
        data-original="#000000" style="" class="" />
      <path
        d="m99.861 263.918c4.174 0 7.557-3.38 7.557-7.55s-3.383-7.55-7.557-7.55c-4.219 0-9.248-2.123-9.248-12.241v-10.645c0-6.222-1.82-10.438-4.228-13.351 2.407-2.915 4.228-7.131 4.228-13.348v-10.645c0-10.117 5.029-12.24 9.248-12.24 4.174 0 7.557-3.38 7.557-7.55s-3.383-7.55-7.557-7.55c-12.127 0-24.363 8.454-24.363 27.339v10.645c0 3.965-.722 4.233-4.19 5.524-.794.296-1.614.601-2.45.987-3.788 1.751-5.438 6.238-3.686 10.022.688 1.486 1.806 2.629 3.131 3.38.161.106 2.25 1.001 3.003 1.278 3.47 1.276 4.192 1.542 4.192 5.507v10.645c0 18.889 12.236 27.343 24.363 27.343z"
        data-original="#000000" style="" class="" />
      <path
        d="m148.417 235.389c0 10.117-5.029 12.24-9.248 12.24-4.174 0-7.557 3.38-7.557 7.55s3.383 7.55 7.557 7.55c12.127 0 24.363-8.454 24.363-27.339v-10.617c0-3.965.722-4.234 4.19-5.524.757-.282 1.539-.577 2.334-.938.022-.01.346-.167.434-.226 1.442-.751 2.661-1.955 3.386-3.547 1.729-3.795.051-8.272-3.747-9.999-.821-.373-1.627-.67-2.406-.956-3.47-1.276-4.192-1.542-4.192-5.508v-10.645c0-18.886-12.236-27.34-24.363-27.34-4.174 0-7.557 3.38-7.557 7.55s3.383 7.55 7.557 7.55c4.219 0 9.248 2.123 9.248 12.241v10.645c0 6.221 1.82 10.437 4.228 13.351-2.407 2.915-4.228 7.131-4.228 13.348v10.614z"
        data-original="#000000" style="" class="" />
      <path
        d="m267.663 340.974h-183.106c-4.174 0-7.557 3.38-7.557 7.55s3.383 7.55 7.557 7.55h183.105c4.174 0 7.557-3.38 7.557-7.55s-3.383-7.55-7.556-7.55z"
        data-original="#000000" style="" class="" />
      <path
        d="m266.671 396.013h-183.106c-4.174 0-7.557 3.38-7.557 7.55s3.383 7.55 7.557 7.55h183.105c4.174 0 7.557-3.38 7.557-7.55s-3.383-7.55-7.556-7.55z"
        data-original="#000000" style="" class="" />
      <path
        d="m432.63 96.905c13.012 0 23.597-10.576 23.597-23.575s-10.585-23.574-23.597-23.574c-13.027 0-23.625 10.575-23.625 23.574s10.597 23.575 23.625 23.575zm0-32.049c4.678 0 8.483 3.802 8.483 8.475s-3.806 8.475-8.483 8.475c-4.693 0-8.512-3.802-8.512-8.475s3.818-8.475 8.512-8.475z"
        data-original="#000000" style="" class="" />
      <path
        d="m364.443 96.905c13.013 0 23.598-10.576 23.598-23.575s-10.585-23.574-23.598-23.574c-13.012 0-23.597 10.575-23.597 23.574s10.585 23.575 23.597 23.575zm0-32.049c4.678 0 8.484 3.802 8.484 8.475s-3.807 8.475-8.484 8.475c-4.678 0-8.483-3.802-8.483-8.475s3.805-8.475 8.483-8.475z"
        data-original="#000000" style="" class="" />
      <path
        d="m296.258 96.905c13.012 0 23.597-10.576 23.597-23.575s-10.585-23.574-23.597-23.574c-13.013 0-23.598 10.575-23.598 23.574s10.585 23.575 23.598 23.575zm0-32.049c4.678 0 8.483 3.802 8.483 8.475s-3.806 8.475-8.483 8.475-8.484-3.802-8.484-8.475c-.001-4.673 3.806-8.475 8.484-8.475z"
        data-original="#000000" style="" class="" />
      <path
        d="m453.658 18.5h-395.344c-32.154 0-58.314 26.134-58.314 58.257v358.459c0 32.137 26.16 58.284 58.314 58.284h395.344c32.17 0 58.342-26.147 58.342-58.285v-358.458c0-32.123-26.172-58.257-58.342-58.257zm0 459.901h-395.344c-23.82 0-43.2-19.373-43.2-43.185v-305.696h111.046c4.174 0 7.557-3.38 7.557-7.55s-3.383-7.55-7.557-7.55h-111.045v-37.663c0-23.797 19.379-43.157 43.2-43.157h395.344c23.836 0 43.228 19.36 43.228 43.157v37.664h-336.124c-4.174 0-7.557 3.38-7.557 7.55s3.383 7.55 7.557 7.55h336.123v305.695c0 23.812-19.392 43.185-43.228 43.185z"
        data-original="#000000" style="" class="" />
      <path
        d="m448.698 333.217h-2.016c-.539-1.445-1.125-2.872-1.755-4.279l1.407-1.406c2.904-2.901 4.498-6.764 4.488-10.878-.01-4.1-1.613-7.939-4.482-10.779l-14.629-14.643c-2.894-2.891-6.749-4.483-10.856-4.483-4.106 0-7.962 1.593-10.855 4.483l-1.406 1.404c-1.411-.632-2.84-1.218-4.285-1.756v-2.011c0-8.44-6.886-15.307-15.35-15.307h-20.689c-8.464 0-15.35 6.867-15.35 15.307v2.441c-1.324.517-2.636 1.076-3.935 1.676l-1.756-1.754c-2.895-2.892-6.747-4.483-10.851-4.483-.013 0-.025 0-.037 0-4.095.01-7.928 1.603-10.799 4.487l-14.623 14.609c-2.9 2.87-4.503 6.709-4.513 10.809-.01 4.114 1.585 7.976 4.487 10.877l2.18 2.177c-.508 1.159-.982 2.329-1.425 3.508h-3.119c-8.448 0-15.322 6.88-15.322 15.335v20.668c0 8.456 6.873 15.335 15.322 15.335h3.559c.418 1.067.86 2.122 1.327 3.167l-2.52 2.517c-5.986 5.98-5.986 15.71.005 21.695l14.621 14.579c2.873 2.898 6.716 4.499 10.821 4.509h.037c4.104 0 7.956-1.591 10.852-4.484l2.505-2.504c1.051.47 2.113.914 3.185 1.331v3.535c0 8.456 6.886 15.335 15.35 15.335h20.689c8.464 0 15.35-6.88 15.35-15.335v-3.115c1.178-.439 2.352-.913 3.518-1.418l2.172 2.17c2.894 2.891 6.749 4.484 10.856 4.484s7.962-1.592 10.856-4.484l14.624-14.609c2.894-2.891 4.488-6.743 4.488-10.845s-1.594-7.953-4.488-10.845l-1.75-1.748c.6-1.297 1.161-2.61 1.679-3.937h2.435c8.465 0 15.351-6.88 15.351-15.335v-20.668c-.002-8.453-6.888-15.332-15.353-15.332zm.237 36.003c0 .106-.131.236-.237.236h-7.821c-3.342 0-6.287 2.193-7.242 5.392-1.175 3.932-2.81 7.759-4.86 11.375-1.675 2.953-1.172 6.661 1.231 9.06l5.64 5.634c.082.081.082.255 0 .336l-14.624 14.609c-.033.033-.302.035-.337 0l-5.952-5.946c-2.339-2.336-5.926-2.88-8.855-1.346-3.658 1.918-7.419 3.427-11.179 4.487-3.257.918-5.506 3.886-5.506 7.266v8.579c0 .107-.105.236-.236.236h-20.689c-.105 0-.236-.13-.236-.236v-8.919c0-3.339-2.196-6.282-5.399-7.235-3.727-1.109-7.344-2.624-10.751-4.5-1.146-.632-2.402-.939-3.648-.939-1.957 0-3.892.759-5.346 2.212l-6.347 6.342c-.017.017-.061.061-.165.061h-.001c-.083 0-.109-.027-.148-.066l-14.646-14.604c-.081-.081-.081-.255.001-.336l6.348-6.342c2.368-2.366 2.895-6.007 1.294-8.946-1.868-3.429-3.395-7.07-4.538-10.822-.97-3.178-3.904-5.35-7.23-5.35h-8.928c-.091 0-.208-.115-.208-.236v-20.668c0-.121.117-.236.208-.236h8.587c3.383 0 6.354-2.246 7.273-5.499 1.075-3.803 2.585-7.532 4.49-11.085 1.573-2.933 1.038-6.549-1.317-8.903l-5.98-5.974c-.017-.017-.061-.061-.061-.165 0-.082.027-.109.061-.143l14.651-14.638c.008-.008.017-.017.024-.025.009-.009.035-.036.118-.036h.001c.103 0 .148.044.164.06l5.639 5.634c2.397 2.394 6.095 2.902 9.05 1.242 3.664-2.059 7.506-3.697 11.418-4.87 3.197-.958 5.385-3.897 5.385-7.231v-7.814c0-.091.115-.208.236-.208h20.689c.139 0 .236.109.236.208v7.475c0 3.378 2.246 6.344 5.499 7.264 4.065 1.15 8.028 2.773 11.779 4.823 2.943 1.61 6.598 1.087 8.972-1.284l5.244-5.239c.033-.033.309-.028.33-.004l14.654 14.668c.009.009.036.035.036.118 0 .104-.044.149-.062.166l-5.243 5.238c-2.373 2.371-2.896 6.021-1.285 8.962 2.038 3.72 3.663 7.683 4.831 11.778.925 3.244 3.892 5.482 7.268 5.482h7.482c.106 0 .237.13.237.236v20.666z"
        data-original="#000000" style="" class="" />
      <path
        d="m378.614 319.401c-21.795 0-39.525 17.713-39.525 39.485s17.73 39.485 39.525 39.485c21.794 0 39.524-17.713 39.524-39.485s-17.731-39.485-39.524-39.485zm0 63.871c-13.46 0-24.411-10.939-24.411-24.386s10.952-24.386 24.411-24.386c13.46 0 24.41 10.94 24.41 24.386s-10.951 24.386-24.41 24.386z"
        data-original="#000000" style="" class="" />
    </g>
  </g>
</svg>
